solid assemblageComplet - ecrouVisAttache-5-1
   facet normal -2.693556e-01 -5.178872e-01 -8.119362e-01
      outer loop
         vertex 3.462675e+02 1.232723e+03 1.425017e+03
         vertex 3.499389e+02 1.216266e+03 1.434297e+03
         vertex 3.368279e+02 1.232473e+03 1.428308e+03
      endloop
   endfacet
   facet normal -2.693556e-01 -5.178872e-01 -8.119362e-01
      outer loop
         vertex 3.499389e+02 1.216266e+03 1.434297e+03
         vertex 3.404993e+02 1.216016e+03 1.437588e+03
         vertex 3.368279e+02 1.232473e+03 1.428308e+03
      endloop
   endfacet
   facet normal 2.693556e-01 5.178872e-01 8.119362e-01
      outer loop
         vertex 3.494787e+02 1.233280e+03 1.464655e+03
         vertex 3.552469e+02 1.249988e+03 1.452085e+03
         vertex 3.458073e+02 1.249738e+03 1.455376e+03
      endloop
   endfacet
   facet normal -3.051910e-02 9.994673e-01 -1.156593e-02
      outer loop
         vertex 3.552469e+02 1.249988e+03 1.452085e+03
         vertex 3.489215e+02 1.249585e+03 1.433911e+03
         vertex 3.458073e+02 1.249738e+03 1.455376e+03
      endloop
   endfacet
   facet normal -3.051910e-02 9.994673e-01 -1.156593e-02
      outer loop
         vertex 3.489215e+02 1.249585e+03 1.433911e+03
         vertex 3.394819e+02 1.249335e+03 1.437202e+03
         vertex 3.458073e+02 1.249738e+03 1.455376e+03
      endloop
   endfacet
   facet normal -9.439602e-01 -2.501568e-02 3.291099e-01
      outer loop
         vertex 3.433734e+02 1.242778e+03 1.447866e+03
         vertex 3.438198e+02 1.242498e+03 1.449125e+03
         vertex 3.458073e+02 1.249738e+03 1.455376e+03
      endloop
   endfacet
   facet normal -9.439602e-01 -2.501568e-02 3.291099e-01
      outer loop
         vertex 3.394819e+02 1.249335e+03 1.437202e+03
         vertex 3.424767e+02 1.242783e+03 1.445294e+03
         vertex 3.458073e+02 1.249738e+03 1.455376e+03
      endloop
   endfacet
   facet normal -9.439602e-01 -2.501568e-02 3.291099e-01
      outer loop
         vertex 3.424767e+02 1.242783e+03 1.445294e+03
         vertex 3.429229e+02 1.242874e+03 1.446581e+03
         vertex 3.458073e+02 1.249738e+03 1.455376e+03
      endloop
   endfacet
   facet normal -9.439602e-01 -2.501568e-02 3.291099e-01
      outer loop
         vertex 3.429229e+02 1.242874e+03 1.446581e+03
         vertex 3.433734e+02 1.242778e+03 1.447866e+03
         vertex 3.458073e+02 1.249738e+03 1.455376e+03
      endloop
   endfacet
   facet normal -9.439602e-01 -2.501568e-02 3.291099e-01
      outer loop
         vertex 3.438198e+02 1.242498e+03 1.449125e+03
         vertex 3.442537e+02 1.242039e+03 1.450334e+03
         vertex 3.458073e+02 1.249738e+03 1.455376e+03
      endloop
   endfacet
   facet normal -9.439602e-01 -2.501568e-02 3.291099e-01
      outer loop
         vertex 3.442537e+02 1.242039e+03 1.450334e+03
         vertex 3.446672e+02 1.241409e+03 1.451472e+03
         vertex 3.458073e+02 1.249738e+03 1.455376e+03
      endloop
   endfacet
   facet normal -9.439602e-01 -2.501568e-02 3.291099e-01
      outer loop
         vertex 3.446672e+02 1.241409e+03 1.451472e+03
         vertex 3.450525e+02 1.240620e+03 1.452518e+03
         vertex 3.458073e+02 1.249738e+03 1.455376e+03
      endloop
   endfacet
   facet normal -9.439602e-01 -2.501568e-02 3.291099e-01
      outer loop
         vertex 3.450525e+02 1.240620e+03 1.452518e+03
         vertex 3.454024e+02 1.239687e+03 1.453450e+03
         vertex 3.458073e+02 1.249738e+03 1.455376e+03
      endloop
   endfacet
   facet normal -9.439602e-01 -2.501568e-02 3.291099e-01
      outer loop
         vertex 3.454024e+02 1.239687e+03 1.453450e+03
         vertex 3.457104e+02 1.238627e+03 1.454253e+03
         vertex 3.458073e+02 1.249738e+03 1.455376e+03
      endloop
   endfacet
   facet normal -9.439602e-01 -2.501568e-02 3.291099e-01
      outer loop
         vertex 3.457104e+02 1.238627e+03 1.454253e+03
         vertex 3.494787e+02 1.233280e+03 1.464655e+03
         vertex 3.458073e+02 1.249738e+03 1.455376e+03
      endloop
   endfacet
   facet normal -2.998747e-01 4.815801e-01 -8.235022e-01
      outer loop
         vertex 3.489215e+02 1.249585e+03 1.433911e+03
         vertex 3.462675e+02 1.232723e+03 1.425017e+03
         vertex 3.394819e+02 1.249335e+03 1.437202e+03
      endloop
   endfacet
   facet normal -2.998747e-01 4.815801e-01 -8.235022e-01
      outer loop
         vertex 3.462675e+02 1.232723e+03 1.425017e+03
         vertex 3.368279e+02 1.232473e+03 1.428308e+03
         vertex 3.394819e+02 1.249335e+03 1.437202e+03
      endloop
   endfacet
   facet normal -9.439602e-01 -2.501568e-02 3.291099e-01
      outer loop
         vertex 3.420431e+02 1.242508e+03 1.444030e+03
         vertex 3.424767e+02 1.242783e+03 1.445294e+03
         vertex 3.394819e+02 1.249335e+03 1.437202e+03
      endloop
   endfacet
   facet normal -9.439602e-01 -2.501568e-02 3.291099e-01
      outer loop
         vertex 3.405897e+02 1.239713e+03 1.439648e+03
         vertex 3.408967e+02 1.240643e+03 1.440600e+03
         vertex 3.394819e+02 1.249335e+03 1.437202e+03
      endloop
   endfacet
   facet normal -9.439602e-01 -2.501568e-02 3.291099e-01
      outer loop
         vertex 3.408967e+02 1.240643e+03 1.440600e+03
         vertex 3.412457e+02 1.241427e+03 1.441660e+03
         vertex 3.394819e+02 1.249335e+03 1.437202e+03
      endloop
   endfacet
   facet normal -9.439602e-01 -2.501568e-02 3.291099e-01
      outer loop
         vertex 3.412457e+02 1.241427e+03 1.441660e+03
         vertex 3.416302e+02 1.242053e+03 1.442811e+03
         vertex 3.394819e+02 1.249335e+03 1.437202e+03
      endloop
   endfacet
   facet normal -9.439602e-01 -2.501568e-02 3.291099e-01
      outer loop
         vertex 3.416302e+02 1.242053e+03 1.442811e+03
         vertex 3.420431e+02 1.242508e+03 1.444030e+03
         vertex 3.394819e+02 1.249335e+03 1.437202e+03
      endloop
   endfacet
   facet normal -9.439602e-01 -2.501568e-02 3.291099e-01
      outer loop
         vertex 3.368279e+02 1.232473e+03 1.428308e+03
         vertex 3.401239e+02 1.237492e+03 1.438144e+03
         vertex 3.394819e+02 1.249335e+03 1.437202e+03
      endloop
   endfacet
   facet normal -9.439602e-01 -2.501568e-02 3.291099e-01
      outer loop
         vertex 3.401239e+02 1.237492e+03 1.438144e+03
         vertex 3.403305e+02 1.238656e+03 1.438825e+03
         vertex 3.394819e+02 1.249335e+03 1.437202e+03
      endloop
   endfacet
   facet normal -9.439602e-01 -2.501568e-02 3.291099e-01
      outer loop
         vertex 3.403305e+02 1.238656e+03 1.438825e+03
         vertex 3.405897e+02 1.239713e+03 1.439648e+03
         vertex 3.394819e+02 1.249335e+03 1.437202e+03
      endloop
   endfacet
   facet normal 4.545399e-02 -9.974757e-01 5.455387e-02
      outer loop
         vertex 3.424767e+02 1.242783e+03 1.445294e+03
         vertex 3.519163e+02 1.243033e+03 1.442003e+03
         vertex 3.429229e+02 1.242874e+03 1.446581e+03
      endloop
   endfacet
   facet normal 4.545399e-02 -9.974757e-01 5.455387e-02
      outer loop
         vertex 3.519163e+02 1.243033e+03 1.442003e+03
         vertex 3.523625e+02 1.243124e+03 1.443290e+03
         vertex 3.429229e+02 1.242874e+03 1.446581e+03
      endloop
   endfacet
   facet normal 5.157321e-04 -9.972343e-01 -7.432065e-02
      outer loop
         vertex 3.523625e+02 1.243124e+03 1.443290e+03
         vertex 3.433734e+02 1.242778e+03 1.447866e+03
         vertex 3.429229e+02 1.242874e+03 1.446581e+03
      endloop
   endfacet
   facet normal 5.157321e-04 -9.972343e-01 -7.432065e-02
      outer loop
         vertex 3.523625e+02 1.243124e+03 1.443290e+03
         vertex 3.528130e+02 1.243028e+03 1.444574e+03
         vertex 3.433734e+02 1.242778e+03 1.447866e+03
      endloop
   endfacet
   facet normal -4.443190e-02 -9.784163e-01 -2.018101e-01
      outer loop
         vertex 3.528130e+02 1.243028e+03 1.444574e+03
         vertex 3.438198e+02 1.242498e+03 1.449125e+03
         vertex 3.433734e+02 1.242778e+03 1.447866e+03
      endloop
   endfacet
   facet normal 8.954530e-02 -9.791362e-01 1.824115e-01
      outer loop
         vertex 3.420431e+02 1.242508e+03 1.444030e+03
         vertex 3.514827e+02 1.242758e+03 1.440738e+03
         vertex 3.424767e+02 1.242783e+03 1.445294e+03
      endloop
   endfacet
   facet normal 8.954530e-02 -9.791362e-01 1.824115e-01
      outer loop
         vertex 3.514827e+02 1.242758e+03 1.440738e+03
         vertex 3.519163e+02 1.243033e+03 1.442003e+03
         vertex 3.424767e+02 1.242783e+03 1.445294e+03
      endloop
   endfacet
   facet normal -4.443190e-02 -9.784163e-01 -2.018101e-01
      outer loop
         vertex 3.528130e+02 1.243028e+03 1.444574e+03
         vertex 3.532594e+02 1.242748e+03 1.445834e+03
         vertex 3.438198e+02 1.242498e+03 1.449125e+03
      endloop
   endfacet
   facet normal -8.855234e-02 -9.413720e-01 -3.255415e-01
      outer loop
         vertex 3.532594e+02 1.242748e+03 1.445834e+03
         vertex 3.442537e+02 1.242039e+03 1.450334e+03
         vertex 3.438198e+02 1.242498e+03 1.449125e+03
      endloop
   endfacet
   facet normal 1.319690e-01 -9.425569e-01 3.068725e-01
      outer loop
         vertex 3.416302e+02 1.242053e+03 1.442811e+03
         vertex 3.510698e+02 1.242303e+03 1.439520e+03
         vertex 3.420431e+02 1.242508e+03 1.444030e+03
      endloop
   endfacet
   facet normal 1.319690e-01 -9.425569e-01 3.068725e-01
      outer loop
         vertex 3.510698e+02 1.242303e+03 1.439520e+03
         vertex 3.514827e+02 1.242758e+03 1.440738e+03
         vertex 3.420431e+02 1.242508e+03 1.444030e+03
      endloop
   endfacet
   facet normal -8.855234e-02 -9.413720e-01 -3.255415e-01
      outer loop
         vertex 3.532594e+02 1.242748e+03 1.445834e+03
         vertex 3.536933e+02 1.242289e+03 1.447043e+03
         vertex 3.442537e+02 1.242039e+03 1.450334e+03
      endloop
   endfacet
   facet normal -1.310228e-01 -8.867920e-01 -4.432076e-01
      outer loop
         vertex 3.536933e+02 1.242289e+03 1.447043e+03
         vertex 3.446672e+02 1.241409e+03 1.451472e+03
         vertex 3.442537e+02 1.242039e+03 1.450334e+03
      endloop
   endfacet
   facet normal 1.719340e-01 -8.884198e-01 4.256159e-01
      outer loop
         vertex 3.412457e+02 1.241427e+03 1.441660e+03
         vertex 3.506853e+02 1.241678e+03 1.438369e+03
         vertex 3.416302e+02 1.242053e+03 1.442811e+03
      endloop
   endfacet
   facet normal 1.719340e-01 -8.884198e-01 4.256159e-01
      outer loop
         vertex 3.506853e+02 1.241678e+03 1.438369e+03
         vertex 3.510698e+02 1.242303e+03 1.439520e+03
         vertex 3.416302e+02 1.242053e+03 1.442811e+03
      endloop
   endfacet
   facet normal -1.310228e-01 -8.867920e-01 -4.432076e-01
      outer loop
         vertex 3.536933e+02 1.242289e+03 1.447043e+03
         vertex 3.541068e+02 1.241659e+03 1.448181e+03
         vertex 3.446672e+02 1.241409e+03 1.451472e+03
      endloop
   endfacet
   facet normal -1.710525e-01 -8.156929e-01 -5.526175e-01
      outer loop
         vertex 3.541068e+02 1.241659e+03 1.448181e+03
         vertex 3.450525e+02 1.240620e+03 1.452518e+03
         vertex 3.446672e+02 1.241409e+03 1.451472e+03
      endloop
   endfacet
   facet normal 2.086962e-01 -8.177333e-01 5.364309e-01
      outer loop
         vertex 3.408967e+02 1.240643e+03 1.440600e+03
         vertex 3.503363e+02 1.240893e+03 1.437308e+03
         vertex 3.412457e+02 1.241427e+03 1.441660e+03
      endloop
   endfacet
   facet normal 2.086962e-01 -8.177333e-01 5.364309e-01
      outer loop
         vertex 3.503363e+02 1.240893e+03 1.437308e+03
         vertex 3.506853e+02 1.241678e+03 1.438369e+03
         vertex 3.412457e+02 1.241427e+03 1.441660e+03
      endloop
   endfacet
   facet normal -1.710525e-01 -8.156929e-01 -5.526175e-01
      outer loop
         vertex 3.541068e+02 1.241659e+03 1.448181e+03
         vertex 3.544921e+02 1.240870e+03 1.449226e+03
         vertex 3.450525e+02 1.240620e+03 1.452518e+03
      endloop
   endfacet
   facet normal -2.078961e-01 -7.293987e-01 -6.517337e-01
      outer loop
         vertex 3.544921e+02 1.240870e+03 1.449226e+03
         vertex 3.454024e+02 1.239687e+03 1.453450e+03
         vertex 3.450525e+02 1.240620e+03 1.452518e+03
      endloop
   endfacet
   facet normal 2.415709e-01 -7.318137e-01 6.372536e-01
      outer loop
         vertex 3.405897e+02 1.239713e+03 1.439648e+03
         vertex 3.500294e+02 1.239963e+03 1.436357e+03
         vertex 3.408967e+02 1.240643e+03 1.440600e+03
      endloop
   endfacet
   facet normal 2.415709e-01 -7.318137e-01 6.372536e-01
      outer loop
         vertex 3.500294e+02 1.239963e+03 1.436357e+03
         vertex 3.503363e+02 1.240893e+03 1.437308e+03
         vertex 3.408967e+02 1.240643e+03 1.440600e+03
      endloop
   endfacet
   facet normal -2.078961e-01 -7.293987e-01 -6.517337e-01
      outer loop
         vertex 3.544921e+02 1.240870e+03 1.449226e+03
         vertex 3.548420e+02 1.239937e+03 1.450159e+03
         vertex 3.454024e+02 1.239687e+03 1.453450e+03
      endloop
   endfacet
   facet normal -2.408669e-01 -6.295170e-01 -7.387093e-01
      outer loop
         vertex 3.548420e+02 1.239937e+03 1.450159e+03
         vertex 3.457104e+02 1.238627e+03 1.454253e+03
         vertex 3.454024e+02 1.239687e+03 1.453450e+03
      endloop
   endfacet
   facet normal 2.699456e-01 -6.322617e-01 7.262056e-01
      outer loop
         vertex 3.403305e+02 1.238656e+03 1.438825e+03
         vertex 3.497701e+02 1.238906e+03 1.435534e+03
         vertex 3.405897e+02 1.239713e+03 1.439648e+03
      endloop
   endfacet
   facet normal 2.699456e-01 -6.322617e-01 7.262056e-01
      outer loop
         vertex 3.497701e+02 1.238906e+03 1.435534e+03
         vertex 3.500294e+02 1.239963e+03 1.436357e+03
         vertex 3.405897e+02 1.239713e+03 1.439648e+03
      endloop
   endfacet
   facet normal -9.439602e-01 -2.501568e-02 3.291099e-01
      outer loop
         vertex 3.459707e+02 1.237460e+03 1.454911e+03
         vertex 3.494787e+02 1.233280e+03 1.464655e+03
         vertex 3.457104e+02 1.238627e+03 1.454253e+03
      endloop
   endfacet
   facet normal -2.408669e-01 -6.295170e-01 -7.387093e-01
      outer loop
         vertex 3.548420e+02 1.239937e+03 1.450159e+03
         vertex 3.551500e+02 1.238877e+03 1.450962e+03
         vertex 3.457104e+02 1.238627e+03 1.454253e+03
      endloop
   endfacet
   facet normal -2.693507e-01 -5.179091e-01 -8.119239e-01
      outer loop
         vertex 3.551500e+02 1.238877e+03 1.450962e+03
         vertex 3.459707e+02 1.237460e+03 1.454911e+03
         vertex 3.457104e+02 1.238627e+03 1.454253e+03
      endloop
   endfacet
   facet normal 2.932916e-01 -5.209322e-01 8.016294e-01
      outer loop
         vertex 3.401239e+02 1.237492e+03 1.438144e+03
         vertex 3.495635e+02 1.237742e+03 1.434852e+03
         vertex 3.403305e+02 1.238656e+03 1.438825e+03
      endloop
   endfacet
   facet normal 2.932916e-01 -5.209322e-01 8.016294e-01
      outer loop
         vertex 3.495635e+02 1.237742e+03 1.434852e+03
         vertex 3.497701e+02 1.238906e+03 1.435534e+03
         vertex 3.403305e+02 1.238656e+03 1.438825e+03
      endloop
   endfacet
   facet normal -9.439602e-01 -2.501568e-02 3.291099e-01
      outer loop
         vertex 3.461786e+02 1.236208e+03 1.455412e+03
         vertex 3.494787e+02 1.233280e+03 1.464655e+03
         vertex 3.459707e+02 1.237460e+03 1.454911e+03
      endloop
   endfacet
   facet normal -2.693507e-01 -5.179091e-01 -8.119239e-01
      outer loop
         vertex 3.551500e+02 1.238877e+03 1.450962e+03
         vertex 3.554103e+02 1.237710e+03 1.451620e+03
         vertex 3.459707e+02 1.237460e+03 1.454911e+03
      endloop
   endfacet
   facet normal -2.928171e-01 -3.966534e-01 -8.700139e-01
      outer loop
         vertex 3.554103e+02 1.237710e+03 1.451620e+03
         vertex 3.461786e+02 1.236208e+03 1.455412e+03
         vertex 3.459707e+02 1.237460e+03 1.454911e+03
      endloop
   endfacet
   facet normal -9.439602e-01 -2.501568e-02 3.291099e-01
      outer loop
         vertex 3.368279e+02 1.232473e+03 1.428308e+03
         vertex 3.399737e+02 1.236241e+03 1.437618e+03
         vertex 3.401239e+02 1.237492e+03 1.438144e+03
      endloop
   endfacet
   facet normal 3.111743e-01 -3.998987e-01 8.621204e-01
      outer loop
         vertex 3.399737e+02 1.236241e+03 1.437618e+03
         vertex 3.494133e+02 1.236491e+03 1.434327e+03
         vertex 3.401239e+02 1.237492e+03 1.438144e+03
      endloop
   endfacet
   facet normal 3.111743e-01 -3.998987e-01 8.621204e-01
      outer loop
         vertex 3.494133e+02 1.236491e+03 1.434327e+03
         vertex 3.495635e+02 1.237742e+03 1.434852e+03
         vertex 3.401239e+02 1.237492e+03 1.438144e+03
      endloop
   endfacet
   facet normal -9.439602e-01 -2.501568e-02 3.291099e-01
      outer loop
         vertex 3.463301e+02 1.234893e+03 1.455747e+03
         vertex 3.494787e+02 1.233280e+03 1.464655e+03
         vertex 3.461786e+02 1.236208e+03 1.455412e+03
      endloop
   endfacet
   facet normal -2.928171e-01 -3.966534e-01 -8.700139e-01
      outer loop
         vertex 3.554103e+02 1.237710e+03 1.451620e+03
         vertex 3.556182e+02 1.236458e+03 1.452121e+03
         vertex 3.461786e+02 1.236208e+03 1.455412e+03
      endloop
   endfacet
   facet normal -3.108289e-01 -2.680079e-01 -9.118975e-01
      outer loop
         vertex 3.556182e+02 1.236458e+03 1.452121e+03
         vertex 3.463301e+02 1.234893e+03 1.455747e+03
         vertex 3.461786e+02 1.236208e+03 1.455412e+03
      endloop
   endfacet
   facet normal -9.439602e-01 -2.501568e-02 3.291099e-01
      outer loop
         vertex 3.368279e+02 1.232473e+03 1.428308e+03
         vertex 3.398828e+02 1.234928e+03 1.437257e+03
         vertex 3.399737e+02 1.236241e+03 1.437618e+03
      endloop
   endfacet
   facet normal 3.232603e-01 -2.714149e-01 9.065521e-01
      outer loop
         vertex 3.398828e+02 1.234928e+03 1.437257e+03
         vertex 3.493224e+02 1.235178e+03 1.433966e+03
         vertex 3.399737e+02 1.236241e+03 1.437618e+03
      endloop
   endfacet
   facet normal 3.232603e-01 -2.714149e-01 9.065521e-01
      outer loop
         vertex 3.493224e+02 1.235178e+03 1.433966e+03
         vertex 3.494133e+02 1.236491e+03 1.434327e+03
         vertex 3.399737e+02 1.236241e+03 1.437618e+03
      endloop
   endfacet
   facet normal -9.439602e-01 -2.501568e-02 3.291099e-01
      outer loop
         vertex 3.464225e+02 1.233541e+03 1.455909e+03
         vertex 3.494787e+02 1.233280e+03 1.464655e+03
         vertex 3.463301e+02 1.234893e+03 1.455747e+03
      endloop
   endfacet
   facet normal -3.108289e-01 -2.680079e-01 -9.118975e-01
      outer loop
         vertex 3.556182e+02 1.236458e+03 1.452121e+03
         vertex 3.557697e+02 1.235144e+03 1.452456e+03
         vertex 3.463301e+02 1.234893e+03 1.455747e+03
      endloop
   endfacet
   facet normal -3.230504e-01 -1.343715e-01 -9.367938e-01
      outer loop
         vertex 3.557697e+02 1.235144e+03 1.452456e+03
         vertex 3.464225e+02 1.233541e+03 1.455909e+03
         vertex 3.463301e+02 1.234893e+03 1.455747e+03
      endloop
   endfacet
   facet normal -9.439602e-01 -2.501568e-02 3.291099e-01
      outer loop
         vertex 3.368279e+02 1.232473e+03 1.428308e+03
         vertex 3.398527e+02 1.233577e+03 1.437068e+03
         vertex 3.398828e+02 1.234928e+03 1.437257e+03
      endloop
   endfacet
   facet normal 3.293246e-01 -1.378768e-01 9.340960e-01
      outer loop
         vertex 3.398527e+02 1.233577e+03 1.437068e+03
         vertex 3.492923e+02 1.233827e+03 1.433777e+03
         vertex 3.398828e+02 1.234928e+03 1.437257e+03
      endloop
   endfacet
   facet normal 3.293246e-01 -1.378768e-01 9.340960e-01
      outer loop
         vertex 3.492923e+02 1.233827e+03 1.433777e+03
         vertex 3.493224e+02 1.235178e+03 1.433966e+03
         vertex 3.398828e+02 1.234928e+03 1.437257e+03
      endloop
   endfacet
   facet normal -9.439602e-01 -2.501568e-02 3.291099e-01
      outer loop
         vertex 3.464539e+02 1.232177e+03 1.455895e+03
         vertex 3.494787e+02 1.233280e+03 1.464655e+03
         vertex 3.464225e+02 1.233541e+03 1.455909e+03
      endloop
   endfacet
   facet normal -3.230504e-01 -1.343715e-01 -9.367938e-01
      outer loop
         vertex 3.557697e+02 1.235144e+03 1.452456e+03
         vertex 3.558621e+02 1.233791e+03 1.452618e+03
         vertex 3.464225e+02 1.233541e+03 1.455909e+03
      endloop
   endfacet
   facet normal -3.292542e-01 1.769107e-03 -9.442397e-01
      outer loop
         vertex 3.558621e+02 1.233791e+03 1.452618e+03
         vertex 3.464539e+02 1.232177e+03 1.455895e+03
         vertex 3.464225e+02 1.233541e+03 1.455909e+03
      endloop
   endfacet
   facet normal -9.439602e-01 -2.501568e-02 3.291099e-01
      outer loop
         vertex 3.368279e+02 1.232473e+03 1.428308e+03
         vertex 3.398842e+02 1.232212e+03 1.437055e+03
         vertex 3.398527e+02 1.233577e+03 1.437068e+03
      endloop
   endfacet
   facet normal 3.292542e-01 -1.769107e-03 9.442397e-01
      outer loop
         vertex 3.398842e+02 1.232212e+03 1.437055e+03
         vertex 3.493238e+02 1.232462e+03 1.433763e+03
         vertex 3.398527e+02 1.233577e+03 1.437068e+03
      endloop
   endfacet
   facet normal 3.292542e-01 -1.769107e-03 9.442397e-01
      outer loop
         vertex 3.493238e+02 1.232462e+03 1.433763e+03
         vertex 3.492923e+02 1.233827e+03 1.433777e+03
         vertex 3.398527e+02 1.233577e+03 1.437068e+03
      endloop
   endfacet
   facet normal 2.693556e-01 5.178872e-01 8.119362e-01
      outer loop
         vertex 3.589183e+02 1.233530e+03 1.461364e+03
         vertex 3.552469e+02 1.249988e+03 1.452085e+03
         vertex 3.494787e+02 1.233280e+03 1.464655e+03
      endloop
   endfacet
   facet normal 2.998747e-01 -4.815801e-01 8.235022e-01
      outer loop
         vertex 3.468247e+02 1.216419e+03 1.455761e+03
         vertex 3.589183e+02 1.233530e+03 1.461364e+03
         vertex 3.494787e+02 1.233280e+03 1.464655e+03
      endloop
   endfacet
   facet normal -9.439602e-01 -2.501568e-02 3.291099e-01
      outer loop
         vertex 3.464539e+02 1.232177e+03 1.455895e+03
         vertex 3.464239e+02 1.230826e+03 1.455706e+03
         vertex 3.494787e+02 1.233280e+03 1.464655e+03
      endloop
   endfacet
   facet normal -9.439602e-01 -2.501568e-02 3.291099e-01
      outer loop
         vertex 3.464239e+02 1.230826e+03 1.455706e+03
         vertex 3.463329e+02 1.229512e+03 1.455346e+03
         vertex 3.494787e+02 1.233280e+03 1.464655e+03
      endloop
   endfacet
   facet normal -9.439602e-01 -2.501568e-02 3.291099e-01
      outer loop
         vertex 3.463329e+02 1.229512e+03 1.455346e+03
         vertex 3.461827e+02 1.228262e+03 1.454820e+03
         vertex 3.494787e+02 1.233280e+03 1.464655e+03
      endloop
   endfacet
   facet normal -9.439602e-01 -2.501568e-02 3.291099e-01
      outer loop
         vertex 3.461827e+02 1.228262e+03 1.454820e+03
         vertex 3.468247e+02 1.216419e+03 1.455761e+03
         vertex 3.494787e+02 1.233280e+03 1.464655e+03
      endloop
   endfacet
   facet normal -9.439602e-01 -2.501568e-02 3.291099e-01
      outer loop
         vertex 3.401280e+02 1.229546e+03 1.437551e+03
         vertex 3.399765e+02 1.230860e+03 1.437217e+03
         vertex 3.368279e+02 1.232473e+03 1.428308e+03
      endloop
   endfacet
   facet normal -9.439602e-01 -2.501568e-02 3.291099e-01
      outer loop
         vertex 3.404993e+02 1.216016e+03 1.437588e+03
         vertex 3.405963e+02 1.227126e+03 1.438710e+03
         vertex 3.368279e+02 1.232473e+03 1.428308e+03
      endloop
   endfacet
   facet normal -9.439602e-01 -2.501568e-02 3.291099e-01
      outer loop
         vertex 3.405963e+02 1.227126e+03 1.438710e+03
         vertex 3.403359e+02 1.228293e+03 1.438052e+03
         vertex 3.368279e+02 1.232473e+03 1.428308e+03
      endloop
   endfacet
   facet normal -9.439602e-01 -2.501568e-02 3.291099e-01
      outer loop
         vertex 3.403359e+02 1.228293e+03 1.438052e+03
         vertex 3.401280e+02 1.229546e+03 1.437551e+03
         vertex 3.368279e+02 1.232473e+03 1.428308e+03
      endloop
   endfacet
   facet normal -9.439602e-01 -2.501568e-02 3.291099e-01
      outer loop
         vertex 3.399765e+02 1.230860e+03 1.437217e+03
         vertex 3.398842e+02 1.232212e+03 1.437055e+03
         vertex 3.368279e+02 1.232473e+03 1.428308e+03
      endloop
   endfacet
   facet normal -3.292542e-01 1.769107e-03 -9.442397e-01
      outer loop
         vertex 3.558621e+02 1.233791e+03 1.452618e+03
         vertex 3.558935e+02 1.232427e+03 1.452604e+03
         vertex 3.464539e+02 1.232177e+03 1.455895e+03
      endloop
   endfacet
   facet normal -3.293246e-01 1.378768e-01 -9.340960e-01
      outer loop
         vertex 3.558935e+02 1.232427e+03 1.452604e+03
         vertex 3.464239e+02 1.230826e+03 1.455706e+03
         vertex 3.464539e+02 1.232177e+03 1.455895e+03
      endloop
   endfacet
   facet normal 3.230504e-01 1.343715e-01 9.367938e-01
      outer loop
         vertex 3.399765e+02 1.230860e+03 1.437217e+03
         vertex 3.494161e+02 1.231110e+03 1.433926e+03
         vertex 3.398842e+02 1.232212e+03 1.437055e+03
      endloop
   endfacet
   facet normal 3.230504e-01 1.343715e-01 9.367938e-01
      outer loop
         vertex 3.494161e+02 1.231110e+03 1.433926e+03
         vertex 3.493238e+02 1.232462e+03 1.433763e+03
         vertex 3.398842e+02 1.232212e+03 1.437055e+03
      endloop
   endfacet
   facet normal -3.293246e-01 1.378768e-01 -9.340960e-01
      outer loop
         vertex 3.558935e+02 1.232427e+03 1.452604e+03
         vertex 3.558635e+02 1.231076e+03 1.452415e+03
         vertex 3.464239e+02 1.230826e+03 1.455706e+03
      endloop
   endfacet
   facet normal -3.232603e-01 2.714149e-01 -9.065521e-01
      outer loop
         vertex 3.558635e+02 1.231076e+03 1.452415e+03
         vertex 3.463329e+02 1.229512e+03 1.455346e+03
         vertex 3.464239e+02 1.230826e+03 1.455706e+03
      endloop
   endfacet
   facet normal 3.108289e-01 2.680079e-01 9.118975e-01
      outer loop
         vertex 3.401280e+02 1.229546e+03 1.437551e+03
         vertex 3.495676e+02 1.229796e+03 1.434260e+03
         vertex 3.399765e+02 1.230860e+03 1.437217e+03
      endloop
   endfacet
   facet normal 3.108289e-01 2.680079e-01 9.118975e-01
      outer loop
         vertex 3.495676e+02 1.229796e+03 1.434260e+03
         vertex 3.494161e+02 1.231110e+03 1.433926e+03
         vertex 3.399765e+02 1.230860e+03 1.437217e+03
      endloop
   endfacet
   facet normal -3.232603e-01 2.714149e-01 -9.065521e-01
      outer loop
         vertex 3.558635e+02 1.231076e+03 1.452415e+03
         vertex 3.557725e+02 1.229763e+03 1.452055e+03
         vertex 3.463329e+02 1.229512e+03 1.455346e+03
      endloop
   endfacet
   facet normal -3.111743e-01 3.998987e-01 -8.621204e-01
      outer loop
         vertex 3.557725e+02 1.229763e+03 1.452055e+03
         vertex 3.461827e+02 1.228262e+03 1.454820e+03
         vertex 3.463329e+02 1.229512e+03 1.455346e+03
      endloop
   endfacet
   facet normal 2.928171e-01 3.966534e-01 8.700139e-01
      outer loop
         vertex 3.403359e+02 1.228293e+03 1.438052e+03
         vertex 3.497755e+02 1.228543e+03 1.434761e+03
         vertex 3.401280e+02 1.229546e+03 1.437551e+03
      endloop
   endfacet
   facet normal 2.928171e-01 3.966534e-01 8.700139e-01
      outer loop
         vertex 3.497755e+02 1.228543e+03 1.434761e+03
         vertex 3.495676e+02 1.229796e+03 1.434260e+03
         vertex 3.401280e+02 1.229546e+03 1.437551e+03
      endloop
   endfacet
   facet normal -9.439602e-01 -2.501568e-02 3.291099e-01
      outer loop
         vertex 3.459761e+02 1.227097e+03 1.454139e+03
         vertex 3.468247e+02 1.216419e+03 1.455761e+03
         vertex 3.461827e+02 1.228262e+03 1.454820e+03
      endloop
   endfacet
   facet normal -3.111743e-01 3.998987e-01 -8.621204e-01
      outer loop
         vertex 3.557725e+02 1.229763e+03 1.452055e+03
         vertex 3.556223e+02 1.228512e+03 1.451529e+03
         vertex 3.461827e+02 1.228262e+03 1.454820e+03
      endloop
   endfacet
   facet normal -2.932916e-01 5.209322e-01 -8.016294e-01
      outer loop
         vertex 3.556223e+02 1.228512e+03 1.451529e+03
         vertex 3.459761e+02 1.227097e+03 1.454139e+03
         vertex 3.461827e+02 1.228262e+03 1.454820e+03
      endloop
   endfacet
   facet normal 2.693507e-01 5.179091e-01 8.119239e-01
      outer loop
         vertex 3.405963e+02 1.227126e+03 1.438710e+03
         vertex 3.500359e+02 1.227376e+03 1.435419e+03
         vertex 3.403359e+02 1.228293e+03 1.438052e+03
      endloop
   endfacet
   facet normal 2.693507e-01 5.179091e-01 8.119239e-01
      outer loop
         vertex 3.500359e+02 1.227376e+03 1.435419e+03
         vertex 3.497755e+02 1.228543e+03 1.434761e+03
         vertex 3.403359e+02 1.228293e+03 1.438052e+03
      endloop
   endfacet
   facet normal -9.439602e-01 -2.501568e-02 3.291099e-01
      outer loop
         vertex 3.457169e+02 1.226040e+03 1.453315e+03
         vertex 3.468247e+02 1.216419e+03 1.455761e+03
         vertex 3.459761e+02 1.227097e+03 1.454139e+03
      endloop
   endfacet
   facet normal -2.932916e-01 5.209322e-01 -8.016294e-01
      outer loop
         vertex 3.556223e+02 1.228512e+03 1.451529e+03
         vertex 3.554157e+02 1.227347e+03 1.450848e+03
         vertex 3.459761e+02 1.227097e+03 1.454139e+03
      endloop
   endfacet
   facet normal -2.699456e-01 6.322617e-01 -7.262056e-01
      outer loop
         vertex 3.554157e+02 1.227347e+03 1.450848e+03
         vertex 3.457169e+02 1.226040e+03 1.453315e+03
         vertex 3.459761e+02 1.227097e+03 1.454139e+03
      endloop
   endfacet
   facet normal -9.439602e-01 -2.501568e-02 3.291099e-01
      outer loop
         vertex 3.404993e+02 1.216016e+03 1.437588e+03
         vertex 3.409042e+02 1.226066e+03 1.439513e+03
         vertex 3.405963e+02 1.227126e+03 1.438710e+03
      endloop
   endfacet
   facet normal 2.408669e-01 6.295170e-01 7.387093e-01
      outer loop
         vertex 3.409042e+02 1.226066e+03 1.439513e+03
         vertex 3.503439e+02 1.226316e+03 1.436222e+03
         vertex 3.405963e+02 1.227126e+03 1.438710e+03
      endloop
   endfacet
   facet normal 2.408669e-01 6.295170e-01 7.387093e-01
      outer loop
         vertex 3.503439e+02 1.226316e+03 1.436222e+03
         vertex 3.500359e+02 1.227376e+03 1.435419e+03
         vertex 3.405963e+02 1.227126e+03 1.438710e+03
      endloop
   endfacet
   facet normal -9.439602e-01 -2.501568e-02 3.291099e-01
      outer loop
         vertex 3.454099e+02 1.225111e+03 1.452364e+03
         vertex 3.468247e+02 1.216419e+03 1.455761e+03
         vertex 3.457169e+02 1.226040e+03 1.453315e+03
      endloop
   endfacet
   facet normal -2.699456e-01 6.322617e-01 -7.262056e-01
      outer loop
         vertex 3.554157e+02 1.227347e+03 1.450848e+03
         vertex 3.551565e+02 1.226291e+03 1.450024e+03
         vertex 3.457169e+02 1.226040e+03 1.453315e+03
      endloop
   endfacet
   facet normal -2.415709e-01 7.318137e-01 -6.372536e-01
      outer loop
         vertex 3.551565e+02 1.226291e+03 1.450024e+03
         vertex 3.454099e+02 1.225111e+03 1.452364e+03
         vertex 3.457169e+02 1.226040e+03 1.453315e+03
      endloop
   endfacet
   facet normal -9.439602e-01 -2.501568e-02 3.291099e-01
      outer loop
         vertex 3.404993e+02 1.216016e+03 1.437588e+03
         vertex 3.412541e+02 1.225133e+03 1.440446e+03
         vertex 3.409042e+02 1.226066e+03 1.439513e+03
      endloop
   endfacet
   facet normal 2.078961e-01 7.293987e-01 6.517337e-01
      outer loop
         vertex 3.412541e+02 1.225133e+03 1.440446e+03
         vertex 3.506937e+02 1.225383e+03 1.437155e+03
         vertex 3.409042e+02 1.226066e+03 1.439513e+03
      endloop
   endfacet
   facet normal 2.078961e-01 7.293987e-01 6.517337e-01
      outer loop
         vertex 3.506937e+02 1.225383e+03 1.437155e+03
         vertex 3.503439e+02 1.226316e+03 1.436222e+03
         vertex 3.409042e+02 1.226066e+03 1.439513e+03
      endloop
   endfacet
   facet normal -9.439602e-01 -2.501568e-02 3.291099e-01
      outer loop
         vertex 3.450609e+02 1.224326e+03 1.451303e+03
         vertex 3.468247e+02 1.216419e+03 1.455761e+03
         vertex 3.454099e+02 1.225111e+03 1.452364e+03
      endloop
   endfacet
   facet normal -2.415709e-01 7.318137e-01 -6.372536e-01
      outer loop
         vertex 3.551565e+02 1.226291e+03 1.450024e+03
         vertex 3.548495e+02 1.225361e+03 1.449073e+03
         vertex 3.454099e+02 1.225111e+03 1.452364e+03
      endloop
   endfacet
   facet normal -2.086962e-01 8.177333e-01 -5.364309e-01
      outer loop
         vertex 3.548495e+02 1.225361e+03 1.449073e+03
         vertex 3.450609e+02 1.224326e+03 1.451303e+03
         vertex 3.454099e+02 1.225111e+03 1.452364e+03
      endloop
   endfacet
   facet normal -9.439602e-01 -2.501568e-02 3.291099e-01
      outer loop
         vertex 3.404993e+02 1.216016e+03 1.437588e+03
         vertex 3.416394e+02 1.224344e+03 1.441491e+03
         vertex 3.412541e+02 1.225133e+03 1.440446e+03
      endloop
   endfacet
   facet normal 1.710525e-01 8.156929e-01 5.526175e-01
      outer loop
         vertex 3.416394e+02 1.224344e+03 1.441491e+03
         vertex 3.510790e+02 1.224595e+03 1.438200e+03
         vertex 3.412541e+02 1.225133e+03 1.440446e+03
      endloop
   endfacet
   facet normal 1.710525e-01 8.156929e-01 5.526175e-01
      outer loop
         vertex 3.510790e+02 1.224595e+03 1.438200e+03
         vertex 3.506937e+02 1.225383e+03 1.437155e+03
         vertex 3.412541e+02 1.225133e+03 1.440446e+03
      endloop
   endfacet
   facet normal -9.439602e-01 -2.501568e-02 3.291099e-01
      outer loop
         vertex 3.446764e+02 1.223700e+03 1.450153e+03
         vertex 3.468247e+02 1.216419e+03 1.455761e+03
         vertex 3.450609e+02 1.224326e+03 1.451303e+03
      endloop
   endfacet
   facet normal -2.086962e-01 8.177333e-01 -5.364309e-01
      outer loop
         vertex 3.548495e+02 1.225361e+03 1.449073e+03
         vertex 3.545005e+02 1.224576e+03 1.448012e+03
         vertex 3.450609e+02 1.224326e+03 1.451303e+03
      endloop
   endfacet
   facet normal -1.719340e-01 8.884198e-01 -4.256159e-01
      outer loop
         vertex 3.545005e+02 1.224576e+03 1.448012e+03
         vertex 3.446764e+02 1.223700e+03 1.450153e+03
         vertex 3.450609e+02 1.224326e+03 1.451303e+03
      endloop
   endfacet
   facet normal -9.439602e-01 -2.501568e-02 3.291099e-01
      outer loop
         vertex 3.404993e+02 1.216016e+03 1.437588e+03
         vertex 3.420529e+02 1.223715e+03 1.442629e+03
         vertex 3.416394e+02 1.224344e+03 1.441491e+03
      endloop
   endfacet
   facet normal 1.310228e-01 8.867920e-01 4.432076e-01
      outer loop
         vertex 3.420529e+02 1.223715e+03 1.442629e+03
         vertex 3.514925e+02 1.223965e+03 1.439338e+03
         vertex 3.416394e+02 1.224344e+03 1.441491e+03
      endloop
   endfacet
   facet normal 1.310228e-01 8.867920e-01 4.432076e-01
      outer loop
         vertex 3.514925e+02 1.223965e+03 1.439338e+03
         vertex 3.510790e+02 1.224595e+03 1.438200e+03
         vertex 3.416394e+02 1.224344e+03 1.441491e+03
      endloop
   endfacet
   facet normal -9.439602e-01 -2.501568e-02 3.291099e-01
      outer loop
         vertex 3.442635e+02 1.223246e+03 1.448934e+03
         vertex 3.468247e+02 1.216419e+03 1.455761e+03
         vertex 3.446764e+02 1.223700e+03 1.450153e+03
      endloop
   endfacet
   facet normal -1.719340e-01 8.884198e-01 -4.256159e-01
      outer loop
         vertex 3.545005e+02 1.224576e+03 1.448012e+03
         vertex 3.541160e+02 1.223951e+03 1.446862e+03
         vertex 3.446764e+02 1.223700e+03 1.450153e+03
      endloop
   endfacet
   facet normal -1.319690e-01 9.425569e-01 -3.068725e-01
      outer loop
         vertex 3.541160e+02 1.223951e+03 1.446862e+03
         vertex 3.442635e+02 1.223246e+03 1.448934e+03
         vertex 3.446764e+02 1.223700e+03 1.450153e+03
      endloop
   endfacet
   facet normal -9.439602e-01 -2.501568e-02 3.291099e-01
      outer loop
         vertex 3.404993e+02 1.216016e+03 1.437588e+03
         vertex 3.424868e+02 1.223255e+03 1.443839e+03
         vertex 3.420529e+02 1.223715e+03 1.442629e+03
      endloop
   endfacet
   facet normal 8.855234e-02 9.413720e-01 3.255415e-01
      outer loop
         vertex 3.424868e+02 1.223255e+03 1.443839e+03
         vertex 3.519264e+02 1.223506e+03 1.440548e+03
         vertex 3.420529e+02 1.223715e+03 1.442629e+03
      endloop
   endfacet
   facet normal 8.855234e-02 9.413720e-01 3.255415e-01
      outer loop
         vertex 3.519264e+02 1.223506e+03 1.440548e+03
         vertex 3.514925e+02 1.223965e+03 1.439338e+03
         vertex 3.420529e+02 1.223715e+03 1.442629e+03
      endloop
   endfacet
   facet normal -9.439602e-01 -2.501568e-02 3.291099e-01
      outer loop
         vertex 3.438299e+02 1.222971e+03 1.447669e+03
         vertex 3.468247e+02 1.216419e+03 1.455761e+03
         vertex 3.442635e+02 1.223246e+03 1.448934e+03
      endloop
   endfacet
   facet normal -1.319690e-01 9.425569e-01 -3.068725e-01
      outer loop
         vertex 3.541160e+02 1.223951e+03 1.446862e+03
         vertex 3.537031e+02 1.223496e+03 1.445643e+03
         vertex 3.442635e+02 1.223246e+03 1.448934e+03
      endloop
   endfacet
   facet normal -8.954530e-02 9.791362e-01 -1.824115e-01
      outer loop
         vertex 3.537031e+02 1.223496e+03 1.445643e+03
         vertex 3.438299e+02 1.222971e+03 1.447669e+03
         vertex 3.442635e+02 1.223246e+03 1.448934e+03
      endloop
   endfacet
   facet normal -9.439602e-01 -2.501568e-02 3.291099e-01
      outer loop
         vertex 3.404993e+02 1.216016e+03 1.437588e+03
         vertex 3.429332e+02 1.222975e+03 1.445098e+03
         vertex 3.424868e+02 1.223255e+03 1.443839e+03
      endloop
   endfacet
   facet normal 4.443190e-02 9.784163e-01 2.018101e-01
      outer loop
         vertex 3.429332e+02 1.222975e+03 1.445098e+03
         vertex 3.523728e+02 1.223226e+03 1.441807e+03
         vertex 3.424868e+02 1.223255e+03 1.443839e+03
      endloop
   endfacet
   facet normal 4.443190e-02 9.784163e-01 2.018101e-01
      outer loop
         vertex 3.523728e+02 1.223226e+03 1.441807e+03
         vertex 3.519264e+02 1.223506e+03 1.440548e+03
         vertex 3.424868e+02 1.223255e+03 1.443839e+03
      endloop
   endfacet
   facet normal -9.439602e-01 -2.501568e-02 3.291099e-01
      outer loop
         vertex 3.433837e+02 1.222880e+03 1.446383e+03
         vertex 3.404993e+02 1.216016e+03 1.437588e+03
         vertex 3.438299e+02 1.222971e+03 1.447669e+03
      endloop
   endfacet
   facet normal -9.439602e-01 -2.501568e-02 3.291099e-01
      outer loop
         vertex 3.404993e+02 1.216016e+03 1.437588e+03
         vertex 3.468247e+02 1.216419e+03 1.455761e+03
         vertex 3.438299e+02 1.222971e+03 1.447669e+03
      endloop
   endfacet
   facet normal -8.954530e-02 9.791362e-01 -1.824115e-01
      outer loop
         vertex 3.537031e+02 1.223496e+03 1.445643e+03
         vertex 3.532695e+02 1.223221e+03 1.444378e+03
         vertex 3.438299e+02 1.222971e+03 1.447669e+03
      endloop
   endfacet
   facet normal -4.545399e-02 9.974757e-01 -5.455387e-02
      outer loop
         vertex 3.532695e+02 1.223221e+03 1.444378e+03
         vertex 3.433837e+02 1.222880e+03 1.446383e+03
         vertex 3.438299e+02 1.222971e+03 1.447669e+03
      endloop
   endfacet
   facet normal -9.439602e-01 -2.501568e-02 3.291099e-01
      outer loop
         vertex 3.404993e+02 1.216016e+03 1.437588e+03
         vertex 3.433837e+02 1.222880e+03 1.446383e+03
         vertex 3.429332e+02 1.222975e+03 1.445098e+03
      endloop
   endfacet
   facet normal -5.157321e-04 9.972343e-01 7.432065e-02
      outer loop
         vertex 3.433837e+02 1.222880e+03 1.446383e+03
         vertex 3.528233e+02 1.223130e+03 1.443092e+03
         vertex 3.429332e+02 1.222975e+03 1.445098e+03
      endloop
   endfacet
   facet normal -5.157321e-04 9.972343e-01 7.432065e-02
      outer loop
         vertex 3.528233e+02 1.223130e+03 1.443092e+03
         vertex 3.523728e+02 1.223226e+03 1.441807e+03
         vertex 3.429332e+02 1.222975e+03 1.445098e+03
      endloop
   endfacet
   facet normal -4.545399e-02 9.974757e-01 -5.455387e-02
      outer loop
         vertex 3.532695e+02 1.223221e+03 1.444378e+03
         vertex 3.528233e+02 1.223130e+03 1.443092e+03
         vertex 3.433837e+02 1.222880e+03 1.446383e+03
      endloop
   endfacet
   facet normal 2.998747e-01 -4.815801e-01 8.235022e-01
      outer loop
         vertex 3.562643e+02 1.216669e+03 1.452470e+03
         vertex 3.589183e+02 1.233530e+03 1.461364e+03
         vertex 3.468247e+02 1.216419e+03 1.455761e+03
      endloop
   endfacet
   facet normal 3.051910e-02 -9.994673e-01 1.156593e-02
      outer loop
         vertex 3.404993e+02 1.216016e+03 1.437588e+03
         vertex 3.562643e+02 1.216669e+03 1.452470e+03
         vertex 3.468247e+02 1.216419e+03 1.455761e+03
      endloop
   endfacet
   facet normal 3.051910e-02 -9.994673e-01 1.156593e-02
      outer loop
         vertex 3.499389e+02 1.216266e+03 1.434297e+03
         vertex 3.562643e+02 1.216669e+03 1.452470e+03
         vertex 3.404993e+02 1.216016e+03 1.437588e+03
      endloop
   endfacet
   facet normal 9.439602e-01 2.501568e-02 -3.291099e-01
      outer loop
         vertex 3.548420e+02 1.239937e+03 1.450159e+03
         vertex 3.544921e+02 1.240870e+03 1.449226e+03
         vertex 3.552469e+02 1.249988e+03 1.452085e+03
      endloop
   endfacet
   facet normal 9.439602e-01 2.501568e-02 -3.291099e-01
      outer loop
         vertex 3.544921e+02 1.240870e+03 1.449226e+03
         vertex 3.541068e+02 1.241659e+03 1.448181e+03
         vertex 3.552469e+02 1.249988e+03 1.452085e+03
      endloop
   endfacet
   facet normal 9.439602e-01 2.501568e-02 -3.291099e-01
      outer loop
         vertex 3.541068e+02 1.241659e+03 1.448181e+03
         vertex 3.536933e+02 1.242289e+03 1.447043e+03
         vertex 3.552469e+02 1.249988e+03 1.452085e+03
      endloop
   endfacet
   facet normal 9.439602e-01 2.501568e-02 -3.291099e-01
      outer loop
         vertex 3.536933e+02 1.242289e+03 1.447043e+03
         vertex 3.532594e+02 1.242748e+03 1.445834e+03
         vertex 3.552469e+02 1.249988e+03 1.452085e+03
      endloop
   endfacet
   facet normal 9.439602e-01 2.501568e-02 -3.291099e-01
      outer loop
         vertex 3.589183e+02 1.233530e+03 1.461364e+03
         vertex 3.554103e+02 1.237710e+03 1.451620e+03
         vertex 3.552469e+02 1.249988e+03 1.452085e+03
      endloop
   endfacet
   facet normal 9.439602e-01 2.501568e-02 -3.291099e-01
      outer loop
         vertex 3.554103e+02 1.237710e+03 1.451620e+03
         vertex 3.551500e+02 1.238877e+03 1.450962e+03
         vertex 3.552469e+02 1.249988e+03 1.452085e+03
      endloop
   endfacet
   facet normal 9.439602e-01 2.501568e-02 -3.291099e-01
      outer loop
         vertex 3.551500e+02 1.238877e+03 1.450962e+03
         vertex 3.548420e+02 1.239937e+03 1.450159e+03
         vertex 3.552469e+02 1.249988e+03 1.452085e+03
      endloop
   endfacet
   facet normal 9.439602e-01 2.501568e-02 -3.291099e-01
      outer loop
         vertex 3.532594e+02 1.242748e+03 1.445834e+03
         vertex 3.528130e+02 1.243028e+03 1.444574e+03
         vertex 3.552469e+02 1.249988e+03 1.452085e+03
      endloop
   endfacet
   facet normal 9.439602e-01 2.501568e-02 -3.291099e-01
      outer loop
         vertex 3.528130e+02 1.243028e+03 1.444574e+03
         vertex 3.523625e+02 1.243124e+03 1.443290e+03
         vertex 3.552469e+02 1.249988e+03 1.452085e+03
      endloop
   endfacet
   facet normal 9.439602e-01 2.501568e-02 -3.291099e-01
      outer loop
         vertex 3.523625e+02 1.243124e+03 1.443290e+03
         vertex 3.489215e+02 1.249585e+03 1.433911e+03
         vertex 3.552469e+02 1.249988e+03 1.452085e+03
      endloop
   endfacet
   facet normal 9.439602e-01 2.501568e-02 -3.291099e-01
      outer loop
         vertex 3.514827e+02 1.242758e+03 1.440738e+03
         vertex 3.510698e+02 1.242303e+03 1.439520e+03
         vertex 3.489215e+02 1.249585e+03 1.433911e+03
      endloop
   endfacet
   facet normal 9.439602e-01 2.501568e-02 -3.291099e-01
      outer loop
         vertex 3.510698e+02 1.242303e+03 1.439520e+03
         vertex 3.506853e+02 1.241678e+03 1.438369e+03
         vertex 3.489215e+02 1.249585e+03 1.433911e+03
      endloop
   endfacet
   facet normal 9.439602e-01 2.501568e-02 -3.291099e-01
      outer loop
         vertex 3.506853e+02 1.241678e+03 1.438369e+03
         vertex 3.503363e+02 1.240893e+03 1.437308e+03
         vertex 3.489215e+02 1.249585e+03 1.433911e+03
      endloop
   endfacet
   facet normal 9.439602e-01 2.501568e-02 -3.291099e-01
      outer loop
         vertex 3.523625e+02 1.243124e+03 1.443290e+03
         vertex 3.519163e+02 1.243033e+03 1.442003e+03
         vertex 3.489215e+02 1.249585e+03 1.433911e+03
      endloop
   endfacet
   facet normal 9.439602e-01 2.501568e-02 -3.291099e-01
      outer loop
         vertex 3.519163e+02 1.243033e+03 1.442003e+03
         vertex 3.514827e+02 1.242758e+03 1.440738e+03
         vertex 3.489215e+02 1.249585e+03 1.433911e+03
      endloop
   endfacet
   facet normal 9.439602e-01 2.501568e-02 -3.291099e-01
      outer loop
         vertex 3.503363e+02 1.240893e+03 1.437308e+03
         vertex 3.500294e+02 1.239963e+03 1.436357e+03
         vertex 3.489215e+02 1.249585e+03 1.433911e+03
      endloop
   endfacet
   facet normal 9.439602e-01 2.501568e-02 -3.291099e-01
      outer loop
         vertex 3.500294e+02 1.239963e+03 1.436357e+03
         vertex 3.497701e+02 1.238906e+03 1.435534e+03
         vertex 3.489215e+02 1.249585e+03 1.433911e+03
      endloop
   endfacet
   facet normal 9.439602e-01 2.501568e-02 -3.291099e-01
      outer loop
         vertex 3.497701e+02 1.238906e+03 1.435534e+03
         vertex 3.462675e+02 1.232723e+03 1.425017e+03
         vertex 3.489215e+02 1.249585e+03 1.433911e+03
      endloop
   endfacet
   facet normal 9.439602e-01 2.501568e-02 -3.291099e-01
      outer loop
         vertex 3.495635e+02 1.237742e+03 1.434852e+03
         vertex 3.462675e+02 1.232723e+03 1.425017e+03
         vertex 3.497701e+02 1.238906e+03 1.435534e+03
      endloop
   endfacet
   facet normal 9.439602e-01 2.501568e-02 -3.291099e-01
      outer loop
         vertex 3.589183e+02 1.233530e+03 1.461364e+03
         vertex 3.556182e+02 1.236458e+03 1.452121e+03
         vertex 3.554103e+02 1.237710e+03 1.451620e+03
      endloop
   endfacet
   facet normal 9.439602e-01 2.501568e-02 -3.291099e-01
      outer loop
         vertex 3.494133e+02 1.236491e+03 1.434327e+03
         vertex 3.462675e+02 1.232723e+03 1.425017e+03
         vertex 3.495635e+02 1.237742e+03 1.434852e+03
      endloop
   endfacet
   facet normal 9.439602e-01 2.501568e-02 -3.291099e-01
      outer loop
         vertex 3.589183e+02 1.233530e+03 1.461364e+03
         vertex 3.557697e+02 1.235144e+03 1.452456e+03
         vertex 3.556182e+02 1.236458e+03 1.452121e+03
      endloop
   endfacet
   facet normal 9.439602e-01 2.501568e-02 -3.291099e-01
      outer loop
         vertex 3.493224e+02 1.235178e+03 1.433966e+03
         vertex 3.462675e+02 1.232723e+03 1.425017e+03
         vertex 3.494133e+02 1.236491e+03 1.434327e+03
      endloop
   endfacet
   facet normal 9.439602e-01 2.501568e-02 -3.291099e-01
      outer loop
         vertex 3.589183e+02 1.233530e+03 1.461364e+03
         vertex 3.558621e+02 1.233791e+03 1.452618e+03
         vertex 3.557697e+02 1.235144e+03 1.452456e+03
      endloop
   endfacet
   facet normal 9.439602e-01 2.501568e-02 -3.291099e-01
      outer loop
         vertex 3.492923e+02 1.233827e+03 1.433777e+03
         vertex 3.462675e+02 1.232723e+03 1.425017e+03
         vertex 3.493224e+02 1.235178e+03 1.433966e+03
      endloop
   endfacet
   facet normal 9.439602e-01 2.501568e-02 -3.291099e-01
      outer loop
         vertex 3.589183e+02 1.233530e+03 1.461364e+03
         vertex 3.558935e+02 1.232427e+03 1.452604e+03
         vertex 3.558621e+02 1.233791e+03 1.452618e+03
      endloop
   endfacet
   facet normal 9.439602e-01 2.501568e-02 -3.291099e-01
      outer loop
         vertex 3.493238e+02 1.232462e+03 1.433763e+03
         vertex 3.462675e+02 1.232723e+03 1.425017e+03
         vertex 3.492923e+02 1.233827e+03 1.433777e+03
      endloop
   endfacet
   facet normal 9.439602e-01 2.501568e-02 -3.291099e-01
      outer loop
         vertex 3.557725e+02 1.229763e+03 1.452055e+03
         vertex 3.558635e+02 1.231076e+03 1.452415e+03
         vertex 3.589183e+02 1.233530e+03 1.461364e+03
      endloop
   endfacet
   facet normal 9.439602e-01 2.501568e-02 -3.291099e-01
      outer loop
         vertex 3.558635e+02 1.231076e+03 1.452415e+03
         vertex 3.558935e+02 1.232427e+03 1.452604e+03
         vertex 3.589183e+02 1.233530e+03 1.461364e+03
      endloop
   endfacet
   facet normal 9.439602e-01 2.501568e-02 -3.291099e-01
      outer loop
         vertex 3.562643e+02 1.216669e+03 1.452470e+03
         vertex 3.554157e+02 1.227347e+03 1.450848e+03
         vertex 3.589183e+02 1.233530e+03 1.461364e+03
      endloop
   endfacet
   facet normal 9.439602e-01 2.501568e-02 -3.291099e-01
      outer loop
         vertex 3.554157e+02 1.227347e+03 1.450848e+03
         vertex 3.556223e+02 1.228512e+03 1.451529e+03
         vertex 3.589183e+02 1.233530e+03 1.461364e+03
      endloop
   endfacet
   facet normal 9.439602e-01 2.501568e-02 -3.291099e-01
      outer loop
         vertex 3.556223e+02 1.228512e+03 1.451529e+03
         vertex 3.557725e+02 1.229763e+03 1.452055e+03
         vertex 3.589183e+02 1.233530e+03 1.461364e+03
      endloop
   endfacet
   facet normal 9.439602e-01 2.501568e-02 -3.291099e-01
      outer loop
         vertex 3.493238e+02 1.232462e+03 1.433763e+03
         vertex 3.494161e+02 1.231110e+03 1.433926e+03
         vertex 3.462675e+02 1.232723e+03 1.425017e+03
      endloop
   endfacet
   facet normal 9.439602e-01 2.501568e-02 -3.291099e-01
      outer loop
         vertex 3.494161e+02 1.231110e+03 1.433926e+03
         vertex 3.495676e+02 1.229796e+03 1.434260e+03
         vertex 3.462675e+02 1.232723e+03 1.425017e+03
      endloop
   endfacet
   facet normal 9.439602e-01 2.501568e-02 -3.291099e-01
      outer loop
         vertex 3.495676e+02 1.229796e+03 1.434260e+03
         vertex 3.497755e+02 1.228543e+03 1.434761e+03
         vertex 3.462675e+02 1.232723e+03 1.425017e+03
      endloop
   endfacet
   facet normal 9.439602e-01 2.501568e-02 -3.291099e-01
      outer loop
         vertex 3.497755e+02 1.228543e+03 1.434761e+03
         vertex 3.499389e+02 1.216266e+03 1.434297e+03
         vertex 3.462675e+02 1.232723e+03 1.425017e+03
      endloop
   endfacet
   facet normal 9.439602e-01 2.501568e-02 -3.291099e-01
      outer loop
         vertex 3.500359e+02 1.227376e+03 1.435419e+03
         vertex 3.499389e+02 1.216266e+03 1.434297e+03
         vertex 3.497755e+02 1.228543e+03 1.434761e+03
      endloop
   endfacet
   facet normal 9.439602e-01 2.501568e-02 -3.291099e-01
      outer loop
         vertex 3.562643e+02 1.216669e+03 1.452470e+03
         vertex 3.551565e+02 1.226291e+03 1.450024e+03
         vertex 3.554157e+02 1.227347e+03 1.450848e+03
      endloop
   endfacet
   facet normal 9.439602e-01 2.501568e-02 -3.291099e-01
      outer loop
         vertex 3.503439e+02 1.226316e+03 1.436222e+03
         vertex 3.499389e+02 1.216266e+03 1.434297e+03
         vertex 3.500359e+02 1.227376e+03 1.435419e+03
      endloop
   endfacet
   facet normal 9.439602e-01 2.501568e-02 -3.291099e-01
      outer loop
         vertex 3.562643e+02 1.216669e+03 1.452470e+03
         vertex 3.548495e+02 1.225361e+03 1.449073e+03
         vertex 3.551565e+02 1.226291e+03 1.450024e+03
      endloop
   endfacet
   facet normal 9.439602e-01 2.501568e-02 -3.291099e-01
      outer loop
         vertex 3.506937e+02 1.225383e+03 1.437155e+03
         vertex 3.499389e+02 1.216266e+03 1.434297e+03
         vertex 3.503439e+02 1.226316e+03 1.436222e+03
      endloop
   endfacet
   facet normal 9.439602e-01 2.501568e-02 -3.291099e-01
      outer loop
         vertex 3.562643e+02 1.216669e+03 1.452470e+03
         vertex 3.545005e+02 1.224576e+03 1.448012e+03
         vertex 3.548495e+02 1.225361e+03 1.449073e+03
      endloop
   endfacet
   facet normal 9.439602e-01 2.501568e-02 -3.291099e-01
      outer loop
         vertex 3.510790e+02 1.224595e+03 1.438200e+03
         vertex 3.499389e+02 1.216266e+03 1.434297e+03
         vertex 3.506937e+02 1.225383e+03 1.437155e+03
      endloop
   endfacet
   facet normal 9.439602e-01 2.501568e-02 -3.291099e-01
      outer loop
         vertex 3.562643e+02 1.216669e+03 1.452470e+03
         vertex 3.541160e+02 1.223951e+03 1.446862e+03
         vertex 3.545005e+02 1.224576e+03 1.448012e+03
      endloop
   endfacet
   facet normal 9.439602e-01 2.501568e-02 -3.291099e-01
      outer loop
         vertex 3.514925e+02 1.223965e+03 1.439338e+03
         vertex 3.499389e+02 1.216266e+03 1.434297e+03
         vertex 3.510790e+02 1.224595e+03 1.438200e+03
      endloop
   endfacet
   facet normal 9.439602e-01 2.501568e-02 -3.291099e-01
      outer loop
         vertex 3.562643e+02 1.216669e+03 1.452470e+03
         vertex 3.537031e+02 1.223496e+03 1.445643e+03
         vertex 3.541160e+02 1.223951e+03 1.446862e+03
      endloop
   endfacet
   facet normal 9.439602e-01 2.501568e-02 -3.291099e-01
      outer loop
         vertex 3.519264e+02 1.223506e+03 1.440548e+03
         vertex 3.499389e+02 1.216266e+03 1.434297e+03
         vertex 3.514925e+02 1.223965e+03 1.439338e+03
      endloop
   endfacet
   facet normal 9.439602e-01 2.501568e-02 -3.291099e-01
      outer loop
         vertex 3.562643e+02 1.216669e+03 1.452470e+03
         vertex 3.532695e+02 1.223221e+03 1.444378e+03
         vertex 3.537031e+02 1.223496e+03 1.445643e+03
      endloop
   endfacet
   facet normal 9.439602e-01 2.501568e-02 -3.291099e-01
      outer loop
         vertex 3.523728e+02 1.223226e+03 1.441807e+03
         vertex 3.499389e+02 1.216266e+03 1.434297e+03
         vertex 3.519264e+02 1.223506e+03 1.440548e+03
      endloop
   endfacet
   facet normal 9.439602e-01 2.501568e-02 -3.291099e-01
      outer loop
         vertex 3.562643e+02 1.216669e+03 1.452470e+03
         vertex 3.528233e+02 1.223130e+03 1.443092e+03
         vertex 3.532695e+02 1.223221e+03 1.444378e+03
      endloop
   endfacet
   facet normal 9.439602e-01 2.501568e-02 -3.291099e-01
      outer loop
         vertex 3.528233e+02 1.223130e+03 1.443092e+03
         vertex 3.499389e+02 1.216266e+03 1.434297e+03
         vertex 3.523728e+02 1.223226e+03 1.441807e+03
      endloop
   endfacet
   facet normal 9.439602e-01 2.501568e-02 -3.291099e-01
      outer loop
         vertex 3.562643e+02 1.216669e+03 1.452470e+03
         vertex 3.499389e+02 1.216266e+03 1.434297e+03
         vertex 3.528233e+02 1.223130e+03 1.443092e+03
      endloop
   endfacet
endsolid