solid assemblageComplet - assemblagePlaque-1 ecrou-7-1
   facet normal 9.825852e-01 3.352597e-02 -1.827631e-01
      outer loop
         vertex 2.320327e+03 1.366168e+03 2.380803e+02
         vertex 2.322436e+03 1.373870e+03 2.508290e+02
         vertex 2.322735e+03 1.366884e+03 2.511563e+02
      endloop
   endfacet
   facet normal 9.825852e-01 3.352597e-02 -1.827631e-01
      outer loop
         vertex 2.320028e+03 1.373154e+03 2.377530e+02
         vertex 2.322436e+03 1.373870e+03 2.508290e+02
         vertex 2.320327e+03 1.366168e+03 2.380803e+02
      endloop
   endfacet
   facet normal -3.346904e-01 2.978669e-02 9.418572e-01
      outer loop
         vertex 2.312310e+03 1.373841e+03 2.594744e+02
         vertex 2.299775e+03 1.373097e+03 2.550439e+02
         vertex 2.312609e+03 1.366855e+03 2.598017e+02
      endloop
   endfacet
   facet normal -3.346904e-01 2.978669e-02 9.418572e-01
      outer loop
         vertex 2.299775e+03 1.373097e+03 2.550439e+02
         vertex 2.300075e+03 1.366111e+03 2.553712e+02
         vertex 2.312609e+03 1.366855e+03 2.598017e+02
      endloop
   endfacet
   facet normal 6.478948e-01 6.331266e-02 7.590941e-01
      outer loop
         vertex 2.322735e+03 1.366884e+03 2.511563e+02
         vertex 2.312310e+03 1.373841e+03 2.594744e+02
         vertex 2.312609e+03 1.366855e+03 2.598017e+02
      endloop
   endfacet
   facet normal 4.274769e-02 -9.979914e-01 4.675242e-02
      outer loop
         vertex 2.312111e+03 1.366549e+03 2.537076e+02
         vertex 2.313026e+03 1.366573e+03 2.533888e+02
         vertex 2.312609e+03 1.366855e+03 2.598017e+02
      endloop
   endfacet
   facet normal 4.274769e-02 -9.979914e-01 4.675242e-02
      outer loop
         vertex 2.309232e+03 1.366434e+03 2.539047e+02
         vertex 2.310198e+03 1.366479e+03 2.539678e+02
         vertex 2.312609e+03 1.366855e+03 2.598017e+02
      endloop
   endfacet
   facet normal 4.274769e-02 -9.979914e-01 4.675242e-02
      outer loop
         vertex 2.310198e+03 1.366479e+03 2.539678e+02
         vertex 2.311163e+03 1.366517e+03 2.539017e+02
         vertex 2.312609e+03 1.366855e+03 2.598017e+02
      endloop
   endfacet
   facet normal 4.274769e-02 -9.979914e-01 4.675242e-02
      outer loop
         vertex 2.311163e+03 1.366517e+03 2.539017e+02
         vertex 2.312111e+03 1.366549e+03 2.537076e+02
         vertex 2.312609e+03 1.366855e+03 2.598017e+02
      endloop
   endfacet
   facet normal 4.274769e-02 -9.979914e-01 4.675242e-02
      outer loop
         vertex 2.313026e+03 1.366573e+03 2.533888e+02
         vertex 2.313889e+03 1.366589e+03 2.529512e+02
         vertex 2.312609e+03 1.366855e+03 2.598017e+02
      endloop
   endfacet
   facet normal 4.274769e-02 -9.979914e-01 4.675242e-02
      outer loop
         vertex 2.313889e+03 1.366589e+03 2.529512e+02
         vertex 2.314687e+03 1.366598e+03 2.524024e+02
         vertex 2.312609e+03 1.366855e+03 2.598017e+02
      endloop
   endfacet
   facet normal 4.274769e-02 -9.979914e-01 4.675242e-02
      outer loop
         vertex 2.314687e+03 1.366598e+03 2.524024e+02
         vertex 2.322735e+03 1.366884e+03 2.511563e+02
         vertex 2.312609e+03 1.366855e+03 2.598017e+02
      endloop
   endfacet
   facet normal 4.274769e-02 -9.979914e-01 4.675242e-02
      outer loop
         vertex 2.300075e+03 1.366111e+03 2.553712e+02
         vertex 2.307370e+03 1.366331e+03 2.533975e+02
         vertex 2.312609e+03 1.366855e+03 2.598017e+02
      endloop
   endfacet
   facet normal 4.274769e-02 -9.979914e-01 4.675242e-02
      outer loop
         vertex 2.307370e+03 1.366331e+03 2.533975e+02
         vertex 2.308284e+03 1.366385e+03 2.537134e+02
         vertex 2.312609e+03 1.366855e+03 2.598017e+02
      endloop
   endfacet
   facet normal 4.274769e-02 -9.979914e-01 4.675242e-02
      outer loop
         vertex 2.308284e+03 1.366385e+03 2.537134e+02
         vertex 2.309232e+03 1.366434e+03 2.539047e+02
         vertex 2.312609e+03 1.366855e+03 2.598017e+02
      endloop
   endfacet
   facet normal 6.478948e-01 6.331266e-02 7.590941e-01
      outer loop
         vertex 2.322436e+03 1.373870e+03 2.508290e+02
         vertex 2.312310e+03 1.373841e+03 2.594744e+02
         vertex 2.322735e+03 1.366884e+03 2.511563e+02
      endloop
   endfacet
   facet normal 4.274769e-02 -9.979914e-01 4.675242e-02
      outer loop
         vertex 2.316030e+03 1.366590e+03 2.510127e+02
         vertex 2.316551e+03 1.366574e+03 2.501964e+02
         vertex 2.322735e+03 1.366884e+03 2.511563e+02
      endloop
   endfacet
   facet normal 4.274769e-02 -9.979914e-01 4.675242e-02
      outer loop
         vertex 2.314687e+03 1.366598e+03 2.524024e+02
         vertex 2.315405e+03 1.366598e+03 2.517524e+02
         vertex 2.322735e+03 1.366884e+03 2.511563e+02
      endloop
   endfacet
   facet normal 4.274769e-02 -9.979914e-01 4.675242e-02
      outer loop
         vertex 2.315405e+03 1.366598e+03 2.517524e+02
         vertex 2.316030e+03 1.366590e+03 2.510127e+02
         vertex 2.322735e+03 1.366884e+03 2.511563e+02
      endloop
   endfacet
   facet normal 4.274769e-02 -9.979914e-01 4.675242e-02
      outer loop
         vertex 2.316551e+03 1.366574e+03 2.501964e+02
         vertex 2.316959e+03 1.366551e+03 2.493183e+02
         vertex 2.322735e+03 1.366884e+03 2.511563e+02
      endloop
   endfacet
   facet normal 4.274769e-02 -9.979914e-01 4.675242e-02
      outer loop
         vertex 2.316959e+03 1.366551e+03 2.493183e+02
         vertex 2.317246e+03 1.366520e+03 2.483938e+02
         vertex 2.322735e+03 1.366884e+03 2.511563e+02
      endloop
   endfacet
   facet normal 4.274769e-02 -9.979914e-01 4.675242e-02
      outer loop
         vertex 2.317246e+03 1.366520e+03 2.483938e+02
         vertex 2.317408e+03 1.366482e+03 2.474396e+02
         vertex 2.322735e+03 1.366884e+03 2.511563e+02
      endloop
   endfacet
   facet normal 4.274769e-02 -9.979914e-01 4.675242e-02
      outer loop
         vertex 2.317408e+03 1.366482e+03 2.474396e+02
         vertex 2.317440e+03 1.366438e+03 2.464727e+02
         vertex 2.322735e+03 1.366884e+03 2.511563e+02
      endloop
   endfacet
   facet normal 4.274769e-02 -9.979914e-01 4.675242e-02
      outer loop
         vertex 2.317440e+03 1.366438e+03 2.464727e+02
         vertex 2.317344e+03 1.366389e+03 2.455102e+02
         vertex 2.322735e+03 1.366884e+03 2.511563e+02
      endloop
   endfacet
   facet normal 4.274769e-02 -9.979914e-01 4.675242e-02
      outer loop
         vertex 2.317344e+03 1.366389e+03 2.455102e+02
         vertex 2.320327e+03 1.366168e+03 2.380803e+02
         vertex 2.322735e+03 1.366884e+03 2.511563e+02
      endloop
   endfacet
   facet normal -3.272793e-01 -5.820111e-02 -9.431335e-01
      outer loop
         vertex 2.312111e+03 1.366549e+03 2.537076e+02
         vertex 2.311812e+03 1.373535e+03 2.533803e+02
         vertex 2.313026e+03 1.366573e+03 2.533888e+02
      endloop
   endfacet
   facet normal -3.272793e-01 -5.820111e-02 -9.431335e-01
      outer loop
         vertex 2.311812e+03 1.373535e+03 2.533803e+02
         vertex 2.312726e+03 1.373559e+03 2.530616e+02
         vertex 2.313026e+03 1.366573e+03 2.533888e+02
      endloop
   endfacet
   facet normal -4.501766e-01 -6.101607e-02 -8.908524e-01
      outer loop
         vertex 2.312726e+03 1.373559e+03 2.530616e+02
         vertex 2.313889e+03 1.366589e+03 2.529512e+02
         vertex 2.313026e+03 1.366573e+03 2.533888e+02
      endloop
   endfacet
   facet normal -1.985417e-01 -5.434755e-02 -9.785844e-01
      outer loop
         vertex 2.311163e+03 1.366517e+03 2.539017e+02
         vertex 2.310864e+03 1.373503e+03 2.535744e+02
         vertex 2.312111e+03 1.366549e+03 2.537076e+02
      endloop
   endfacet
   facet normal -1.985417e-01 -5.434755e-02 -9.785844e-01
      outer loop
         vertex 2.310864e+03 1.373503e+03 2.535744e+02
         vertex 2.311812e+03 1.373535e+03 2.533803e+02
         vertex 2.312111e+03 1.366549e+03 2.537076e+02
      endloop
   endfacet
   facet normal -4.501766e-01 -6.101607e-02 -8.908524e-01
      outer loop
         vertex 2.312726e+03 1.373559e+03 2.530616e+02
         vertex 2.313590e+03 1.373575e+03 2.526239e+02
         vertex 2.313889e+03 1.366589e+03 2.529512e+02
      endloop
   endfacet
   facet normal -5.650409e-01 -6.274221e-02 -8.226738e-01
      outer loop
         vertex 2.313590e+03 1.373575e+03 2.526239e+02
         vertex 2.314687e+03 1.366598e+03 2.524024e+02
         vertex 2.313889e+03 1.366589e+03 2.529512e+02
      endloop
   endfacet
   facet normal -6.626072e-02 -4.952414e-02 -9.965726e-01
      outer loop
         vertex 2.310198e+03 1.366479e+03 2.539678e+02
         vertex 2.309898e+03 1.373465e+03 2.536405e+02
         vertex 2.311163e+03 1.366517e+03 2.539017e+02
      endloop
   endfacet
   facet normal -6.626072e-02 -4.952414e-02 -9.965726e-01
      outer loop
         vertex 2.309898e+03 1.373465e+03 2.536405e+02
         vertex 2.310864e+03 1.373503e+03 2.535744e+02
         vertex 2.311163e+03 1.366517e+03 2.539017e+02
      endloop
   endfacet
   facet normal -5.650409e-01 -6.274221e-02 -8.226738e-01
      outer loop
         vertex 2.313590e+03 1.373575e+03 2.526239e+02
         vertex 2.314388e+03 1.373584e+03 2.520752e+02
         vertex 2.314687e+03 1.366598e+03 2.524024e+02
      endloop
   endfacet
   facet normal -6.698214e-01 -6.334870e-02 -7.398150e-01
      outer loop
         vertex 2.314388e+03 1.373584e+03 2.520752e+02
         vertex 2.315405e+03 1.366598e+03 2.517524e+02
         vertex 2.314687e+03 1.366598e+03 2.524024e+02
      endloop
   endfacet
   facet normal 6.720198e-02 -4.381701e-02 -9.967768e-01
      outer loop
         vertex 2.309232e+03 1.366434e+03 2.539047e+02
         vertex 2.308933e+03 1.373420e+03 2.535774e+02
         vertex 2.310198e+03 1.366479e+03 2.539678e+02
      endloop
   endfacet
   facet normal 6.720198e-02 -4.381701e-02 -9.967768e-01
      outer loop
         vertex 2.308933e+03 1.373420e+03 2.535774e+02
         vertex 2.309898e+03 1.373465e+03 2.536405e+02
         vertex 2.310198e+03 1.366479e+03 2.539678e+02
      endloop
   endfacet
   facet normal -6.698214e-01 -6.334870e-02 -7.398150e-01
      outer loop
         vertex 2.314388e+03 1.373584e+03 2.520752e+02
         vertex 2.315106e+03 1.373584e+03 2.514251e+02
         vertex 2.315405e+03 1.366598e+03 2.517524e+02
      endloop
   endfacet
   facet normal -7.626496e-01 -6.282473e-02 -6.437535e-01
      outer loop
         vertex 2.315106e+03 1.373584e+03 2.514251e+02
         vertex 2.316030e+03 1.366590e+03 2.510127e+02
         vertex 2.315405e+03 1.366598e+03 2.517524e+02
      endloop
   endfacet
   facet normal 1.994664e-01 -3.732791e-02 -9.791934e-01
      outer loop
         vertex 2.308284e+03 1.366385e+03 2.537134e+02
         vertex 2.307985e+03 1.373371e+03 2.533862e+02
         vertex 2.309232e+03 1.366434e+03 2.539047e+02
      endloop
   endfacet
   facet normal 1.994664e-01 -3.732791e-02 -9.791934e-01
      outer loop
         vertex 2.307985e+03 1.373371e+03 2.533862e+02
         vertex 2.308933e+03 1.373420e+03 2.535774e+02
         vertex 2.309232e+03 1.366434e+03 2.539047e+02
      endloop
   endfacet
   facet normal -7.626496e-01 -6.282473e-02 -6.437535e-01
      outer loop
         vertex 2.315106e+03 1.373584e+03 2.514251e+02
         vertex 2.315731e+03 1.373576e+03 2.506854e+02
         vertex 2.316030e+03 1.366590e+03 2.510127e+02
      endloop
   endfacet
   facet normal -8.418678e-01 -6.117966e-02 -5.362049e-01
      outer loop
         vertex 2.315731e+03 1.373576e+03 2.506854e+02
         vertex 2.316551e+03 1.366574e+03 2.501964e+02
         vertex 2.316030e+03 1.366590e+03 2.510127e+02
      endloop
   endfacet
   facet normal 3.281706e-01 -3.017274e-02 -9.441365e-01
      outer loop
         vertex 2.307370e+03 1.366331e+03 2.533975e+02
         vertex 2.307071e+03 1.373317e+03 2.530702e+02
         vertex 2.308284e+03 1.366385e+03 2.537134e+02
      endloop
   endfacet
   facet normal 3.281706e-01 -3.017274e-02 -9.441365e-01
      outer loop
         vertex 2.307071e+03 1.373317e+03 2.530702e+02
         vertex 2.307985e+03 1.373371e+03 2.533862e+02
         vertex 2.308284e+03 1.366385e+03 2.537134e+02
      endloop
   endfacet
   facet normal -8.418678e-01 -6.117966e-02 -5.362049e-01
      outer loop
         vertex 2.315731e+03 1.373576e+03 2.506854e+02
         vertex 2.316252e+03 1.373560e+03 2.498692e+02
         vertex 2.316551e+03 1.366574e+03 2.501964e+02
      endloop
   endfacet
   facet normal -9.060629e-01 -5.844284e-02 -4.190876e-01
      outer loop
         vertex 2.316252e+03 1.373560e+03 2.498692e+02
         vertex 2.316959e+03 1.366551e+03 2.493183e+02
         vertex 2.316551e+03 1.366574e+03 2.501964e+02
      endloop
   endfacet
   facet normal 4.274769e-02 -9.979914e-01 4.675242e-02
      outer loop
         vertex 2.300075e+03 1.366111e+03 2.553712e+02
         vertex 2.306507e+03 1.366274e+03 2.529625e+02
         vertex 2.307370e+03 1.366331e+03 2.533975e+02
      endloop
   endfacet
   facet normal 4.510186e-01 -2.247913e-02 -8.922314e-01
      outer loop
         vertex 2.306507e+03 1.366274e+03 2.529625e+02
         vertex 2.306207e+03 1.373260e+03 2.526352e+02
         vertex 2.307370e+03 1.366331e+03 2.533975e+02
      endloop
   endfacet
   facet normal 4.510186e-01 -2.247913e-02 -8.922314e-01
      outer loop
         vertex 2.306207e+03 1.373260e+03 2.526352e+02
         vertex 2.307071e+03 1.373317e+03 2.530702e+02
         vertex 2.307370e+03 1.366331e+03 2.533975e+02
      endloop
   endfacet
   facet normal -9.825852e-01 -3.352597e-02 1.827631e-01
      outer loop
         vertex 2.299775e+03 1.373097e+03 2.550439e+02
         vertex 2.297368e+03 1.372381e+03 2.419680e+02
         vertex 2.300075e+03 1.366111e+03 2.553712e+02
      endloop
   endfacet
   facet normal -9.825852e-01 -3.352597e-02 1.827631e-01
      outer loop
         vertex 2.297368e+03 1.372381e+03 2.419680e+02
         vertex 2.297667e+03 1.365395e+03 2.422952e+02
         vertex 2.300075e+03 1.366111e+03 2.553712e+02
      endloop
   endfacet
   facet normal 4.274769e-02 -9.979914e-01 4.675242e-02
      outer loop
         vertex 2.303440e+03 1.365973e+03 2.493389e+02
         vertex 2.303847e+03 1.366031e+03 2.502159e+02
         vertex 2.300075e+03 1.366111e+03 2.553712e+02
      endloop
   endfacet
   facet normal 4.274769e-02 -9.979914e-01 4.675242e-02
      outer loop
         vertex 2.303847e+03 1.366031e+03 2.502159e+02
         vertex 2.304368e+03 1.366091e+03 2.510305e+02
         vertex 2.300075e+03 1.366111e+03 2.553712e+02
      endloop
   endfacet
   facet normal 4.274769e-02 -9.979914e-01 4.675242e-02
      outer loop
         vertex 2.304368e+03 1.366091e+03 2.510305e+02
         vertex 2.304992e+03 1.366153e+03 2.517683e+02
         vertex 2.300075e+03 1.366111e+03 2.553712e+02
      endloop
   endfacet
   facet normal 4.274769e-02 -9.979914e-01 4.675242e-02
      outer loop
         vertex 2.304992e+03 1.366153e+03 2.517683e+02
         vertex 2.305709e+03 1.366214e+03 2.524162e+02
         vertex 2.300075e+03 1.366111e+03 2.553712e+02
      endloop
   endfacet
   facet normal 4.274769e-02 -9.979914e-01 4.675242e-02
      outer loop
         vertex 2.305709e+03 1.366214e+03 2.524162e+02
         vertex 2.306507e+03 1.366274e+03 2.529625e+02
         vertex 2.300075e+03 1.366111e+03 2.553712e+02
      endloop
   endfacet
   facet normal 4.274769e-02 -9.979914e-01 4.675242e-02
      outer loop
         vertex 2.297667e+03 1.365395e+03 2.422952e+02
         vertex 2.302994e+03 1.365865e+03 2.474617e+02
         vertex 2.300075e+03 1.366111e+03 2.553712e+02
      endloop
   endfacet
   facet normal 4.274769e-02 -9.979914e-01 4.675242e-02
      outer loop
         vertex 2.302994e+03 1.365865e+03 2.474617e+02
         vertex 2.303154e+03 1.365917e+03 2.484154e+02
         vertex 2.300075e+03 1.366111e+03 2.553712e+02
      endloop
   endfacet
   facet normal 4.274769e-02 -9.979914e-01 4.675242e-02
      outer loop
         vertex 2.303154e+03 1.365917e+03 2.484154e+02
         vertex 2.303440e+03 1.365973e+03 2.493389e+02
         vertex 2.300075e+03 1.366111e+03 2.553712e+02
      endloop
   endfacet
   facet normal -9.060629e-01 -5.844284e-02 -4.190876e-01
      outer loop
         vertex 2.316252e+03 1.373560e+03 2.498692e+02
         vertex 2.316660e+03 1.373537e+03 2.489910e+02
         vertex 2.316959e+03 1.366551e+03 2.493183e+02
      endloop
   endfacet
   facet normal -9.540896e-01 -5.466309e-02 -2.944910e-01
      outer loop
         vertex 2.316660e+03 1.373537e+03 2.489910e+02
         vertex 2.317246e+03 1.366520e+03 2.483938e+02
         vertex 2.316959e+03 1.366551e+03 2.493183e+02
      endloop
   endfacet
   facet normal 5.658188e-01 -1.438433e-02 -8.244041e-01
      outer loop
         vertex 2.305709e+03 1.366214e+03 2.524162e+02
         vertex 2.305410e+03 1.373200e+03 2.520889e+02
         vertex 2.306507e+03 1.366274e+03 2.529625e+02
      endloop
   endfacet
   facet normal 5.658188e-01 -1.438433e-02 -8.244041e-01
      outer loop
         vertex 2.305410e+03 1.373200e+03 2.520889e+02
         vertex 2.306207e+03 1.373260e+03 2.526352e+02
         vertex 2.306507e+03 1.366274e+03 2.529625e+02
      endloop
   endfacet
   facet normal -9.540896e-01 -5.466309e-02 -2.944910e-01
      outer loop
         vertex 2.316660e+03 1.373537e+03 2.489910e+02
         vertex 2.316947e+03 1.373506e+03 2.480666e+02
         vertex 2.317246e+03 1.366520e+03 2.483938e+02
      endloop
   endfacet
   facet normal -9.850903e-01 -4.990789e-02 -1.646399e-01
      outer loop
         vertex 2.316947e+03 1.373506e+03 2.480666e+02
         vertex 2.317408e+03 1.366482e+03 2.474396e+02
         vertex 2.317246e+03 1.366520e+03 2.483938e+02
      endloop
   endfacet
   facet normal 6.705213e-01 -6.032895e-03 -7.418657e-01
      outer loop
         vertex 2.304992e+03 1.366153e+03 2.517683e+02
         vertex 2.304693e+03 1.373139e+03 2.514411e+02
         vertex 2.305709e+03 1.366214e+03 2.524162e+02
      endloop
   endfacet
   facet normal 6.705213e-01 -6.032895e-03 -7.418657e-01
      outer loop
         vertex 2.304693e+03 1.373139e+03 2.514411e+02
         vertex 2.305410e+03 1.373200e+03 2.520889e+02
         vertex 2.305709e+03 1.366214e+03 2.524162e+02
      endloop
   endfacet
   facet normal -9.850903e-01 -4.990789e-02 -1.646399e-01
      outer loop
         vertex 2.316947e+03 1.373506e+03 2.480666e+02
         vertex 2.317108e+03 1.373468e+03 2.471123e+02
         vertex 2.317408e+03 1.366482e+03 2.474396e+02
      endloop
   endfacet
   facet normal -9.985121e-01 -4.426209e-02 -3.185065e-02
      outer loop
         vertex 2.317108e+03 1.373468e+03 2.471123e+02
         vertex 2.317440e+03 1.366438e+03 2.464727e+02
         vertex 2.317408e+03 1.366482e+03 2.474396e+02
      endloop
   endfacet
   facet normal 7.632586e-01 2.426209e-03 -6.460886e-01
      outer loop
         vertex 2.304368e+03 1.366091e+03 2.510305e+02
         vertex 2.304068e+03 1.373077e+03 2.507032e+02
         vertex 2.304992e+03 1.366153e+03 2.517683e+02
      endloop
   endfacet
   facet normal 7.632586e-01 2.426209e-03 -6.460886e-01
      outer loop
         vertex 2.304068e+03 1.373077e+03 2.507032e+02
         vertex 2.304693e+03 1.373139e+03 2.514411e+02
         vertex 2.304992e+03 1.366153e+03 2.517683e+02
      endloop
   endfacet
   facet normal -9.985121e-01 -4.426209e-02 -3.185065e-02
      outer loop
         vertex 2.317108e+03 1.373468e+03 2.471123e+02
         vertex 2.317141e+03 1.373424e+03 2.461454e+02
         vertex 2.317440e+03 1.366438e+03 2.464727e+02
      endloop
   endfacet
   facet normal -9.941154e-01 -3.782641e-02 1.015071e-01
      outer loop
         vertex 2.317141e+03 1.373424e+03 2.461454e+02
         vertex 2.317344e+03 1.366389e+03 2.455102e+02
         vertex 2.317440e+03 1.366438e+03 2.464727e+02
      endloop
   endfacet
   facet normal 8.423755e-01 1.084203e-02 -5.387819e-01
      outer loop
         vertex 2.303847e+03 1.366031e+03 2.502159e+02
         vertex 2.303548e+03 1.373017e+03 2.498886e+02
         vertex 2.304368e+03 1.366091e+03 2.510305e+02
      endloop
   endfacet
   facet normal 8.423755e-01 1.084203e-02 -5.387819e-01
      outer loop
         vertex 2.303548e+03 1.373017e+03 2.498886e+02
         vertex 2.304068e+03 1.373077e+03 2.507032e+02
         vertex 2.304368e+03 1.366091e+03 2.510305e+02
      endloop
   endfacet
   facet normal 4.274769e-02 -9.979914e-01 4.675242e-02
      outer loop
         vertex 2.317120e+03 1.366335e+03 2.445695e+02
         vertex 2.320327e+03 1.366168e+03 2.380803e+02
         vertex 2.317344e+03 1.366389e+03 2.455102e+02
      endloop
   endfacet
   facet normal -9.941154e-01 -3.782641e-02 1.015071e-01
      outer loop
         vertex 2.317141e+03 1.373424e+03 2.461454e+02
         vertex 2.317045e+03 1.373375e+03 2.451830e+02
         vertex 2.317344e+03 1.366389e+03 2.455102e+02
      endloop
   endfacet
   facet normal -9.719787e-01 -3.071572e-02 2.330536e-01
      outer loop
         vertex 2.317045e+03 1.373375e+03 2.451830e+02
         vertex 2.317120e+03 1.366335e+03 2.445695e+02
         vertex 2.317344e+03 1.366389e+03 2.455102e+02
      endloop
   endfacet
   facet normal 9.064603e-01 1.906438e-02 -4.218605e-01
      outer loop
         vertex 2.303440e+03 1.365973e+03 2.493389e+02
         vertex 2.303141e+03 1.372958e+03 2.490117e+02
         vertex 2.303847e+03 1.366031e+03 2.502159e+02
      endloop
   endfacet
   facet normal 9.064603e-01 1.906438e-02 -4.218605e-01
      outer loop
         vertex 2.303141e+03 1.372958e+03 2.490117e+02
         vertex 2.303548e+03 1.373017e+03 2.498886e+02
         vertex 2.303847e+03 1.366031e+03 2.502159e+02
      endloop
   endfacet
   facet normal 4.274769e-02 -9.979914e-01 4.675242e-02
      outer loop
         vertex 2.316773e+03 1.366278e+03 2.436673e+02
         vertex 2.320327e+03 1.366168e+03 2.380803e+02
         vertex 2.317120e+03 1.366335e+03 2.445695e+02
      endloop
   endfacet
   facet normal -9.719787e-01 -3.071572e-02 2.330536e-01
      outer loop
         vertex 2.317045e+03 1.373375e+03 2.451830e+02
         vertex 2.316821e+03 1.373321e+03 2.442422e+02
         vertex 2.317120e+03 1.366335e+03 2.445695e+02
      endloop
   endfacet
   facet normal -9.324971e-01 -2.305693e-02 3.604408e-01
      outer loop
         vertex 2.316821e+03 1.373321e+03 2.442422e+02
         vertex 2.316773e+03 1.366278e+03 2.436673e+02
         vertex 2.317120e+03 1.366335e+03 2.445695e+02
      endloop
   endfacet
   facet normal 9.543691e-01 2.694649e-02 -2.974115e-01
      outer loop
         vertex 2.303154e+03 1.365917e+03 2.484154e+02
         vertex 2.302855e+03 1.372903e+03 2.480881e+02
         vertex 2.303440e+03 1.365973e+03 2.493389e+02
      endloop
   endfacet
   facet normal 9.543691e-01 2.694649e-02 -2.974115e-01
      outer loop
         vertex 2.302855e+03 1.372903e+03 2.480881e+02
         vertex 2.303141e+03 1.372958e+03 2.490117e+02
         vertex 2.303440e+03 1.365973e+03 2.493389e+02
      endloop
   endfacet
   facet normal 4.274769e-02 -9.979914e-01 4.675242e-02
      outer loop
         vertex 2.316308e+03 1.366218e+03 2.428196e+02
         vertex 2.320327e+03 1.366168e+03 2.380803e+02
         vertex 2.316773e+03 1.366278e+03 2.436673e+02
      endloop
   endfacet
   facet normal -9.324971e-01 -2.305693e-02 3.604408e-01
      outer loop
         vertex 2.316821e+03 1.373321e+03 2.442422e+02
         vertex 2.316474e+03 1.373264e+03 2.433400e+02
         vertex 2.316773e+03 1.366278e+03 2.436673e+02
      endloop
   endfacet
   facet normal -8.763748e-01 -1.498665e-02 4.813964e-01
      outer loop
         vertex 2.316474e+03 1.373264e+03 2.433400e+02
         vertex 2.316308e+03 1.366218e+03 2.428196e+02
         vertex 2.316773e+03 1.366278e+03 2.436673e+02
      endloop
   endfacet
   facet normal 9.852473e-01 3.434778e-02 -1.676545e-01
      outer loop
         vertex 2.302994e+03 1.365865e+03 2.474617e+02
         vertex 2.302694e+03 1.372851e+03 2.471344e+02
         vertex 2.303154e+03 1.365917e+03 2.484154e+02
      endloop
   endfacet
   facet normal 9.852473e-01 3.434778e-02 -1.676545e-01
      outer loop
         vertex 2.302694e+03 1.372851e+03 2.471344e+02
         vertex 2.302855e+03 1.372903e+03 2.480881e+02
         vertex 2.303154e+03 1.365917e+03 2.484154e+02
      endloop
   endfacet
   facet normal 4.274769e-02 -9.979914e-01 4.675242e-02
      outer loop
         vertex 2.315735e+03 1.366157e+03 2.420416e+02
         vertex 2.320327e+03 1.366168e+03 2.380803e+02
         vertex 2.316308e+03 1.366218e+03 2.428196e+02
      endloop
   endfacet
   facet normal -8.763748e-01 -1.498665e-02 4.813964e-01
      outer loop
         vertex 2.316474e+03 1.373264e+03 2.433400e+02
         vertex 2.316009e+03 1.373204e+03 2.424923e+02
         vertex 2.316308e+03 1.366218e+03 2.428196e+02
      endloop
   endfacet
   facet normal -8.046139e-01 -6.648970e-03 5.937612e-01
      outer loop
         vertex 2.316009e+03 1.373204e+03 2.424923e+02
         vertex 2.315735e+03 1.366157e+03 2.420416e+02
         vertex 2.316308e+03 1.366218e+03 2.428196e+02
      endloop
   endfacet
   facet normal 4.274769e-02 -9.979914e-01 4.675242e-02
      outer loop
         vertex 2.297667e+03 1.365395e+03 2.422952e+02
         vertex 2.302962e+03 1.365819e+03 2.464948e+02
         vertex 2.302994e+03 1.365865e+03 2.474617e+02
      endloop
   endfacet
   facet normal 9.985436e-01 4.113611e-02 -3.490624e-02
      outer loop
         vertex 2.302962e+03 1.365819e+03 2.464948e+02
         vertex 2.302663e+03 1.372805e+03 2.461676e+02
         vertex 2.302994e+03 1.365865e+03 2.474617e+02
      endloop
   endfacet
   facet normal 9.985436e-01 4.113611e-02 -3.490624e-02
      outer loop
         vertex 2.302663e+03 1.372805e+03 2.461676e+02
         vertex 2.302694e+03 1.372851e+03 2.471344e+02
         vertex 2.302994e+03 1.365865e+03 2.474617e+02
      endloop
   endfacet
   facet normal 4.274769e-02 -9.979914e-01 4.675242e-02
      outer loop
         vertex 2.315062e+03 1.366096e+03 2.413472e+02
         vertex 2.320327e+03 1.366168e+03 2.380803e+02
         vertex 2.315735e+03 1.366157e+03 2.420416e+02
      endloop
   endfacet
   facet normal -8.046139e-01 -6.648970e-03 5.937612e-01
      outer loop
         vertex 2.316009e+03 1.373204e+03 2.424923e+02
         vertex 2.315435e+03 1.373143e+03 2.417143e+02
         vertex 2.315735e+03 1.366157e+03 2.420416e+02
      endloop
   endfacet
   facet normal -7.184944e-01 1.807381e-03 6.955304e-01
      outer loop
         vertex 2.315435e+03 1.373143e+03 2.417143e+02
         vertex 2.315062e+03 1.366096e+03 2.413472e+02
         vertex 2.315735e+03 1.366157e+03 2.420416e+02
      endloop
   endfacet
   facet normal 4.274769e-02 -9.979914e-01 4.675242e-02
      outer loop
         vertex 2.297667e+03 1.365395e+03 2.422952e+02
         vertex 2.303059e+03 1.365778e+03 2.455321e+02
         vertex 2.302962e+03 1.365819e+03 2.464948e+02
      endloop
   endfacet
   facet normal 9.940210e-01 4.719037e-02 9.846518e-02
      outer loop
         vertex 2.303059e+03 1.365778e+03 2.455321e+02
         vertex 2.302760e+03 1.372764e+03 2.452048e+02
         vertex 2.302962e+03 1.365819e+03 2.464948e+02
      endloop
   endfacet
   facet normal 9.940210e-01 4.719037e-02 9.846518e-02
      outer loop
         vertex 2.302760e+03 1.372764e+03 2.452048e+02
         vertex 2.302663e+03 1.372805e+03 2.461676e+02
         vertex 2.302962e+03 1.365819e+03 2.464948e+02
      endloop
   endfacet
   facet normal 4.274769e-02 -9.979914e-01 4.675242e-02
      outer loop
         vertex 2.314303e+03 1.366035e+03 2.407488e+02
         vertex 2.320327e+03 1.366168e+03 2.380803e+02
         vertex 2.315062e+03 1.366096e+03 2.413472e+02
      endloop
   endfacet
   facet normal -7.184944e-01 1.807381e-03 6.955304e-01
      outer loop
         vertex 2.315435e+03 1.373143e+03 2.417143e+02
         vertex 2.314763e+03 1.373082e+03 2.410200e+02
         vertex 2.315062e+03 1.366096e+03 2.413472e+02
      endloop
   endfacet
   facet normal -6.195537e-01 1.023145e-02 7.848876e-01
      outer loop
         vertex 2.314763e+03 1.373082e+03 2.410200e+02
         vertex 2.314303e+03 1.366035e+03 2.407488e+02
         vertex 2.315062e+03 1.366096e+03 2.413472e+02
      endloop
   endfacet
   facet normal 4.274769e-02 -9.979914e-01 4.675242e-02
      outer loop
         vertex 2.297667e+03 1.365395e+03 2.422952e+02
         vertex 2.303284e+03 1.365743e+03 2.445907e+02
         vertex 2.303059e+03 1.365778e+03 2.455321e+02
      endloop
   endfacet
   facet normal 9.717600e-01 5.240251e-02 2.300791e-01
      outer loop
         vertex 2.303284e+03 1.365743e+03 2.445907e+02
         vertex 2.302985e+03 1.372729e+03 2.442634e+02
         vertex 2.303059e+03 1.365778e+03 2.455321e+02
      endloop
   endfacet
   facet normal 9.717600e-01 5.240251e-02 2.300791e-01
      outer loop
         vertex 2.302985e+03 1.372729e+03 2.442634e+02
         vertex 2.302760e+03 1.372764e+03 2.452048e+02
         vertex 2.303059e+03 1.365778e+03 2.455321e+02
      endloop
   endfacet
   facet normal 4.274769e-02 -9.979914e-01 4.675242e-02
      outer loop
         vertex 2.313471e+03 1.365977e+03 2.402571e+02
         vertex 2.320327e+03 1.366168e+03 2.380803e+02
         vertex 2.314303e+03 1.366035e+03 2.407488e+02
      endloop
   endfacet
   facet normal -6.195537e-01 1.023145e-02 7.848876e-01
      outer loop
         vertex 2.314763e+03 1.373082e+03 2.410200e+02
         vertex 2.314004e+03 1.373021e+03 2.404215e+02
         vertex 2.314303e+03 1.366035e+03 2.407488e+02
      endloop
   endfacet
   facet normal -5.095564e-01 1.847299e-02 8.602389e-01
      outer loop
         vertex 2.314004e+03 1.373021e+03 2.404215e+02
         vertex 2.313471e+03 1.365977e+03 2.402571e+02
         vertex 2.314303e+03 1.366035e+03 2.407488e+02
      endloop
   endfacet
   facet normal 4.274769e-02 -9.979914e-01 4.675242e-02
      outer loop
         vertex 2.297667e+03 1.365395e+03 2.422952e+02
         vertex 2.303632e+03 1.365716e+03 2.436874e+02
         vertex 2.303284e+03 1.365743e+03 2.445907e+02
      endloop
   endfacet
   facet normal 9.321578e-01 5.667955e-02 3.575880e-01
      outer loop
         vertex 2.303632e+03 1.365716e+03 2.436874e+02
         vertex 2.303333e+03 1.372702e+03 2.433601e+02
         vertex 2.303284e+03 1.365743e+03 2.445907e+02
      endloop
   endfacet
   facet normal 9.321578e-01 5.667955e-02 3.575880e-01
      outer loop
         vertex 2.303333e+03 1.372702e+03 2.433601e+02
         vertex 2.302985e+03 1.372729e+03 2.442634e+02
         vertex 2.303284e+03 1.365743e+03 2.445907e+02
      endloop
   endfacet
   facet normal 3.346904e-01 -2.978669e-02 -9.418572e-01
      outer loop
         vertex 2.307793e+03 1.365424e+03 2.336498e+02
         vertex 2.320028e+03 1.373154e+03 2.377530e+02
         vertex 2.320327e+03 1.366168e+03 2.380803e+02
      endloop
   endfacet
   facet normal 4.274769e-02 -9.979914e-01 4.675242e-02
      outer loop
         vertex 2.313471e+03 1.365977e+03 2.402571e+02
         vertex 2.307793e+03 1.365424e+03 2.336498e+02
         vertex 2.320327e+03 1.366168e+03 2.380803e+02
      endloop
   endfacet
   facet normal 4.274769e-02 -9.979914e-01 4.675242e-02
      outer loop
         vertex 2.312580e+03 1.365921e+03 2.398808e+02
         vertex 2.307793e+03 1.365424e+03 2.336498e+02
         vertex 2.313471e+03 1.365977e+03 2.402571e+02
      endloop
   endfacet
   facet normal -5.095564e-01 1.847299e-02 8.602389e-01
      outer loop
         vertex 2.314004e+03 1.373021e+03 2.404215e+02
         vertex 2.313172e+03 1.372963e+03 2.399298e+02
         vertex 2.313471e+03 1.365977e+03 2.402571e+02
      endloop
   endfacet
   facet normal -3.904669e-01 2.638483e-02 9.202388e-01
      outer loop
         vertex 2.313172e+03 1.372963e+03 2.399298e+02
         vertex 2.312580e+03 1.365921e+03 2.398808e+02
         vertex 2.313471e+03 1.365977e+03 2.402571e+02
      endloop
   endfacet
   facet normal 4.274769e-02 -9.979914e-01 4.675242e-02
      outer loop
         vertex 2.297667e+03 1.365395e+03 2.422952e+02
         vertex 2.304097e+03 1.365696e+03 2.428383e+02
         vertex 2.303632e+03 1.365716e+03 2.436874e+02
      endloop
   endfacet
   facet normal 8.759216e-01 5.994511e-02 4.787149e-01
      outer loop
         vertex 2.304097e+03 1.365696e+03 2.428383e+02
         vertex 2.303798e+03 1.372682e+03 2.425110e+02
         vertex 2.303632e+03 1.365716e+03 2.436874e+02
      endloop
   endfacet
   facet normal 8.759216e-01 5.994511e-02 4.787149e-01
      outer loop
         vertex 2.303798e+03 1.372682e+03 2.425110e+02
         vertex 2.303333e+03 1.372702e+03 2.433601e+02
         vertex 2.303632e+03 1.365716e+03 2.436874e+02
      endloop
   endfacet
   facet normal 4.274769e-02 -9.979914e-01 4.675242e-02
      outer loop
         vertex 2.311647e+03 1.365869e+03 2.396266e+02
         vertex 2.307793e+03 1.365424e+03 2.336498e+02
         vertex 2.312580e+03 1.365921e+03 2.398808e+02
      endloop
   endfacet
   facet normal -3.904669e-01 2.638483e-02 9.202388e-01
      outer loop
         vertex 2.313172e+03 1.372963e+03 2.399298e+02
         vertex 2.312281e+03 1.372907e+03 2.395535e+02
         vertex 2.312580e+03 1.365921e+03 2.398808e+02
      endloop
   endfacet
   facet normal -2.644088e-01 3.382587e-02 9.638173e-01
      outer loop
         vertex 2.312281e+03 1.372907e+03 2.395535e+02
         vertex 2.311647e+03 1.365869e+03 2.396266e+02
         vertex 2.312580e+03 1.365921e+03 2.398808e+02
      endloop
   endfacet
   facet normal 4.274769e-02 -9.979914e-01 4.675242e-02
      outer loop
         vertex 2.297667e+03 1.365395e+03 2.422952e+02
         vertex 2.304672e+03 1.365684e+03 2.420585e+02
         vertex 2.304097e+03 1.365696e+03 2.428383e+02
      endloop
   endfacet
   facet normal 8.040542e-01 6.214097e-02 5.912997e-01
      outer loop
         vertex 2.304672e+03 1.365684e+03 2.420585e+02
         vertex 2.304373e+03 1.372670e+03 2.417313e+02
         vertex 2.304097e+03 1.365696e+03 2.428383e+02
      endloop
   endfacet
   facet normal 8.040542e-01 6.214097e-02 5.912997e-01
      outer loop
         vertex 2.304373e+03 1.372670e+03 2.417313e+02
         vertex 2.303798e+03 1.372682e+03 2.425110e+02
         vertex 2.304097e+03 1.365696e+03 2.428383e+02
      endloop
   endfacet
   facet normal 4.274769e-02 -9.979914e-01 4.675242e-02
      outer loop
         vertex 2.310688e+03 1.365822e+03 2.394991e+02
         vertex 2.307793e+03 1.365424e+03 2.336498e+02
         vertex 2.311647e+03 1.365869e+03 2.396266e+02
      endloop
   endfacet
   facet normal -2.644088e-01 3.382587e-02 9.638173e-01
      outer loop
         vertex 2.312281e+03 1.372907e+03 2.395535e+02
         vertex 2.311348e+03 1.372855e+03 2.392993e+02
         vertex 2.311647e+03 1.365869e+03 2.396266e+02
      endloop
   endfacet
   facet normal -1.336325e-01 4.066327e-02 9.901964e-01
      outer loop
         vertex 2.311348e+03 1.372855e+03 2.392993e+02
         vertex 2.310688e+03 1.365822e+03 2.394991e+02
         vertex 2.311647e+03 1.365869e+03 2.396266e+02
      endloop
   endfacet
   facet normal 4.274769e-02 -9.979914e-01 4.675242e-02
      outer loop
         vertex 2.297667e+03 1.365395e+03 2.422952e+02
         vertex 2.305345e+03 1.365680e+03 2.413621e+02
         vertex 2.304672e+03 1.365684e+03 2.420585e+02
      endloop
   endfacet
   facet normal 7.178385e-01 6.322791e-02 6.933327e-01
      outer loop
         vertex 2.305345e+03 1.365680e+03 2.413621e+02
         vertex 2.305046e+03 1.372666e+03 2.410348e+02
         vertex 2.304672e+03 1.365684e+03 2.420585e+02
      endloop
   endfacet
   facet normal 7.178385e-01 6.322791e-02 6.933327e-01
      outer loop
         vertex 2.305046e+03 1.372666e+03 2.410348e+02
         vertex 2.304373e+03 1.372670e+03 2.417313e+02
         vertex 2.304672e+03 1.365684e+03 2.420585e+02
      endloop
   endfacet
   facet normal 4.274769e-02 -9.979914e-01 4.675242e-02
      outer loop
         vertex 2.309721e+03 1.365781e+03 2.395006e+02
         vertex 2.307793e+03 1.365424e+03 2.336498e+02
         vertex 2.310688e+03 1.365822e+03 2.394991e+02
      endloop
   endfacet
   facet normal -1.336325e-01 4.066327e-02 9.901964e-01
      outer loop
         vertex 2.311348e+03 1.372855e+03 2.392993e+02
         vertex 2.310389e+03 1.372808e+03 2.391718e+02
         vertex 2.310688e+03 1.365822e+03 2.394991e+02
      endloop
   endfacet
   facet normal -4.719212e-04 4.677502e-02 9.989053e-01
      outer loop
         vertex 2.310389e+03 1.372808e+03 2.391718e+02
         vertex 2.309721e+03 1.365781e+03 2.395006e+02
         vertex 2.310688e+03 1.365822e+03 2.394991e+02
      endloop
   endfacet
   facet normal 4.274769e-02 -9.979914e-01 4.675242e-02
      outer loop
         vertex 2.297667e+03 1.365395e+03 2.422952e+02
         vertex 2.306104e+03 1.365685e+03 2.407614e+02
         vertex 2.305345e+03 1.365680e+03 2.413621e+02
      endloop
   endfacet
   facet normal 6.188132e-01 6.318656e-02 7.829928e-01
      outer loop
         vertex 2.306104e+03 1.365685e+03 2.407614e+02
         vertex 2.305805e+03 1.372671e+03 2.404341e+02
         vertex 2.305345e+03 1.365680e+03 2.413621e+02
      endloop
   endfacet
   facet normal 6.188132e-01 6.318656e-02 7.829928e-01
      outer loop
         vertex 2.305805e+03 1.372671e+03 2.404341e+02
         vertex 2.305046e+03 1.372666e+03 2.410348e+02
         vertex 2.305345e+03 1.365680e+03 2.413621e+02
      endloop
   endfacet
   facet normal 4.274769e-02 -9.979914e-01 4.675242e-02
      outer loop
         vertex 2.308762e+03 1.365746e+03 2.396310e+02
         vertex 2.307793e+03 1.365424e+03 2.336498e+02
         vertex 2.309721e+03 1.365781e+03 2.395006e+02
      endloop
   endfacet
   facet normal -4.719212e-04 4.677502e-02 9.989053e-01
      outer loop
         vertex 2.310389e+03 1.372808e+03 2.391718e+02
         vertex 2.309421e+03 1.372767e+03 2.391733e+02
         vertex 2.309721e+03 1.365781e+03 2.395006e+02
      endloop
   endfacet
   facet normal 1.326974e-01 5.205208e-02 9.897889e-01
      outer loop
         vertex 2.309421e+03 1.372767e+03 2.391733e+02
         vertex 2.308762e+03 1.365746e+03 2.396310e+02
         vertex 2.309721e+03 1.365781e+03 2.395006e+02
      endloop
   endfacet
   facet normal 4.274769e-02 -9.979914e-01 4.675242e-02
      outer loop
         vertex 2.307793e+03 1.365424e+03 2.336498e+02
         vertex 2.306937e+03 1.365697e+03 2.402671e+02
         vertex 2.306104e+03 1.365685e+03 2.407614e+02
      endloop
   endfacet
   facet normal 4.274769e-02 -9.979914e-01 4.675242e-02
      outer loop
         vertex 2.297667e+03 1.365395e+03 2.422952e+02
         vertex 2.307793e+03 1.365424e+03 2.336498e+02
         vertex 2.306104e+03 1.365685e+03 2.407614e+02
      endloop
   endfacet
   facet normal 5.087450e-01 6.201764e-02 8.586806e-01
      outer loop
         vertex 2.306937e+03 1.365697e+03 2.402671e+02
         vertex 2.306638e+03 1.372683e+03 2.399398e+02
         vertex 2.306104e+03 1.365685e+03 2.407614e+02
      endloop
   endfacet
   facet normal 5.087450e-01 6.201764e-02 8.586806e-01
      outer loop
         vertex 2.306638e+03 1.372683e+03 2.399398e+02
         vertex 2.305805e+03 1.372671e+03 2.404341e+02
         vertex 2.306104e+03 1.365685e+03 2.407614e+02
      endloop
   endfacet
   facet normal 4.274769e-02 -9.979914e-01 4.675242e-02
      outer loop
         vertex 2.307828e+03 1.365718e+03 2.398880e+02
         vertex 2.307793e+03 1.365424e+03 2.336498e+02
         vertex 2.308762e+03 1.365746e+03 2.396310e+02
      endloop
   endfacet
   facet normal 1.326974e-01 5.205208e-02 9.897889e-01
      outer loop
         vertex 2.309421e+03 1.372767e+03 2.391733e+02
         vertex 2.308462e+03 1.372732e+03 2.393037e+02
         vertex 2.308762e+03 1.365746e+03 2.396310e+02
      endloop
   endfacet
   facet normal 2.634993e-01 5.640029e-02 9.630094e-01
      outer loop
         vertex 2.308462e+03 1.372732e+03 2.393037e+02
         vertex 2.307828e+03 1.365718e+03 2.398880e+02
         vertex 2.308762e+03 1.365746e+03 2.396310e+02
      endloop
   endfacet
   facet normal 4.274769e-02 -9.979914e-01 4.675242e-02
      outer loop
         vertex 2.307793e+03 1.365424e+03 2.336498e+02
         vertex 2.307828e+03 1.365718e+03 2.398880e+02
         vertex 2.306937e+03 1.365697e+03 2.402671e+02
      endloop
   endfacet
   facet normal 3.895977e-01 5.974200e-02 9.190455e-01
      outer loop
         vertex 2.307828e+03 1.365718e+03 2.398880e+02
         vertex 2.307529e+03 1.372704e+03 2.395608e+02
         vertex 2.306937e+03 1.365697e+03 2.402671e+02
      endloop
   endfacet
   facet normal 3.895977e-01 5.974200e-02 9.190455e-01
      outer loop
         vertex 2.307529e+03 1.372704e+03 2.395608e+02
         vertex 2.306638e+03 1.372683e+03 2.399398e+02
         vertex 2.306937e+03 1.365697e+03 2.402671e+02
      endloop
   endfacet
   facet normal 2.634993e-01 5.640029e-02 9.630094e-01
      outer loop
         vertex 2.308462e+03 1.372732e+03 2.393037e+02
         vertex 2.307529e+03 1.372704e+03 2.395608e+02
         vertex 2.307828e+03 1.365718e+03 2.398880e+02
      endloop
   endfacet
   facet normal -6.478948e-01 -6.331266e-02 -7.590941e-01
      outer loop
         vertex 2.297368e+03 1.372381e+03 2.419680e+02
         vertex 2.307494e+03 1.372410e+03 2.333225e+02
         vertex 2.297667e+03 1.365395e+03 2.422952e+02
      endloop
   endfacet
   facet normal -6.478948e-01 -6.331266e-02 -7.590941e-01
      outer loop
         vertex 2.307494e+03 1.372410e+03 2.333225e+02
         vertex 2.307793e+03 1.365424e+03 2.336498e+02
         vertex 2.297667e+03 1.365395e+03 2.422952e+02
      endloop
   endfacet
   facet normal 3.346904e-01 -2.978669e-02 -9.418572e-01
      outer loop
         vertex 2.307494e+03 1.372410e+03 2.333225e+02
         vertex 2.320028e+03 1.373154e+03 2.377530e+02
         vertex 2.307793e+03 1.365424e+03 2.336498e+02
      endloop
   endfacet
   facet normal -4.274769e-02 9.979914e-01 -4.675242e-02
      outer loop
         vertex 2.322436e+03 1.373870e+03 2.508290e+02
         vertex 2.315106e+03 1.373584e+03 2.514251e+02
         vertex 2.312310e+03 1.373841e+03 2.594744e+02
      endloop
   endfacet
   facet normal -4.274769e-02 9.979914e-01 -4.675242e-02
      outer loop
         vertex 2.315106e+03 1.373584e+03 2.514251e+02
         vertex 2.314388e+03 1.373584e+03 2.520752e+02
         vertex 2.312310e+03 1.373841e+03 2.594744e+02
      endloop
   endfacet
   facet normal -4.274769e-02 9.979914e-01 -4.675242e-02
      outer loop
         vertex 2.314388e+03 1.373584e+03 2.520752e+02
         vertex 2.313590e+03 1.373575e+03 2.526239e+02
         vertex 2.312310e+03 1.373841e+03 2.594744e+02
      endloop
   endfacet
   facet normal -4.274769e-02 9.979914e-01 -4.675242e-02
      outer loop
         vertex 2.313590e+03 1.373575e+03 2.526239e+02
         vertex 2.312726e+03 1.373559e+03 2.530616e+02
         vertex 2.312310e+03 1.373841e+03 2.594744e+02
      endloop
   endfacet
   facet normal -4.274769e-02 9.979914e-01 -4.675242e-02
      outer loop
         vertex 2.312726e+03 1.373559e+03 2.530616e+02
         vertex 2.311812e+03 1.373535e+03 2.533803e+02
         vertex 2.312310e+03 1.373841e+03 2.594744e+02
      endloop
   endfacet
   facet normal -4.274769e-02 9.979914e-01 -4.675242e-02
      outer loop
         vertex 2.311812e+03 1.373535e+03 2.533803e+02
         vertex 2.310864e+03 1.373503e+03 2.535744e+02
         vertex 2.312310e+03 1.373841e+03 2.594744e+02
      endloop
   endfacet
   facet normal -4.274769e-02 9.979914e-01 -4.675242e-02
      outer loop
         vertex 2.310864e+03 1.373503e+03 2.535744e+02
         vertex 2.309898e+03 1.373465e+03 2.536405e+02
         vertex 2.312310e+03 1.373841e+03 2.594744e+02
      endloop
   endfacet
   facet normal -4.274769e-02 9.979914e-01 -4.675242e-02
      outer loop
         vertex 2.309898e+03 1.373465e+03 2.536405e+02
         vertex 2.308933e+03 1.373420e+03 2.535774e+02
         vertex 2.312310e+03 1.373841e+03 2.594744e+02
      endloop
   endfacet
   facet normal -4.274769e-02 9.979914e-01 -4.675242e-02
      outer loop
         vertex 2.308933e+03 1.373420e+03 2.535774e+02
         vertex 2.307985e+03 1.373371e+03 2.533862e+02
         vertex 2.312310e+03 1.373841e+03 2.594744e+02
      endloop
   endfacet
   facet normal -4.274769e-02 9.979914e-01 -4.675242e-02
      outer loop
         vertex 2.307985e+03 1.373371e+03 2.533862e+02
         vertex 2.299775e+03 1.373097e+03 2.550439e+02
         vertex 2.312310e+03 1.373841e+03 2.594744e+02
      endloop
   endfacet
   facet normal -4.274769e-02 9.979914e-01 -4.675242e-02
      outer loop
         vertex 2.316660e+03 1.373537e+03 2.489910e+02
         vertex 2.316252e+03 1.373560e+03 2.498692e+02
         vertex 2.322436e+03 1.373870e+03 2.508290e+02
      endloop
   endfacet
   facet normal -4.274769e-02 9.979914e-01 -4.675242e-02
      outer loop
         vertex 2.316252e+03 1.373560e+03 2.498692e+02
         vertex 2.315731e+03 1.373576e+03 2.506854e+02
         vertex 2.322436e+03 1.373870e+03 2.508290e+02
      endloop
   endfacet
   facet normal -4.274769e-02 9.979914e-01 -4.675242e-02
      outer loop
         vertex 2.315731e+03 1.373576e+03 2.506854e+02
         vertex 2.315106e+03 1.373584e+03 2.514251e+02
         vertex 2.322436e+03 1.373870e+03 2.508290e+02
      endloop
   endfacet
   facet normal -4.274769e-02 9.979914e-01 -4.675242e-02
      outer loop
         vertex 2.317141e+03 1.373424e+03 2.461454e+02
         vertex 2.317108e+03 1.373468e+03 2.471123e+02
         vertex 2.322436e+03 1.373870e+03 2.508290e+02
      endloop
   endfacet
   facet normal -4.274769e-02 9.979914e-01 -4.675242e-02
      outer loop
         vertex 2.317108e+03 1.373468e+03 2.471123e+02
         vertex 2.316947e+03 1.373506e+03 2.480666e+02
         vertex 2.322436e+03 1.373870e+03 2.508290e+02
      endloop
   endfacet
   facet normal -4.274769e-02 9.979914e-01 -4.675242e-02
      outer loop
         vertex 2.316947e+03 1.373506e+03 2.480666e+02
         vertex 2.316660e+03 1.373537e+03 2.489910e+02
         vertex 2.322436e+03 1.373870e+03 2.508290e+02
      endloop
   endfacet
   facet normal -4.274769e-02 9.979914e-01 -4.675242e-02
      outer loop
         vertex 2.320028e+03 1.373154e+03 2.377530e+02
         vertex 2.316821e+03 1.373321e+03 2.442422e+02
         vertex 2.322436e+03 1.373870e+03 2.508290e+02
      endloop
   endfacet
   facet normal -4.274769e-02 9.979914e-01 -4.675242e-02
      outer loop
         vertex 2.316821e+03 1.373321e+03 2.442422e+02
         vertex 2.317045e+03 1.373375e+03 2.451830e+02
         vertex 2.322436e+03 1.373870e+03 2.508290e+02
      endloop
   endfacet
   facet normal -4.274769e-02 9.979914e-01 -4.675242e-02
      outer loop
         vertex 2.317045e+03 1.373375e+03 2.451830e+02
         vertex 2.317141e+03 1.373424e+03 2.461454e+02
         vertex 2.322436e+03 1.373870e+03 2.508290e+02
      endloop
   endfacet
   facet normal -4.274769e-02 9.979914e-01 -4.675242e-02
      outer loop
         vertex 2.307071e+03 1.373317e+03 2.530702e+02
         vertex 2.299775e+03 1.373097e+03 2.550439e+02
         vertex 2.307985e+03 1.373371e+03 2.533862e+02
      endloop
   endfacet
   facet normal -4.274769e-02 9.979914e-01 -4.675242e-02
      outer loop
         vertex 2.306207e+03 1.373260e+03 2.526352e+02
         vertex 2.299775e+03 1.373097e+03 2.550439e+02
         vertex 2.307071e+03 1.373317e+03 2.530702e+02
      endloop
   endfacet
   facet normal -4.274769e-02 9.979914e-01 -4.675242e-02
      outer loop
         vertex 2.303141e+03 1.372958e+03 2.490117e+02
         vertex 2.302855e+03 1.372903e+03 2.480881e+02
         vertex 2.299775e+03 1.373097e+03 2.550439e+02
      endloop
   endfacet
   facet normal -4.274769e-02 9.979914e-01 -4.675242e-02
      outer loop
         vertex 2.302855e+03 1.372903e+03 2.480881e+02
         vertex 2.297368e+03 1.372381e+03 2.419680e+02
         vertex 2.299775e+03 1.373097e+03 2.550439e+02
      endloop
   endfacet
   facet normal -4.274769e-02 9.979914e-01 -4.675242e-02
      outer loop
         vertex 2.306207e+03 1.373260e+03 2.526352e+02
         vertex 2.305410e+03 1.373200e+03 2.520889e+02
         vertex 2.299775e+03 1.373097e+03 2.550439e+02
      endloop
   endfacet
   facet normal -4.274769e-02 9.979914e-01 -4.675242e-02
      outer loop
         vertex 2.305410e+03 1.373200e+03 2.520889e+02
         vertex 2.304693e+03 1.373139e+03 2.514411e+02
         vertex 2.299775e+03 1.373097e+03 2.550439e+02
      endloop
   endfacet
   facet normal -4.274769e-02 9.979914e-01 -4.675242e-02
      outer loop
         vertex 2.304693e+03 1.373139e+03 2.514411e+02
         vertex 2.304068e+03 1.373077e+03 2.507032e+02
         vertex 2.299775e+03 1.373097e+03 2.550439e+02
      endloop
   endfacet
   facet normal -4.274769e-02 9.979914e-01 -4.675242e-02
      outer loop
         vertex 2.304068e+03 1.373077e+03 2.507032e+02
         vertex 2.303548e+03 1.373017e+03 2.498886e+02
         vertex 2.299775e+03 1.373097e+03 2.550439e+02
      endloop
   endfacet
   facet normal -4.274769e-02 9.979914e-01 -4.675242e-02
      outer loop
         vertex 2.303548e+03 1.373017e+03 2.498886e+02
         vertex 2.303141e+03 1.372958e+03 2.490117e+02
         vertex 2.299775e+03 1.373097e+03 2.550439e+02
      endloop
   endfacet
   facet normal -4.274769e-02 9.979914e-01 -4.675242e-02
      outer loop
         vertex 2.320028e+03 1.373154e+03 2.377530e+02
         vertex 2.316474e+03 1.373264e+03 2.433400e+02
         vertex 2.316821e+03 1.373321e+03 2.442422e+02
      endloop
   endfacet
   facet normal -4.274769e-02 9.979914e-01 -4.675242e-02
      outer loop
         vertex 2.320028e+03 1.373154e+03 2.377530e+02
         vertex 2.316009e+03 1.373204e+03 2.424923e+02
         vertex 2.316474e+03 1.373264e+03 2.433400e+02
      endloop
   endfacet
   facet normal -4.274769e-02 9.979914e-01 -4.675242e-02
      outer loop
         vertex 2.302694e+03 1.372851e+03 2.471344e+02
         vertex 2.297368e+03 1.372381e+03 2.419680e+02
         vertex 2.302855e+03 1.372903e+03 2.480881e+02
      endloop
   endfacet
   facet normal -4.274769e-02 9.979914e-01 -4.675242e-02
      outer loop
         vertex 2.320028e+03 1.373154e+03 2.377530e+02
         vertex 2.315435e+03 1.373143e+03 2.417143e+02
         vertex 2.316009e+03 1.373204e+03 2.424923e+02
      endloop
   endfacet
   facet normal -4.274769e-02 9.979914e-01 -4.675242e-02
      outer loop
         vertex 2.302663e+03 1.372805e+03 2.461676e+02
         vertex 2.297368e+03 1.372381e+03 2.419680e+02
         vertex 2.302694e+03 1.372851e+03 2.471344e+02
      endloop
   endfacet
   facet normal -4.274769e-02 9.979914e-01 -4.675242e-02
      outer loop
         vertex 2.320028e+03 1.373154e+03 2.377530e+02
         vertex 2.314763e+03 1.373082e+03 2.410200e+02
         vertex 2.315435e+03 1.373143e+03 2.417143e+02
      endloop
   endfacet
   facet normal -4.274769e-02 9.979914e-01 -4.675242e-02
      outer loop
         vertex 2.302760e+03 1.372764e+03 2.452048e+02
         vertex 2.297368e+03 1.372381e+03 2.419680e+02
         vertex 2.302663e+03 1.372805e+03 2.461676e+02
      endloop
   endfacet
   facet normal -4.274769e-02 9.979914e-01 -4.675242e-02
      outer loop
         vertex 2.320028e+03 1.373154e+03 2.377530e+02
         vertex 2.314004e+03 1.373021e+03 2.404215e+02
         vertex 2.314763e+03 1.373082e+03 2.410200e+02
      endloop
   endfacet
   facet normal -4.274769e-02 9.979914e-01 -4.675242e-02
      outer loop
         vertex 2.302985e+03 1.372729e+03 2.442634e+02
         vertex 2.297368e+03 1.372381e+03 2.419680e+02
         vertex 2.302760e+03 1.372764e+03 2.452048e+02
      endloop
   endfacet
   facet normal -4.274769e-02 9.979914e-01 -4.675242e-02
      outer loop
         vertex 2.320028e+03 1.373154e+03 2.377530e+02
         vertex 2.313172e+03 1.372963e+03 2.399298e+02
         vertex 2.314004e+03 1.373021e+03 2.404215e+02
      endloop
   endfacet
   facet normal -4.274769e-02 9.979914e-01 -4.675242e-02
      outer loop
         vertex 2.303333e+03 1.372702e+03 2.433601e+02
         vertex 2.297368e+03 1.372381e+03 2.419680e+02
         vertex 2.302985e+03 1.372729e+03 2.442634e+02
      endloop
   endfacet
   facet normal -4.274769e-02 9.979914e-01 -4.675242e-02
      outer loop
         vertex 2.307494e+03 1.372410e+03 2.333225e+02
         vertex 2.312281e+03 1.372907e+03 2.395535e+02
         vertex 2.320028e+03 1.373154e+03 2.377530e+02
      endloop
   endfacet
   facet normal -4.274769e-02 9.979914e-01 -4.675242e-02
      outer loop
         vertex 2.312281e+03 1.372907e+03 2.395535e+02
         vertex 2.313172e+03 1.372963e+03 2.399298e+02
         vertex 2.320028e+03 1.373154e+03 2.377530e+02
      endloop
   endfacet
   facet normal -4.274769e-02 9.979914e-01 -4.675242e-02
      outer loop
         vertex 2.303798e+03 1.372682e+03 2.425110e+02
         vertex 2.297368e+03 1.372381e+03 2.419680e+02
         vertex 2.303333e+03 1.372702e+03 2.433601e+02
      endloop
   endfacet
   facet normal -4.274769e-02 9.979914e-01 -4.675242e-02
      outer loop
         vertex 2.307494e+03 1.372410e+03 2.333225e+02
         vertex 2.311348e+03 1.372855e+03 2.392993e+02
         vertex 2.312281e+03 1.372907e+03 2.395535e+02
      endloop
   endfacet
   facet normal -4.274769e-02 9.979914e-01 -4.675242e-02
      outer loop
         vertex 2.304373e+03 1.372670e+03 2.417313e+02
         vertex 2.297368e+03 1.372381e+03 2.419680e+02
         vertex 2.303798e+03 1.372682e+03 2.425110e+02
      endloop
   endfacet
   facet normal -4.274769e-02 9.979914e-01 -4.675242e-02
      outer loop
         vertex 2.307494e+03 1.372410e+03 2.333225e+02
         vertex 2.310389e+03 1.372808e+03 2.391718e+02
         vertex 2.311348e+03 1.372855e+03 2.392993e+02
      endloop
   endfacet
   facet normal -4.274769e-02 9.979914e-01 -4.675242e-02
      outer loop
         vertex 2.305046e+03 1.372666e+03 2.410348e+02
         vertex 2.297368e+03 1.372381e+03 2.419680e+02
         vertex 2.304373e+03 1.372670e+03 2.417313e+02
      endloop
   endfacet
   facet normal -4.274769e-02 9.979914e-01 -4.675242e-02
      outer loop
         vertex 2.307494e+03 1.372410e+03 2.333225e+02
         vertex 2.309421e+03 1.372767e+03 2.391733e+02
         vertex 2.310389e+03 1.372808e+03 2.391718e+02
      endloop
   endfacet
   facet normal -4.274769e-02 9.979914e-01 -4.675242e-02
      outer loop
         vertex 2.307494e+03 1.372410e+03 2.333225e+02
         vertex 2.297368e+03 1.372381e+03 2.419680e+02
         vertex 2.305046e+03 1.372666e+03 2.410348e+02
      endloop
   endfacet
   facet normal -4.274769e-02 9.979914e-01 -4.675242e-02
      outer loop
         vertex 2.305805e+03 1.372671e+03 2.404341e+02
         vertex 2.307494e+03 1.372410e+03 2.333225e+02
         vertex 2.305046e+03 1.372666e+03 2.410348e+02
      endloop
   endfacet
   facet normal -4.274769e-02 9.979914e-01 -4.675242e-02
      outer loop
         vertex 2.307494e+03 1.372410e+03 2.333225e+02
         vertex 2.308462e+03 1.372732e+03 2.393037e+02
         vertex 2.309421e+03 1.372767e+03 2.391733e+02
      endloop
   endfacet
   facet normal -4.274769e-02 9.979914e-01 -4.675242e-02
      outer loop
         vertex 2.306638e+03 1.372683e+03 2.399398e+02
         vertex 2.307494e+03 1.372410e+03 2.333225e+02
         vertex 2.305805e+03 1.372671e+03 2.404341e+02
      endloop
   endfacet
   facet normal -4.274769e-02 9.979914e-01 -4.675242e-02
      outer loop
         vertex 2.307494e+03 1.372410e+03 2.333225e+02
         vertex 2.307529e+03 1.372704e+03 2.395608e+02
         vertex 2.308462e+03 1.372732e+03 2.393037e+02
      endloop
   endfacet
   facet normal -4.274769e-02 9.979914e-01 -4.675242e-02
      outer loop
         vertex 2.307529e+03 1.372704e+03 2.395608e+02
         vertex 2.307494e+03 1.372410e+03 2.333225e+02
         vertex 2.306638e+03 1.372683e+03 2.399398e+02
      endloop
   endfacet
endsolid