solid assemblageComplet - assemblagePlaque-1 ecrou-2-1
   facet normal 9.825852e-01 3.352597e-02 -1.827631e-01
      outer loop
         vertex 3.498595e+02 1.335742e+03 1.390265e+03
         vertex 3.519680e+02 1.343443e+03 1.403014e+03
         vertex 3.522673e+02 1.336457e+03 1.403341e+03
      endloop
   endfacet
   facet normal 9.825852e-01 3.352597e-02 -1.827631e-01
      outer loop
         vertex 3.495603e+02 1.342728e+03 1.389938e+03
         vertex 3.519680e+02 1.343443e+03 1.403014e+03
         vertex 3.498595e+02 1.335742e+03 1.390265e+03
      endloop
   endfacet
   facet normal -3.346904e-01 2.978669e-02 9.418572e-01
      outer loop
         vertex 3.418415e+02 1.343415e+03 1.411659e+03
         vertex 3.293073e+02 1.342670e+03 1.407229e+03
         vertex 3.421408e+02 1.336429e+03 1.411987e+03
      endloop
   endfacet
   facet normal -3.346904e-01 2.978669e-02 9.418572e-01
      outer loop
         vertex 3.293073e+02 1.342670e+03 1.407229e+03
         vertex 3.296065e+02 1.335684e+03 1.407556e+03
         vertex 3.421408e+02 1.336429e+03 1.411987e+03
      endloop
   endfacet
   facet normal 6.478948e-01 6.331266e-02 7.590941e-01
      outer loop
         vertex 3.522673e+02 1.336457e+03 1.403341e+03
         vertex 3.418415e+02 1.343415e+03 1.411659e+03
         vertex 3.421408e+02 1.336429e+03 1.411987e+03
      endloop
   endfacet
   facet normal 4.274769e-02 -9.979914e-01 4.675242e-02
      outer loop
         vertex 3.416434e+02 1.336122e+03 1.405893e+03
         vertex 3.425576e+02 1.336146e+03 1.405574e+03
         vertex 3.421408e+02 1.336429e+03 1.411987e+03
      endloop
   endfacet
   facet normal 4.274769e-02 -9.979914e-01 4.675242e-02
      outer loop
         vertex 3.387642e+02 1.336008e+03 1.406090e+03
         vertex 3.397296e+02 1.336052e+03 1.406153e+03
         vertex 3.421408e+02 1.336429e+03 1.411987e+03
      endloop
   endfacet
   facet normal 4.274769e-02 -9.979914e-01 4.675242e-02
      outer loop
         vertex 3.397296e+02 1.336052e+03 1.406153e+03
         vertex 3.406951e+02 1.336090e+03 1.406087e+03
         vertex 3.421408e+02 1.336429e+03 1.411987e+03
      endloop
   endfacet
   facet normal 4.274769e-02 -9.979914e-01 4.675242e-02
      outer loop
         vertex 3.406951e+02 1.336090e+03 1.406087e+03
         vertex 3.416434e+02 1.336122e+03 1.405893e+03
         vertex 3.421408e+02 1.336429e+03 1.411987e+03
      endloop
   endfacet
   facet normal 4.274769e-02 -9.979914e-01 4.675242e-02
      outer loop
         vertex 3.425576e+02 1.336146e+03 1.405574e+03
         vertex 3.434214e+02 1.336163e+03 1.405136e+03
         vertex 3.421408e+02 1.336429e+03 1.411987e+03
      endloop
   endfacet
   facet normal 4.274769e-02 -9.979914e-01 4.675242e-02
      outer loop
         vertex 3.434214e+02 1.336163e+03 1.405136e+03
         vertex 3.442194e+02 1.336171e+03 1.404587e+03
         vertex 3.421408e+02 1.336429e+03 1.411987e+03
      endloop
   endfacet
   facet normal 4.274769e-02 -9.979914e-01 4.675242e-02
      outer loop
         vertex 3.442194e+02 1.336171e+03 1.404587e+03
         vertex 3.522673e+02 1.336457e+03 1.403341e+03
         vertex 3.421408e+02 1.336429e+03 1.411987e+03
      endloop
   endfacet
   facet normal 4.274769e-02 -9.979914e-01 4.675242e-02
      outer loop
         vertex 3.296065e+02 1.335684e+03 1.407556e+03
         vertex 3.369021e+02 1.335904e+03 1.405582e+03
         vertex 3.421408e+02 1.336429e+03 1.411987e+03
      endloop
   endfacet
   facet normal 4.274769e-02 -9.979914e-01 4.675242e-02
      outer loop
         vertex 3.369021e+02 1.335904e+03 1.405582e+03
         vertex 3.378161e+02 1.335958e+03 1.405898e+03
         vertex 3.421408e+02 1.336429e+03 1.411987e+03
      endloop
   endfacet
   facet normal 4.274769e-02 -9.979914e-01 4.675242e-02
      outer loop
         vertex 3.378161e+02 1.335958e+03 1.405898e+03
         vertex 3.387642e+02 1.336008e+03 1.406090e+03
         vertex 3.421408e+02 1.336429e+03 1.411987e+03
      endloop
   endfacet
   facet normal 6.478948e-01 6.331266e-02 7.590941e-01
      outer loop
         vertex 3.519680e+02 1.343443e+03 1.403014e+03
         vertex 3.418415e+02 1.343415e+03 1.411659e+03
         vertex 3.522673e+02 1.336457e+03 1.403341e+03
      endloop
   endfacet
   facet normal 4.274769e-02 -9.979914e-01 4.675242e-02
      outer loop
         vertex 3.455624e+02 1.336164e+03 1.403198e+03
         vertex 3.460835e+02 1.336148e+03 1.402381e+03
         vertex 3.522673e+02 1.336457e+03 1.403341e+03
      endloop
   endfacet
   facet normal 4.274769e-02 -9.979914e-01 4.675242e-02
      outer loop
         vertex 3.442194e+02 1.336171e+03 1.404587e+03
         vertex 3.449374e+02 1.336171e+03 1.403937e+03
         vertex 3.522673e+02 1.336457e+03 1.403341e+03
      endloop
   endfacet
   facet normal 4.274769e-02 -9.979914e-01 4.675242e-02
      outer loop
         vertex 3.449374e+02 1.336171e+03 1.403937e+03
         vertex 3.455624e+02 1.336164e+03 1.403198e+03
         vertex 3.522673e+02 1.336457e+03 1.403341e+03
      endloop
   endfacet
   facet normal 4.274769e-02 -9.979914e-01 4.675242e-02
      outer loop
         vertex 3.460835e+02 1.336148e+03 1.402381e+03
         vertex 3.464912e+02 1.336124e+03 1.401503e+03
         vertex 3.522673e+02 1.336457e+03 1.403341e+03
      endloop
   endfacet
   facet normal 4.274769e-02 -9.979914e-01 4.675242e-02
      outer loop
         vertex 3.464912e+02 1.336124e+03 1.401503e+03
         vertex 3.467783e+02 1.336093e+03 1.400579e+03
         vertex 3.522673e+02 1.336457e+03 1.403341e+03
      endloop
   endfacet
   facet normal 4.274769e-02 -9.979914e-01 4.675242e-02
      outer loop
         vertex 3.467783e+02 1.336093e+03 1.400579e+03
         vertex 3.469397e+02 1.336055e+03 1.399625e+03
         vertex 3.522673e+02 1.336457e+03 1.403341e+03
      endloop
   endfacet
   facet normal 4.274769e-02 -9.979914e-01 4.675242e-02
      outer loop
         vertex 3.469397e+02 1.336055e+03 1.399625e+03
         vertex 3.469725e+02 1.336011e+03 1.398658e+03
         vertex 3.522673e+02 1.336457e+03 1.403341e+03
      endloop
   endfacet
   facet normal 4.274769e-02 -9.979914e-01 4.675242e-02
      outer loop
         vertex 3.469725e+02 1.336011e+03 1.398658e+03
         vertex 3.468761e+02 1.335962e+03 1.397695e+03
         vertex 3.522673e+02 1.336457e+03 1.403341e+03
      endloop
   endfacet
   facet normal 4.274769e-02 -9.979914e-01 4.675242e-02
      outer loop
         vertex 3.468761e+02 1.335962e+03 1.397695e+03
         vertex 3.498595e+02 1.335742e+03 1.390265e+03
         vertex 3.522673e+02 1.336457e+03 1.403341e+03
      endloop
   endfacet
   facet normal -3.272793e-01 -5.820111e-02 -9.431335e-01
      outer loop
         vertex 3.416434e+02 1.336122e+03 1.405893e+03
         vertex 3.413442e+02 1.343108e+03 1.405565e+03
         vertex 3.425576e+02 1.336146e+03 1.405574e+03
      endloop
   endfacet
   facet normal -3.272793e-01 -5.820111e-02 -9.431335e-01
      outer loop
         vertex 3.413442e+02 1.343108e+03 1.405565e+03
         vertex 3.422584e+02 1.343132e+03 1.405247e+03
         vertex 3.425576e+02 1.336146e+03 1.405574e+03
      endloop
   endfacet
   facet normal -4.501766e-01 -6.101607e-02 -8.908524e-01
      outer loop
         vertex 3.422584e+02 1.343132e+03 1.405247e+03
         vertex 3.434214e+02 1.336163e+03 1.405136e+03
         vertex 3.425576e+02 1.336146e+03 1.405574e+03
      endloop
   endfacet
   facet normal -1.985417e-01 -5.434755e-02 -9.785844e-01
      outer loop
         vertex 3.406951e+02 1.336090e+03 1.406087e+03
         vertex 3.403959e+02 1.343076e+03 1.405759e+03
         vertex 3.416434e+02 1.336122e+03 1.405893e+03
      endloop
   endfacet
   facet normal -1.985417e-01 -5.434755e-02 -9.785844e-01
      outer loop
         vertex 3.403959e+02 1.343076e+03 1.405759e+03
         vertex 3.413442e+02 1.343108e+03 1.405565e+03
         vertex 3.416434e+02 1.336122e+03 1.405893e+03
      endloop
   endfacet
   facet normal -4.501766e-01 -6.101607e-02 -8.908524e-01
      outer loop
         vertex 3.422584e+02 1.343132e+03 1.405247e+03
         vertex 3.431222e+02 1.343149e+03 1.404809e+03
         vertex 3.434214e+02 1.336163e+03 1.405136e+03
      endloop
   endfacet
   facet normal -5.650409e-01 -6.274221e-02 -8.226738e-01
      outer loop
         vertex 3.431222e+02 1.343149e+03 1.404809e+03
         vertex 3.442194e+02 1.336171e+03 1.404587e+03
         vertex 3.434214e+02 1.336163e+03 1.405136e+03
      endloop
   endfacet
   facet normal -6.626072e-02 -4.952414e-02 -9.965726e-01
      outer loop
         vertex 3.397296e+02 1.336052e+03 1.406153e+03
         vertex 3.394304e+02 1.343038e+03 1.405825e+03
         vertex 3.406951e+02 1.336090e+03 1.406087e+03
      endloop
   endfacet
   facet normal -6.626072e-02 -4.952414e-02 -9.965726e-01
      outer loop
         vertex 3.394304e+02 1.343038e+03 1.405825e+03
         vertex 3.403959e+02 1.343076e+03 1.405759e+03
         vertex 3.406951e+02 1.336090e+03 1.406087e+03
      endloop
   endfacet
   facet normal -5.650409e-01 -6.274221e-02 -8.226738e-01
      outer loop
         vertex 3.431222e+02 1.343149e+03 1.404809e+03
         vertex 3.439202e+02 1.343157e+03 1.404260e+03
         vertex 3.442194e+02 1.336171e+03 1.404587e+03
      endloop
   endfacet
   facet normal -6.698214e-01 -6.334870e-02 -7.398150e-01
      outer loop
         vertex 3.439202e+02 1.343157e+03 1.404260e+03
         vertex 3.449374e+02 1.336171e+03 1.403937e+03
         vertex 3.442194e+02 1.336171e+03 1.404587e+03
      endloop
   endfacet
   facet normal 6.720198e-02 -4.381701e-02 -9.967768e-01
      outer loop
         vertex 3.387642e+02 1.336008e+03 1.406090e+03
         vertex 3.384650e+02 1.342994e+03 1.405762e+03
         vertex 3.397296e+02 1.336052e+03 1.406153e+03
      endloop
   endfacet
   facet normal 6.720198e-02 -4.381701e-02 -9.967768e-01
      outer loop
         vertex 3.384650e+02 1.342994e+03 1.405762e+03
         vertex 3.394304e+02 1.343038e+03 1.405825e+03
         vertex 3.397296e+02 1.336052e+03 1.406153e+03
      endloop
   endfacet
   facet normal -6.698214e-01 -6.334870e-02 -7.398150e-01
      outer loop
         vertex 3.439202e+02 1.343157e+03 1.404260e+03
         vertex 3.446381e+02 1.343157e+03 1.403610e+03
         vertex 3.449374e+02 1.336171e+03 1.403937e+03
      endloop
   endfacet
   facet normal -7.626496e-01 -6.282473e-02 -6.437535e-01
      outer loop
         vertex 3.446381e+02 1.343157e+03 1.403610e+03
         vertex 3.455624e+02 1.336164e+03 1.403198e+03
         vertex 3.449374e+02 1.336171e+03 1.403937e+03
      endloop
   endfacet
   facet normal 1.994664e-01 -3.732791e-02 -9.791934e-01
      outer loop
         vertex 3.378161e+02 1.335958e+03 1.405898e+03
         vertex 3.375168e+02 1.342944e+03 1.405571e+03
         vertex 3.387642e+02 1.336008e+03 1.406090e+03
      endloop
   endfacet
   facet normal 1.994664e-01 -3.732791e-02 -9.791934e-01
      outer loop
         vertex 3.375168e+02 1.342944e+03 1.405571e+03
         vertex 3.384650e+02 1.342994e+03 1.405762e+03
         vertex 3.387642e+02 1.336008e+03 1.406090e+03
      endloop
   endfacet
   facet normal -7.626496e-01 -6.282473e-02 -6.437535e-01
      outer loop
         vertex 3.446381e+02 1.343157e+03 1.403610e+03
         vertex 3.452632e+02 1.343150e+03 1.402870e+03
         vertex 3.455624e+02 1.336164e+03 1.403198e+03
      endloop
   endfacet
   facet normal -8.418678e-01 -6.117966e-02 -5.362049e-01
      outer loop
         vertex 3.452632e+02 1.343150e+03 1.402870e+03
         vertex 3.460835e+02 1.336148e+03 1.402381e+03
         vertex 3.455624e+02 1.336164e+03 1.403198e+03
      endloop
   endfacet
   facet normal 3.281706e-01 -3.017274e-02 -9.441365e-01
      outer loop
         vertex 3.369021e+02 1.335904e+03 1.405582e+03
         vertex 3.366029e+02 1.342890e+03 1.405255e+03
         vertex 3.378161e+02 1.335958e+03 1.405898e+03
      endloop
   endfacet
   facet normal 3.281706e-01 -3.017274e-02 -9.441365e-01
      outer loop
         vertex 3.366029e+02 1.342890e+03 1.405255e+03
         vertex 3.375168e+02 1.342944e+03 1.405571e+03
         vertex 3.378161e+02 1.335958e+03 1.405898e+03
      endloop
   endfacet
   facet normal -8.418678e-01 -6.117966e-02 -5.362049e-01
      outer loop
         vertex 3.452632e+02 1.343150e+03 1.402870e+03
         vertex 3.457842e+02 1.343134e+03 1.402054e+03
         vertex 3.460835e+02 1.336148e+03 1.402381e+03
      endloop
   endfacet
   facet normal -9.060629e-01 -5.844284e-02 -4.190876e-01
      outer loop
         vertex 3.457842e+02 1.343134e+03 1.402054e+03
         vertex 3.464912e+02 1.336124e+03 1.401503e+03
         vertex 3.460835e+02 1.336148e+03 1.402381e+03
      endloop
   endfacet
   facet normal 4.274769e-02 -9.979914e-01 4.675242e-02
      outer loop
         vertex 3.296065e+02 1.335684e+03 1.407556e+03
         vertex 3.360387e+02 1.335847e+03 1.405147e+03
         vertex 3.369021e+02 1.335904e+03 1.405582e+03
      endloop
   endfacet
   facet normal 4.510186e-01 -2.247913e-02 -8.922314e-01
      outer loop
         vertex 3.360387e+02 1.335847e+03 1.405147e+03
         vertex 3.357395e+02 1.342833e+03 1.404820e+03
         vertex 3.369021e+02 1.335904e+03 1.405582e+03
      endloop
   endfacet
   facet normal 4.510186e-01 -2.247913e-02 -8.922314e-01
      outer loop
         vertex 3.357395e+02 1.342833e+03 1.404820e+03
         vertex 3.366029e+02 1.342890e+03 1.405255e+03
         vertex 3.369021e+02 1.335904e+03 1.405582e+03
      endloop
   endfacet
   facet normal -9.825852e-01 -3.352597e-02 1.827631e-01
      outer loop
         vertex 3.293073e+02 1.342670e+03 1.407229e+03
         vertex 3.268996e+02 1.341955e+03 1.394153e+03
         vertex 3.296065e+02 1.335684e+03 1.407556e+03
      endloop
   endfacet
   facet normal -9.825852e-01 -3.352597e-02 1.827631e-01
      outer loop
         vertex 3.268996e+02 1.341955e+03 1.394153e+03
         vertex 3.271988e+02 1.334969e+03 1.394480e+03
         vertex 3.296065e+02 1.335684e+03 1.407556e+03
      endloop
   endfacet
   facet normal 4.274769e-02 -9.979914e-01 4.675242e-02
      outer loop
         vertex 3.329724e+02 1.335546e+03 1.401524e+03
         vertex 3.333793e+02 1.335604e+03 1.402401e+03
         vertex 3.296065e+02 1.335684e+03 1.407556e+03
      endloop
   endfacet
   facet normal 4.274769e-02 -9.979914e-01 4.675242e-02
      outer loop
         vertex 3.333793e+02 1.335604e+03 1.402401e+03
         vertex 3.338996e+02 1.335665e+03 1.403215e+03
         vertex 3.296065e+02 1.335684e+03 1.407556e+03
      endloop
   endfacet
   facet normal 4.274769e-02 -9.979914e-01 4.675242e-02
      outer loop
         vertex 3.338996e+02 1.335665e+03 1.403215e+03
         vertex 3.345239e+02 1.335726e+03 1.403953e+03
         vertex 3.296065e+02 1.335684e+03 1.407556e+03
      endloop
   endfacet
   facet normal 4.274769e-02 -9.979914e-01 4.675242e-02
      outer loop
         vertex 3.345239e+02 1.335726e+03 1.403953e+03
         vertex 3.352413e+02 1.335787e+03 1.404601e+03
         vertex 3.296065e+02 1.335684e+03 1.407556e+03
      endloop
   endfacet
   facet normal 4.274769e-02 -9.979914e-01 4.675242e-02
      outer loop
         vertex 3.352413e+02 1.335787e+03 1.404601e+03
         vertex 3.360387e+02 1.335847e+03 1.405147e+03
         vertex 3.296065e+02 1.335684e+03 1.407556e+03
      endloop
   endfacet
   facet normal 4.274769e-02 -9.979914e-01 4.675242e-02
      outer loop
         vertex 3.271988e+02 1.334969e+03 1.394480e+03
         vertex 3.325257e+02 1.335439e+03 1.399647e+03
         vertex 3.296065e+02 1.335684e+03 1.407556e+03
      endloop
   endfacet
   facet normal 4.274769e-02 -9.979914e-01 4.675242e-02
      outer loop
         vertex 3.325257e+02 1.335439e+03 1.399647e+03
         vertex 3.326862e+02 1.335490e+03 1.400600e+03
         vertex 3.296065e+02 1.335684e+03 1.407556e+03
      endloop
   endfacet
   facet normal 4.274769e-02 -9.979914e-01 4.675242e-02
      outer loop
         vertex 3.326862e+02 1.335490e+03 1.400600e+03
         vertex 3.329724e+02 1.335546e+03 1.401524e+03
         vertex 3.296065e+02 1.335684e+03 1.407556e+03
      endloop
   endfacet
   facet normal -9.060629e-01 -5.844284e-02 -4.190876e-01
      outer loop
         vertex 3.457842e+02 1.343134e+03 1.402054e+03
         vertex 3.461919e+02 1.343110e+03 1.401176e+03
         vertex 3.464912e+02 1.336124e+03 1.401503e+03
      endloop
   endfacet
   facet normal -9.540896e-01 -5.466309e-02 -2.944910e-01
      outer loop
         vertex 3.461919e+02 1.343110e+03 1.401176e+03
         vertex 3.467783e+02 1.336093e+03 1.400579e+03
         vertex 3.464912e+02 1.336124e+03 1.401503e+03
      endloop
   endfacet
   facet normal 5.658188e-01 -1.438433e-02 -8.244041e-01
      outer loop
         vertex 3.352413e+02 1.335787e+03 1.404601e+03
         vertex 3.349420e+02 1.342773e+03 1.404274e+03
         vertex 3.360387e+02 1.335847e+03 1.405147e+03
      endloop
   endfacet
   facet normal 5.658188e-01 -1.438433e-02 -8.244041e-01
      outer loop
         vertex 3.349420e+02 1.342773e+03 1.404274e+03
         vertex 3.357395e+02 1.342833e+03 1.404820e+03
         vertex 3.360387e+02 1.335847e+03 1.405147e+03
      endloop
   endfacet
   facet normal -9.540896e-01 -5.466309e-02 -2.944910e-01
      outer loop
         vertex 3.461919e+02 1.343110e+03 1.401176e+03
         vertex 3.464791e+02 1.343079e+03 1.400252e+03
         vertex 3.467783e+02 1.336093e+03 1.400579e+03
      endloop
   endfacet
   facet normal -9.850903e-01 -4.990789e-02 -1.646399e-01
      outer loop
         vertex 3.464791e+02 1.343079e+03 1.400252e+03
         vertex 3.469397e+02 1.336055e+03 1.399625e+03
         vertex 3.467783e+02 1.336093e+03 1.400579e+03
      endloop
   endfacet
   facet normal 6.705213e-01 -6.032895e-03 -7.418657e-01
      outer loop
         vertex 3.345239e+02 1.335726e+03 1.403953e+03
         vertex 3.342247e+02 1.342712e+03 1.403626e+03
         vertex 3.352413e+02 1.335787e+03 1.404601e+03
      endloop
   endfacet
   facet normal 6.705213e-01 -6.032895e-03 -7.418657e-01
      outer loop
         vertex 3.342247e+02 1.342712e+03 1.403626e+03
         vertex 3.349420e+02 1.342773e+03 1.404274e+03
         vertex 3.352413e+02 1.335787e+03 1.404601e+03
      endloop
   endfacet
   facet normal -9.850903e-01 -4.990789e-02 -1.646399e-01
      outer loop
         vertex 3.464791e+02 1.343079e+03 1.400252e+03
         vertex 3.466404e+02 1.343041e+03 1.399297e+03
         vertex 3.469397e+02 1.336055e+03 1.399625e+03
      endloop
   endfacet
   facet normal -9.985121e-01 -4.426209e-02 -3.185065e-02
      outer loop
         vertex 3.466404e+02 1.343041e+03 1.399297e+03
         vertex 3.469725e+02 1.336011e+03 1.398658e+03
         vertex 3.469397e+02 1.336055e+03 1.399625e+03
      endloop
   endfacet
   facet normal 7.632586e-01 2.426209e-03 -6.460886e-01
      outer loop
         vertex 3.338996e+02 1.335665e+03 1.403215e+03
         vertex 3.336003e+02 1.342651e+03 1.402888e+03
         vertex 3.345239e+02 1.335726e+03 1.403953e+03
      endloop
   endfacet
   facet normal 7.632586e-01 2.426209e-03 -6.460886e-01
      outer loop
         vertex 3.336003e+02 1.342651e+03 1.402888e+03
         vertex 3.342247e+02 1.342712e+03 1.403626e+03
         vertex 3.345239e+02 1.335726e+03 1.403953e+03
      endloop
   endfacet
   facet normal -9.985121e-01 -4.426209e-02 -3.185065e-02
      outer loop
         vertex 3.466404e+02 1.343041e+03 1.399297e+03
         vertex 3.466732e+02 1.342997e+03 1.398330e+03
         vertex 3.469725e+02 1.336011e+03 1.398658e+03
      endloop
   endfacet
   facet normal -9.941154e-01 -3.782641e-02 1.015071e-01
      outer loop
         vertex 3.466732e+02 1.342997e+03 1.398330e+03
         vertex 3.468761e+02 1.335962e+03 1.397695e+03
         vertex 3.469725e+02 1.336011e+03 1.398658e+03
      endloop
   endfacet
   facet normal 8.423755e-01 1.084203e-02 -5.387819e-01
      outer loop
         vertex 3.333793e+02 1.335604e+03 1.402401e+03
         vertex 3.330801e+02 1.342590e+03 1.402074e+03
         vertex 3.338996e+02 1.335665e+03 1.403215e+03
      endloop
   endfacet
   facet normal 8.423755e-01 1.084203e-02 -5.387819e-01
      outer loop
         vertex 3.330801e+02 1.342590e+03 1.402074e+03
         vertex 3.336003e+02 1.342651e+03 1.402888e+03
         vertex 3.338996e+02 1.335665e+03 1.403215e+03
      endloop
   endfacet
   facet normal 4.274769e-02 -9.979914e-01 4.675242e-02
      outer loop
         vertex 3.466522e+02 1.335908e+03 1.396754e+03
         vertex 3.498595e+02 1.335742e+03 1.390265e+03
         vertex 3.468761e+02 1.335962e+03 1.397695e+03
      endloop
   endfacet
   facet normal -9.941154e-01 -3.782641e-02 1.015071e-01
      outer loop
         vertex 3.466732e+02 1.342997e+03 1.398330e+03
         vertex 3.465768e+02 1.342948e+03 1.397368e+03
         vertex 3.468761e+02 1.335962e+03 1.397695e+03
      endloop
   endfacet
   facet normal -9.719787e-01 -3.071572e-02 2.330536e-01
      outer loop
         vertex 3.465768e+02 1.342948e+03 1.397368e+03
         vertex 3.466522e+02 1.335908e+03 1.396754e+03
         vertex 3.468761e+02 1.335962e+03 1.397695e+03
      endloop
   endfacet
   facet normal 9.064603e-01 1.906438e-02 -4.218605e-01
      outer loop
         vertex 3.329724e+02 1.335546e+03 1.401524e+03
         vertex 3.326732e+02 1.342532e+03 1.401197e+03
         vertex 3.333793e+02 1.335604e+03 1.402401e+03
      endloop
   endfacet
   facet normal 9.064603e-01 1.906438e-02 -4.218605e-01
      outer loop
         vertex 3.326732e+02 1.342532e+03 1.401197e+03
         vertex 3.330801e+02 1.342590e+03 1.402074e+03
         vertex 3.333793e+02 1.335604e+03 1.402401e+03
      endloop
   endfacet
   facet normal 4.274769e-02 -9.979914e-01 4.675242e-02
      outer loop
         vertex 3.463049e+02 1.335851e+03 1.395852e+03
         vertex 3.498595e+02 1.335742e+03 1.390265e+03
         vertex 3.466522e+02 1.335908e+03 1.396754e+03
      endloop
   endfacet
   facet normal -9.719787e-01 -3.071572e-02 2.330536e-01
      outer loop
         vertex 3.465768e+02 1.342948e+03 1.397368e+03
         vertex 3.463530e+02 1.342894e+03 1.396427e+03
         vertex 3.466522e+02 1.335908e+03 1.396754e+03
      endloop
   endfacet
   facet normal -9.324971e-01 -2.305693e-02 3.604408e-01
      outer loop
         vertex 3.463530e+02 1.342894e+03 1.396427e+03
         vertex 3.463049e+02 1.335851e+03 1.395852e+03
         vertex 3.466522e+02 1.335908e+03 1.396754e+03
      endloop
   endfacet
   facet normal 9.543691e-01 2.694649e-02 -2.974115e-01
      outer loop
         vertex 3.326862e+02 1.335490e+03 1.400600e+03
         vertex 3.323870e+02 1.342476e+03 1.400273e+03
         vertex 3.329724e+02 1.335546e+03 1.401524e+03
      endloop
   endfacet
   facet normal 9.543691e-01 2.694649e-02 -2.974115e-01
      outer loop
         vertex 3.323870e+02 1.342476e+03 1.400273e+03
         vertex 3.326732e+02 1.342532e+03 1.401197e+03
         vertex 3.329724e+02 1.335546e+03 1.401524e+03
      endloop
   endfacet
   facet normal 4.274769e-02 -9.979914e-01 4.675242e-02
      outer loop
         vertex 3.458403e+02 1.335792e+03 1.395005e+03
         vertex 3.498595e+02 1.335742e+03 1.390265e+03
         vertex 3.463049e+02 1.335851e+03 1.395852e+03
      endloop
   endfacet
   facet normal -9.324971e-01 -2.305693e-02 3.604408e-01
      outer loop
         vertex 3.463530e+02 1.342894e+03 1.396427e+03
         vertex 3.460056e+02 1.342837e+03 1.395525e+03
         vertex 3.463049e+02 1.335851e+03 1.395852e+03
      endloop
   endfacet
   facet normal -8.763748e-01 -1.498665e-02 4.813964e-01
      outer loop
         vertex 3.460056e+02 1.342837e+03 1.395525e+03
         vertex 3.458403e+02 1.335792e+03 1.395005e+03
         vertex 3.463049e+02 1.335851e+03 1.395852e+03
      endloop
   endfacet
   facet normal 9.852473e-01 3.434778e-02 -1.676545e-01
      outer loop
         vertex 3.325257e+02 1.335439e+03 1.399647e+03
         vertex 3.322265e+02 1.342425e+03 1.399319e+03
         vertex 3.326862e+02 1.335490e+03 1.400600e+03
      endloop
   endfacet
   facet normal 9.852473e-01 3.434778e-02 -1.676545e-01
      outer loop
         vertex 3.322265e+02 1.342425e+03 1.399319e+03
         vertex 3.323870e+02 1.342476e+03 1.400273e+03
         vertex 3.326862e+02 1.335490e+03 1.400600e+03
      endloop
   endfacet
   facet normal 4.274769e-02 -9.979914e-01 4.675242e-02
      outer loop
         vertex 3.452667e+02 1.335731e+03 1.394227e+03
         vertex 3.498595e+02 1.335742e+03 1.390265e+03
         vertex 3.458403e+02 1.335792e+03 1.395005e+03
      endloop
   endfacet
   facet normal -8.763748e-01 -1.498665e-02 4.813964e-01
      outer loop
         vertex 3.460056e+02 1.342837e+03 1.395525e+03
         vertex 3.455410e+02 1.342778e+03 1.394677e+03
         vertex 3.458403e+02 1.335792e+03 1.395005e+03
      endloop
   endfacet
   facet normal -8.046139e-01 -6.648970e-03 5.937612e-01
      outer loop
         vertex 3.455410e+02 1.342778e+03 1.394677e+03
         vertex 3.452667e+02 1.335731e+03 1.394227e+03
         vertex 3.458403e+02 1.335792e+03 1.395005e+03
      endloop
   endfacet
   facet normal 4.274769e-02 -9.979914e-01 4.675242e-02
      outer loop
         vertex 3.271988e+02 1.334969e+03 1.394480e+03
         vertex 3.324938e+02 1.335392e+03 1.398680e+03
         vertex 3.325257e+02 1.335439e+03 1.399647e+03
      endloop
   endfacet
   facet normal 9.985436e-01 4.113611e-02 -3.490624e-02
      outer loop
         vertex 3.324938e+02 1.335392e+03 1.398680e+03
         vertex 3.321946e+02 1.342378e+03 1.398353e+03
         vertex 3.325257e+02 1.335439e+03 1.399647e+03
      endloop
   endfacet
   facet normal 9.985436e-01 4.113611e-02 -3.490624e-02
      outer loop
         vertex 3.321946e+02 1.342378e+03 1.398353e+03
         vertex 3.322265e+02 1.342425e+03 1.399319e+03
         vertex 3.325257e+02 1.335439e+03 1.399647e+03
      endloop
   endfacet
   facet normal 4.274769e-02 -9.979914e-01 4.675242e-02
      outer loop
         vertex 3.445943e+02 1.335669e+03 1.393532e+03
         vertex 3.498595e+02 1.335742e+03 1.390265e+03
         vertex 3.452667e+02 1.335731e+03 1.394227e+03
      endloop
   endfacet
   facet normal -8.046139e-01 -6.648970e-03 5.937612e-01
      outer loop
         vertex 3.455410e+02 1.342778e+03 1.394677e+03
         vertex 3.449674e+02 1.342717e+03 1.393899e+03
         vertex 3.452667e+02 1.335731e+03 1.394227e+03
      endloop
   endfacet
   facet normal -7.184944e-01 1.807381e-03 6.955304e-01
      outer loop
         vertex 3.449674e+02 1.342717e+03 1.393899e+03
         vertex 3.445943e+02 1.335669e+03 1.393532e+03
         vertex 3.452667e+02 1.335731e+03 1.394227e+03
      endloop
   endfacet
   facet normal 4.274769e-02 -9.979914e-01 4.675242e-02
      outer loop
         vertex 3.271988e+02 1.334969e+03 1.394480e+03
         vertex 3.325911e+02 1.335351e+03 1.397717e+03
         vertex 3.324938e+02 1.335392e+03 1.398680e+03
      endloop
   endfacet
   facet normal 9.940210e-01 4.719037e-02 9.846518e-02
      outer loop
         vertex 3.325911e+02 1.335351e+03 1.397717e+03
         vertex 3.322919e+02 1.342337e+03 1.397390e+03
         vertex 3.324938e+02 1.335392e+03 1.398680e+03
      endloop
   endfacet
   facet normal 9.940210e-01 4.719037e-02 9.846518e-02
      outer loop
         vertex 3.322919e+02 1.342337e+03 1.397390e+03
         vertex 3.321946e+02 1.342378e+03 1.398353e+03
         vertex 3.324938e+02 1.335392e+03 1.398680e+03
      endloop
   endfacet
   facet normal 4.274769e-02 -9.979914e-01 4.675242e-02
      outer loop
         vertex 3.438352e+02 1.335609e+03 1.392934e+03
         vertex 3.498595e+02 1.335742e+03 1.390265e+03
         vertex 3.445943e+02 1.335669e+03 1.393532e+03
      endloop
   endfacet
   facet normal -7.184944e-01 1.807381e-03 6.955304e-01
      outer loop
         vertex 3.449674e+02 1.342717e+03 1.393899e+03
         vertex 3.442951e+02 1.342655e+03 1.393205e+03
         vertex 3.445943e+02 1.335669e+03 1.393532e+03
      endloop
   endfacet
   facet normal -6.195537e-01 1.023145e-02 7.848876e-01
      outer loop
         vertex 3.442951e+02 1.342655e+03 1.393205e+03
         vertex 3.438352e+02 1.335609e+03 1.392934e+03
         vertex 3.445943e+02 1.335669e+03 1.393532e+03
      endloop
   endfacet
   facet normal 4.274769e-02 -9.979914e-01 4.675242e-02
      outer loop
         vertex 3.271988e+02 1.334969e+03 1.394480e+03
         vertex 3.328159e+02 1.335317e+03 1.396776e+03
         vertex 3.325911e+02 1.335351e+03 1.397717e+03
      endloop
   endfacet
   facet normal 9.717600e-01 5.240251e-02 2.300791e-01
      outer loop
         vertex 3.328159e+02 1.335317e+03 1.396776e+03
         vertex 3.325166e+02 1.342303e+03 1.396448e+03
         vertex 3.325911e+02 1.335351e+03 1.397717e+03
      endloop
   endfacet
   facet normal 9.717600e-01 5.240251e-02 2.300791e-01
      outer loop
         vertex 3.325166e+02 1.342303e+03 1.396448e+03
         vertex 3.322919e+02 1.342337e+03 1.397390e+03
         vertex 3.325911e+02 1.335351e+03 1.397717e+03
      endloop
   endfacet
   facet normal 4.274769e-02 -9.979914e-01 4.675242e-02
      outer loop
         vertex 3.430029e+02 1.335550e+03 1.392442e+03
         vertex 3.498595e+02 1.335742e+03 1.390265e+03
         vertex 3.438352e+02 1.335609e+03 1.392934e+03
      endloop
   endfacet
   facet normal -6.195537e-01 1.023145e-02 7.848876e-01
      outer loop
         vertex 3.442951e+02 1.342655e+03 1.393205e+03
         vertex 3.435360e+02 1.342595e+03 1.392607e+03
         vertex 3.438352e+02 1.335609e+03 1.392934e+03
      endloop
   endfacet
   facet normal -5.095564e-01 1.847299e-02 8.602389e-01
      outer loop
         vertex 3.435360e+02 1.342595e+03 1.392607e+03
         vertex 3.430029e+02 1.335550e+03 1.392442e+03
         vertex 3.438352e+02 1.335609e+03 1.392934e+03
      endloop
   endfacet
   facet normal 4.274769e-02 -9.979914e-01 4.675242e-02
      outer loop
         vertex 3.271988e+02 1.334969e+03 1.394480e+03
         vertex 3.331641e+02 1.335289e+03 1.395872e+03
         vertex 3.328159e+02 1.335317e+03 1.396776e+03
      endloop
   endfacet
   facet normal 9.321578e-01 5.667955e-02 3.575880e-01
      outer loop
         vertex 3.331641e+02 1.335289e+03 1.395872e+03
         vertex 3.328648e+02 1.342275e+03 1.395545e+03
         vertex 3.328159e+02 1.335317e+03 1.396776e+03
      endloop
   endfacet
   facet normal 9.321578e-01 5.667955e-02 3.575880e-01
      outer loop
         vertex 3.328648e+02 1.342275e+03 1.395545e+03
         vertex 3.325166e+02 1.342303e+03 1.396448e+03
         vertex 3.328159e+02 1.335317e+03 1.396776e+03
      endloop
   endfacet
   facet normal 3.346904e-01 -2.978669e-02 -9.418572e-01
      outer loop
         vertex 3.373253e+02 1.334997e+03 1.385835e+03
         vertex 3.495603e+02 1.342728e+03 1.389938e+03
         vertex 3.498595e+02 1.335742e+03 1.390265e+03
      endloop
   endfacet
   facet normal 4.274769e-02 -9.979914e-01 4.675242e-02
      outer loop
         vertex 3.430029e+02 1.335550e+03 1.392442e+03
         vertex 3.373253e+02 1.334997e+03 1.385835e+03
         vertex 3.498595e+02 1.335742e+03 1.390265e+03
      endloop
   endfacet
   facet normal 4.274769e-02 -9.979914e-01 4.675242e-02
      outer loop
         vertex 3.421123e+02 1.335494e+03 1.392066e+03
         vertex 3.373253e+02 1.334997e+03 1.385835e+03
         vertex 3.430029e+02 1.335550e+03 1.392442e+03
      endloop
   endfacet
   facet normal -5.095564e-01 1.847299e-02 8.602389e-01
      outer loop
         vertex 3.435360e+02 1.342595e+03 1.392607e+03
         vertex 3.427037e+02 1.342536e+03 1.392115e+03
         vertex 3.430029e+02 1.335550e+03 1.392442e+03
      endloop
   endfacet
   facet normal -3.904669e-01 2.638483e-02 9.202388e-01
      outer loop
         vertex 3.427037e+02 1.342536e+03 1.392115e+03
         vertex 3.421123e+02 1.335494e+03 1.392066e+03
         vertex 3.430029e+02 1.335550e+03 1.392442e+03
      endloop
   endfacet
   facet normal 4.274769e-02 -9.979914e-01 4.675242e-02
      outer loop
         vertex 3.271988e+02 1.334969e+03 1.394480e+03
         vertex 3.336295e+02 1.335269e+03 1.395023e+03
         vertex 3.331641e+02 1.335289e+03 1.395872e+03
      endloop
   endfacet
   facet normal 8.759216e-01 5.994511e-02 4.787149e-01
      outer loop
         vertex 3.336295e+02 1.335269e+03 1.395023e+03
         vertex 3.333303e+02 1.342255e+03 1.394696e+03
         vertex 3.331641e+02 1.335289e+03 1.395872e+03
      endloop
   endfacet
   facet normal 8.759216e-01 5.994511e-02 4.787149e-01
      outer loop
         vertex 3.333303e+02 1.342255e+03 1.394696e+03
         vertex 3.328648e+02 1.342275e+03 1.395545e+03
         vertex 3.331641e+02 1.335289e+03 1.395872e+03
      endloop
   endfacet
   facet normal 4.274769e-02 -9.979914e-01 4.675242e-02
      outer loop
         vertex 3.411792e+02 1.335442e+03 1.391812e+03
         vertex 3.373253e+02 1.334997e+03 1.385835e+03
         vertex 3.421123e+02 1.335494e+03 1.392066e+03
      endloop
   endfacet
   facet normal -3.904669e-01 2.638483e-02 9.202388e-01
      outer loop
         vertex 3.427037e+02 1.342536e+03 1.392115e+03
         vertex 3.418130e+02 1.342480e+03 1.391738e+03
         vertex 3.421123e+02 1.335494e+03 1.392066e+03
      endloop
   endfacet
   facet normal -2.644088e-01 3.382587e-02 9.638173e-01
      outer loop
         vertex 3.418130e+02 1.342480e+03 1.391738e+03
         vertex 3.411792e+02 1.335442e+03 1.391812e+03
         vertex 3.421123e+02 1.335494e+03 1.392066e+03
      endloop
   endfacet
   facet normal 4.274769e-02 -9.979914e-01 4.675242e-02
      outer loop
         vertex 3.271988e+02 1.334969e+03 1.394480e+03
         vertex 3.342038e+02 1.335258e+03 1.394243e+03
         vertex 3.336295e+02 1.335269e+03 1.395023e+03
      endloop
   endfacet
   facet normal 8.040542e-01 6.214097e-02 5.912997e-01
      outer loop
         vertex 3.342038e+02 1.335258e+03 1.394243e+03
         vertex 3.339046e+02 1.342244e+03 1.393916e+03
         vertex 3.336295e+02 1.335269e+03 1.395023e+03
      endloop
   endfacet
   facet normal 8.040542e-01 6.214097e-02 5.912997e-01
      outer loop
         vertex 3.339046e+02 1.342244e+03 1.393916e+03
         vertex 3.333303e+02 1.342255e+03 1.394696e+03
         vertex 3.336295e+02 1.335269e+03 1.395023e+03
      endloop
   endfacet
   facet normal 4.274769e-02 -9.979914e-01 4.675242e-02
      outer loop
         vertex 3.402202e+02 1.335395e+03 1.391684e+03
         vertex 3.373253e+02 1.334997e+03 1.385835e+03
         vertex 3.411792e+02 1.335442e+03 1.391812e+03
      endloop
   endfacet
   facet normal -2.644088e-01 3.382587e-02 9.638173e-01
      outer loop
         vertex 3.418130e+02 1.342480e+03 1.391738e+03
         vertex 3.408799e+02 1.342428e+03 1.391484e+03
         vertex 3.411792e+02 1.335442e+03 1.391812e+03
      endloop
   endfacet
   facet normal -1.336325e-01 4.066327e-02 9.901964e-01
      outer loop
         vertex 3.408799e+02 1.342428e+03 1.391484e+03
         vertex 3.402202e+02 1.335395e+03 1.391684e+03
         vertex 3.411792e+02 1.335442e+03 1.391812e+03
      endloop
   endfacet
   facet normal 4.274769e-02 -9.979914e-01 4.675242e-02
      outer loop
         vertex 3.271988e+02 1.334969e+03 1.394480e+03
         vertex 3.348768e+02 1.335254e+03 1.393547e+03
         vertex 3.342038e+02 1.335258e+03 1.394243e+03
      endloop
   endfacet
   facet normal 7.178385e-01 6.322791e-02 6.933327e-01
      outer loop
         vertex 3.348768e+02 1.335254e+03 1.393547e+03
         vertex 3.345776e+02 1.342240e+03 1.393220e+03
         vertex 3.342038e+02 1.335258e+03 1.394243e+03
      endloop
   endfacet
   facet normal 7.178385e-01 6.322791e-02 6.933327e-01
      outer loop
         vertex 3.345776e+02 1.342240e+03 1.393220e+03
         vertex 3.339046e+02 1.342244e+03 1.393916e+03
         vertex 3.342038e+02 1.335258e+03 1.394243e+03
      endloop
   endfacet
   facet normal 4.274769e-02 -9.979914e-01 4.675242e-02
      outer loop
         vertex 3.392526e+02 1.335354e+03 1.391686e+03
         vertex 3.373253e+02 1.334997e+03 1.385835e+03
         vertex 3.402202e+02 1.335395e+03 1.391684e+03
      endloop
   endfacet
   facet normal -1.336325e-01 4.066327e-02 9.901964e-01
      outer loop
         vertex 3.408799e+02 1.342428e+03 1.391484e+03
         vertex 3.399210e+02 1.342381e+03 1.391357e+03
         vertex 3.402202e+02 1.335395e+03 1.391684e+03
      endloop
   endfacet
   facet normal -4.719212e-04 4.677502e-02 9.989053e-01
      outer loop
         vertex 3.399210e+02 1.342381e+03 1.391357e+03
         vertex 3.392526e+02 1.335354e+03 1.391686e+03
         vertex 3.402202e+02 1.335395e+03 1.391684e+03
      endloop
   endfacet
   facet normal 4.274769e-02 -9.979914e-01 4.675242e-02
      outer loop
         vertex 3.271988e+02 1.334969e+03 1.394480e+03
         vertex 3.356365e+02 1.335258e+03 1.392946e+03
         vertex 3.348768e+02 1.335254e+03 1.393547e+03
      endloop
   endfacet
   facet normal 6.188132e-01 6.318656e-02 7.829928e-01
      outer loop
         vertex 3.356365e+02 1.335258e+03 1.392946e+03
         vertex 3.353373e+02 1.342244e+03 1.392619e+03
         vertex 3.348768e+02 1.335254e+03 1.393547e+03
      endloop
   endfacet
   facet normal 6.188132e-01 6.318656e-02 7.829928e-01
      outer loop
         vertex 3.353373e+02 1.342244e+03 1.392619e+03
         vertex 3.345776e+02 1.342240e+03 1.393220e+03
         vertex 3.348768e+02 1.335254e+03 1.393547e+03
      endloop
   endfacet
   facet normal 4.274769e-02 -9.979914e-01 4.675242e-02
      outer loop
         vertex 3.382936e+02 1.335319e+03 1.391816e+03
         vertex 3.373253e+02 1.334997e+03 1.385835e+03
         vertex 3.392526e+02 1.335354e+03 1.391686e+03
      endloop
   endfacet
   facet normal -4.719212e-04 4.677502e-02 9.989053e-01
      outer loop
         vertex 3.399210e+02 1.342381e+03 1.391357e+03
         vertex 3.389534e+02 1.342340e+03 1.391358e+03
         vertex 3.392526e+02 1.335354e+03 1.391686e+03
      endloop
   endfacet
   facet normal 1.326974e-01 5.205208e-02 9.897889e-01
      outer loop
         vertex 3.389534e+02 1.342340e+03 1.391358e+03
         vertex 3.382936e+02 1.335319e+03 1.391816e+03
         vertex 3.392526e+02 1.335354e+03 1.391686e+03
      endloop
   endfacet
   facet normal 4.274769e-02 -9.979914e-01 4.675242e-02
      outer loop
         vertex 3.373253e+02 1.334997e+03 1.385835e+03
         vertex 3.364692e+02 1.335271e+03 1.392452e+03
         vertex 3.356365e+02 1.335258e+03 1.392946e+03
      endloop
   endfacet
   facet normal 4.274769e-02 -9.979914e-01 4.675242e-02
      outer loop
         vertex 3.271988e+02 1.334969e+03 1.394480e+03
         vertex 3.373253e+02 1.334997e+03 1.385835e+03
         vertex 3.356365e+02 1.335258e+03 1.392946e+03
      endloop
   endfacet
   facet normal 5.087450e-01 6.201764e-02 8.586806e-01
      outer loop
         vertex 3.364692e+02 1.335271e+03 1.392452e+03
         vertex 3.361700e+02 1.342257e+03 1.392125e+03
         vertex 3.356365e+02 1.335258e+03 1.392946e+03
      endloop
   endfacet
   facet normal 5.087450e-01 6.201764e-02 8.586806e-01
      outer loop
         vertex 3.361700e+02 1.342257e+03 1.392125e+03
         vertex 3.353373e+02 1.342244e+03 1.392619e+03
         vertex 3.356365e+02 1.335258e+03 1.392946e+03
      endloop
   endfacet
   facet normal 4.274769e-02 -9.979914e-01 4.675242e-02
      outer loop
         vertex 3.373603e+02 1.335291e+03 1.392073e+03
         vertex 3.373253e+02 1.334997e+03 1.385835e+03
         vertex 3.382936e+02 1.335319e+03 1.391816e+03
      endloop
   endfacet
   facet normal 1.326974e-01 5.205208e-02 9.897889e-01
      outer loop
         vertex 3.389534e+02 1.342340e+03 1.391358e+03
         vertex 3.379944e+02 1.342305e+03 1.391489e+03
         vertex 3.382936e+02 1.335319e+03 1.391816e+03
      endloop
   endfacet
   facet normal 2.634993e-01 5.640029e-02 9.630094e-01
      outer loop
         vertex 3.379944e+02 1.342305e+03 1.391489e+03
         vertex 3.373603e+02 1.335291e+03 1.392073e+03
         vertex 3.382936e+02 1.335319e+03 1.391816e+03
      endloop
   endfacet
   facet normal 4.274769e-02 -9.979914e-01 4.675242e-02
      outer loop
         vertex 3.373253e+02 1.334997e+03 1.385835e+03
         vertex 3.373603e+02 1.335291e+03 1.392073e+03
         vertex 3.364692e+02 1.335271e+03 1.392452e+03
      endloop
   endfacet
   facet normal 3.895977e-01 5.974200e-02 9.190455e-01
      outer loop
         vertex 3.373603e+02 1.335291e+03 1.392073e+03
         vertex 3.370610e+02 1.342277e+03 1.391746e+03
         vertex 3.364692e+02 1.335271e+03 1.392452e+03
      endloop
   endfacet
   facet normal 3.895977e-01 5.974200e-02 9.190455e-01
      outer loop
         vertex 3.370610e+02 1.342277e+03 1.391746e+03
         vertex 3.361700e+02 1.342257e+03 1.392125e+03
         vertex 3.364692e+02 1.335271e+03 1.392452e+03
      endloop
   endfacet
   facet normal 2.634993e-01 5.640029e-02 9.630094e-01
      outer loop
         vertex 3.379944e+02 1.342305e+03 1.391489e+03
         vertex 3.370610e+02 1.342277e+03 1.391746e+03
         vertex 3.373603e+02 1.335291e+03 1.392073e+03
      endloop
   endfacet
   facet normal -6.478948e-01 -6.331266e-02 -7.590941e-01
      outer loop
         vertex 3.268996e+02 1.341955e+03 1.394153e+03
         vertex 3.370261e+02 1.341983e+03 1.385507e+03
         vertex 3.271988e+02 1.334969e+03 1.394480e+03
      endloop
   endfacet
   facet normal -6.478948e-01 -6.331266e-02 -7.590941e-01
      outer loop
         vertex 3.370261e+02 1.341983e+03 1.385507e+03
         vertex 3.373253e+02 1.334997e+03 1.385835e+03
         vertex 3.271988e+02 1.334969e+03 1.394480e+03
      endloop
   endfacet
   facet normal 3.346904e-01 -2.978669e-02 -9.418572e-01
      outer loop
         vertex 3.370261e+02 1.341983e+03 1.385507e+03
         vertex 3.495603e+02 1.342728e+03 1.389938e+03
         vertex 3.373253e+02 1.334997e+03 1.385835e+03
      endloop
   endfacet
   facet normal -4.274769e-02 9.979914e-01 -4.675242e-02
      outer loop
         vertex 3.519680e+02 1.343443e+03 1.403014e+03
         vertex 3.446381e+02 1.343157e+03 1.403610e+03
         vertex 3.418415e+02 1.343415e+03 1.411659e+03
      endloop
   endfacet
   facet normal -4.274769e-02 9.979914e-01 -4.675242e-02
      outer loop
         vertex 3.446381e+02 1.343157e+03 1.403610e+03
         vertex 3.439202e+02 1.343157e+03 1.404260e+03
         vertex 3.418415e+02 1.343415e+03 1.411659e+03
      endloop
   endfacet
   facet normal -4.274769e-02 9.979914e-01 -4.675242e-02
      outer loop
         vertex 3.439202e+02 1.343157e+03 1.404260e+03
         vertex 3.431222e+02 1.343149e+03 1.404809e+03
         vertex 3.418415e+02 1.343415e+03 1.411659e+03
      endloop
   endfacet
   facet normal -4.274769e-02 9.979914e-01 -4.675242e-02
      outer loop
         vertex 3.431222e+02 1.343149e+03 1.404809e+03
         vertex 3.422584e+02 1.343132e+03 1.405247e+03
         vertex 3.418415e+02 1.343415e+03 1.411659e+03
      endloop
   endfacet
   facet normal -4.274769e-02 9.979914e-01 -4.675242e-02
      outer loop
         vertex 3.422584e+02 1.343132e+03 1.405247e+03
         vertex 3.413442e+02 1.343108e+03 1.405565e+03
         vertex 3.418415e+02 1.343415e+03 1.411659e+03
      endloop
   endfacet
   facet normal -4.274769e-02 9.979914e-01 -4.675242e-02
      outer loop
         vertex 3.413442e+02 1.343108e+03 1.405565e+03
         vertex 3.403959e+02 1.343076e+03 1.405759e+03
         vertex 3.418415e+02 1.343415e+03 1.411659e+03
      endloop
   endfacet
   facet normal -4.274769e-02 9.979914e-01 -4.675242e-02
      outer loop
         vertex 3.403959e+02 1.343076e+03 1.405759e+03
         vertex 3.394304e+02 1.343038e+03 1.405825e+03
         vertex 3.418415e+02 1.343415e+03 1.411659e+03
      endloop
   endfacet
   facet normal -4.274769e-02 9.979914e-01 -4.675242e-02
      outer loop
         vertex 3.394304e+02 1.343038e+03 1.405825e+03
         vertex 3.384650e+02 1.342994e+03 1.405762e+03
         vertex 3.418415e+02 1.343415e+03 1.411659e+03
      endloop
   endfacet
   facet normal -4.274769e-02 9.979914e-01 -4.675242e-02
      outer loop
         vertex 3.384650e+02 1.342994e+03 1.405762e+03
         vertex 3.375168e+02 1.342944e+03 1.405571e+03
         vertex 3.418415e+02 1.343415e+03 1.411659e+03
      endloop
   endfacet
   facet normal -4.274769e-02 9.979914e-01 -4.675242e-02
      outer loop
         vertex 3.375168e+02 1.342944e+03 1.405571e+03
         vertex 3.293073e+02 1.342670e+03 1.407229e+03
         vertex 3.418415e+02 1.343415e+03 1.411659e+03
      endloop
   endfacet
   facet normal -4.274769e-02 9.979914e-01 -4.675242e-02
      outer loop
         vertex 3.461919e+02 1.343110e+03 1.401176e+03
         vertex 3.457842e+02 1.343134e+03 1.402054e+03
         vertex 3.519680e+02 1.343443e+03 1.403014e+03
      endloop
   endfacet
   facet normal -4.274769e-02 9.979914e-01 -4.675242e-02
      outer loop
         vertex 3.457842e+02 1.343134e+03 1.402054e+03
         vertex 3.452632e+02 1.343150e+03 1.402870e+03
         vertex 3.519680e+02 1.343443e+03 1.403014e+03
      endloop
   endfacet
   facet normal -4.274769e-02 9.979914e-01 -4.675242e-02
      outer loop
         vertex 3.452632e+02 1.343150e+03 1.402870e+03
         vertex 3.446381e+02 1.343157e+03 1.403610e+03
         vertex 3.519680e+02 1.343443e+03 1.403014e+03
      endloop
   endfacet
   facet normal -4.274769e-02 9.979914e-01 -4.675242e-02
      outer loop
         vertex 3.466732e+02 1.342997e+03 1.398330e+03
         vertex 3.466404e+02 1.343041e+03 1.399297e+03
         vertex 3.519680e+02 1.343443e+03 1.403014e+03
      endloop
   endfacet
   facet normal -4.274769e-02 9.979914e-01 -4.675242e-02
      outer loop
         vertex 3.466404e+02 1.343041e+03 1.399297e+03
         vertex 3.464791e+02 1.343079e+03 1.400252e+03
         vertex 3.519680e+02 1.343443e+03 1.403014e+03
      endloop
   endfacet
   facet normal -4.274769e-02 9.979914e-01 -4.675242e-02
      outer loop
         vertex 3.464791e+02 1.343079e+03 1.400252e+03
         vertex 3.461919e+02 1.343110e+03 1.401176e+03
         vertex 3.519680e+02 1.343443e+03 1.403014e+03
      endloop
   endfacet
   facet normal -4.274769e-02 9.979914e-01 -4.675242e-02
      outer loop
         vertex 3.495603e+02 1.342728e+03 1.389938e+03
         vertex 3.463530e+02 1.342894e+03 1.396427e+03
         vertex 3.519680e+02 1.343443e+03 1.403014e+03
      endloop
   endfacet
   facet normal -4.274769e-02 9.979914e-01 -4.675242e-02
      outer loop
         vertex 3.463530e+02 1.342894e+03 1.396427e+03
         vertex 3.465768e+02 1.342948e+03 1.397368e+03
         vertex 3.519680e+02 1.343443e+03 1.403014e+03
      endloop
   endfacet
   facet normal -4.274769e-02 9.979914e-01 -4.675242e-02
      outer loop
         vertex 3.465768e+02 1.342948e+03 1.397368e+03
         vertex 3.466732e+02 1.342997e+03 1.398330e+03
         vertex 3.519680e+02 1.343443e+03 1.403014e+03
      endloop
   endfacet
   facet normal -4.274769e-02 9.979914e-01 -4.675242e-02
      outer loop
         vertex 3.366029e+02 1.342890e+03 1.405255e+03
         vertex 3.293073e+02 1.342670e+03 1.407229e+03
         vertex 3.375168e+02 1.342944e+03 1.405571e+03
      endloop
   endfacet
   facet normal -4.274769e-02 9.979914e-01 -4.675242e-02
      outer loop
         vertex 3.357395e+02 1.342833e+03 1.404820e+03
         vertex 3.293073e+02 1.342670e+03 1.407229e+03
         vertex 3.366029e+02 1.342890e+03 1.405255e+03
      endloop
   endfacet
   facet normal -4.274769e-02 9.979914e-01 -4.675242e-02
      outer loop
         vertex 3.326732e+02 1.342532e+03 1.401197e+03
         vertex 3.323870e+02 1.342476e+03 1.400273e+03
         vertex 3.293073e+02 1.342670e+03 1.407229e+03
      endloop
   endfacet
   facet normal -4.274769e-02 9.979914e-01 -4.675242e-02
      outer loop
         vertex 3.323870e+02 1.342476e+03 1.400273e+03
         vertex 3.268996e+02 1.341955e+03 1.394153e+03
         vertex 3.293073e+02 1.342670e+03 1.407229e+03
      endloop
   endfacet
   facet normal -4.274769e-02 9.979914e-01 -4.675242e-02
      outer loop
         vertex 3.357395e+02 1.342833e+03 1.404820e+03
         vertex 3.349420e+02 1.342773e+03 1.404274e+03
         vertex 3.293073e+02 1.342670e+03 1.407229e+03
      endloop
   endfacet
   facet normal -4.274769e-02 9.979914e-01 -4.675242e-02
      outer loop
         vertex 3.349420e+02 1.342773e+03 1.404274e+03
         vertex 3.342247e+02 1.342712e+03 1.403626e+03
         vertex 3.293073e+02 1.342670e+03 1.407229e+03
      endloop
   endfacet
   facet normal -4.274769e-02 9.979914e-01 -4.675242e-02
      outer loop
         vertex 3.342247e+02 1.342712e+03 1.403626e+03
         vertex 3.336003e+02 1.342651e+03 1.402888e+03
         vertex 3.293073e+02 1.342670e+03 1.407229e+03
      endloop
   endfacet
   facet normal -4.274769e-02 9.979914e-01 -4.675242e-02
      outer loop
         vertex 3.336003e+02 1.342651e+03 1.402888e+03
         vertex 3.330801e+02 1.342590e+03 1.402074e+03
         vertex 3.293073e+02 1.342670e+03 1.407229e+03
      endloop
   endfacet
   facet normal -4.274769e-02 9.979914e-01 -4.675242e-02
      outer loop
         vertex 3.330801e+02 1.342590e+03 1.402074e+03
         vertex 3.326732e+02 1.342532e+03 1.401197e+03
         vertex 3.293073e+02 1.342670e+03 1.407229e+03
      endloop
   endfacet
   facet normal -4.274769e-02 9.979914e-01 -4.675242e-02
      outer loop
         vertex 3.495603e+02 1.342728e+03 1.389938e+03
         vertex 3.460056e+02 1.342837e+03 1.395525e+03
         vertex 3.463530e+02 1.342894e+03 1.396427e+03
      endloop
   endfacet
   facet normal -4.274769e-02 9.979914e-01 -4.675242e-02
      outer loop
         vertex 3.495603e+02 1.342728e+03 1.389938e+03
         vertex 3.455410e+02 1.342778e+03 1.394677e+03
         vertex 3.460056e+02 1.342837e+03 1.395525e+03
      endloop
   endfacet
   facet normal -4.274769e-02 9.979914e-01 -4.675242e-02
      outer loop
         vertex 3.322265e+02 1.342425e+03 1.399319e+03
         vertex 3.268996e+02 1.341955e+03 1.394153e+03
         vertex 3.323870e+02 1.342476e+03 1.400273e+03
      endloop
   endfacet
   facet normal -4.274769e-02 9.979914e-01 -4.675242e-02
      outer loop
         vertex 3.495603e+02 1.342728e+03 1.389938e+03
         vertex 3.449674e+02 1.342717e+03 1.393899e+03
         vertex 3.455410e+02 1.342778e+03 1.394677e+03
      endloop
   endfacet
   facet normal -4.274769e-02 9.979914e-01 -4.675242e-02
      outer loop
         vertex 3.321946e+02 1.342378e+03 1.398353e+03
         vertex 3.268996e+02 1.341955e+03 1.394153e+03
         vertex 3.322265e+02 1.342425e+03 1.399319e+03
      endloop
   endfacet
   facet normal -4.274769e-02 9.979914e-01 -4.675242e-02
      outer loop
         vertex 3.495603e+02 1.342728e+03 1.389938e+03
         vertex 3.442951e+02 1.342655e+03 1.393205e+03
         vertex 3.449674e+02 1.342717e+03 1.393899e+03
      endloop
   endfacet
   facet normal -4.274769e-02 9.979914e-01 -4.675242e-02
      outer loop
         vertex 3.322919e+02 1.342337e+03 1.397390e+03
         vertex 3.268996e+02 1.341955e+03 1.394153e+03
         vertex 3.321946e+02 1.342378e+03 1.398353e+03
      endloop
   endfacet
   facet normal -4.274769e-02 9.979914e-01 -4.675242e-02
      outer loop
         vertex 3.495603e+02 1.342728e+03 1.389938e+03
         vertex 3.435360e+02 1.342595e+03 1.392607e+03
         vertex 3.442951e+02 1.342655e+03 1.393205e+03
      endloop
   endfacet
   facet normal -4.274769e-02 9.979914e-01 -4.675242e-02
      outer loop
         vertex 3.325166e+02 1.342303e+03 1.396448e+03
         vertex 3.268996e+02 1.341955e+03 1.394153e+03
         vertex 3.322919e+02 1.342337e+03 1.397390e+03
      endloop
   endfacet
   facet normal -4.274769e-02 9.979914e-01 -4.675242e-02
      outer loop
         vertex 3.495603e+02 1.342728e+03 1.389938e+03
         vertex 3.427037e+02 1.342536e+03 1.392115e+03
         vertex 3.435360e+02 1.342595e+03 1.392607e+03
      endloop
   endfacet
   facet normal -4.274769e-02 9.979914e-01 -4.675242e-02
      outer loop
         vertex 3.328648e+02 1.342275e+03 1.395545e+03
         vertex 3.268996e+02 1.341955e+03 1.394153e+03
         vertex 3.325166e+02 1.342303e+03 1.396448e+03
      endloop
   endfacet
   facet normal -4.274769e-02 9.979914e-01 -4.675242e-02
      outer loop
         vertex 3.370261e+02 1.341983e+03 1.385507e+03
         vertex 3.418130e+02 1.342480e+03 1.391738e+03
         vertex 3.495603e+02 1.342728e+03 1.389938e+03
      endloop
   endfacet
   facet normal -4.274769e-02 9.979914e-01 -4.675242e-02
      outer loop
         vertex 3.418130e+02 1.342480e+03 1.391738e+03
         vertex 3.427037e+02 1.342536e+03 1.392115e+03
         vertex 3.495603e+02 1.342728e+03 1.389938e+03
      endloop
   endfacet
   facet normal -4.274769e-02 9.979914e-01 -4.675242e-02
      outer loop
         vertex 3.333303e+02 1.342255e+03 1.394696e+03
         vertex 3.268996e+02 1.341955e+03 1.394153e+03
         vertex 3.328648e+02 1.342275e+03 1.395545e+03
      endloop
   endfacet
   facet normal -4.274769e-02 9.979914e-01 -4.675242e-02
      outer loop
         vertex 3.370261e+02 1.341983e+03 1.385507e+03
         vertex 3.408799e+02 1.342428e+03 1.391484e+03
         vertex 3.418130e+02 1.342480e+03 1.391738e+03
      endloop
   endfacet
   facet normal -4.274769e-02 9.979914e-01 -4.675242e-02
      outer loop
         vertex 3.339046e+02 1.342244e+03 1.393916e+03
         vertex 3.268996e+02 1.341955e+03 1.394153e+03
         vertex 3.333303e+02 1.342255e+03 1.394696e+03
      endloop
   endfacet
   facet normal -4.274769e-02 9.979914e-01 -4.675242e-02
      outer loop
         vertex 3.370261e+02 1.341983e+03 1.385507e+03
         vertex 3.399210e+02 1.342381e+03 1.391357e+03
         vertex 3.408799e+02 1.342428e+03 1.391484e+03
      endloop
   endfacet
   facet normal -4.274769e-02 9.979914e-01 -4.675242e-02
      outer loop
         vertex 3.345776e+02 1.342240e+03 1.393220e+03
         vertex 3.268996e+02 1.341955e+03 1.394153e+03
         vertex 3.339046e+02 1.342244e+03 1.393916e+03
      endloop
   endfacet
   facet normal -4.274769e-02 9.979914e-01 -4.675242e-02
      outer loop
         vertex 3.370261e+02 1.341983e+03 1.385507e+03
         vertex 3.389534e+02 1.342340e+03 1.391358e+03
         vertex 3.399210e+02 1.342381e+03 1.391357e+03
      endloop
   endfacet
   facet normal -4.274769e-02 9.979914e-01 -4.675242e-02
      outer loop
         vertex 3.370261e+02 1.341983e+03 1.385507e+03
         vertex 3.268996e+02 1.341955e+03 1.394153e+03
         vertex 3.345776e+02 1.342240e+03 1.393220e+03
      endloop
   endfacet
   facet normal -4.274769e-02 9.979914e-01 -4.675242e-02
      outer loop
         vertex 3.353373e+02 1.342244e+03 1.392619e+03
         vertex 3.370261e+02 1.341983e+03 1.385507e+03
         vertex 3.345776e+02 1.342240e+03 1.393220e+03
      endloop
   endfacet
   facet normal -4.274769e-02 9.979914e-01 -4.675242e-02
      outer loop
         vertex 3.370261e+02 1.341983e+03 1.385507e+03
         vertex 3.379944e+02 1.342305e+03 1.391489e+03
         vertex 3.389534e+02 1.342340e+03 1.391358e+03
      endloop
   endfacet
   facet normal -4.274769e-02 9.979914e-01 -4.675242e-02
      outer loop
         vertex 3.361700e+02 1.342257e+03 1.392125e+03
         vertex 3.370261e+02 1.341983e+03 1.385507e+03
         vertex 3.353373e+02 1.342244e+03 1.392619e+03
      endloop
   endfacet
   facet normal -4.274769e-02 9.979914e-01 -4.675242e-02
      outer loop
         vertex 3.370261e+02 1.341983e+03 1.385507e+03
         vertex 3.370610e+02 1.342277e+03 1.391746e+03
         vertex 3.379944e+02 1.342305e+03 1.391489e+03
      endloop
   endfacet
   facet normal -4.274769e-02 9.979914e-01 -4.675242e-02
      outer loop
         vertex 3.370610e+02 1.342277e+03 1.391746e+03
         vertex 3.370261e+02 1.341983e+03 1.385507e+03
         vertex 3.361700e+02 1.342257e+03 1.392125e+03
      endloop
   endfacet
endsolid