solid assemblageComplet - ecrouVisAttache-4-1
   facet normal -2.693556e-01 -5.178872e-01 -8.119362e-01
      outer loop
         vertex 3.855410e+02 1.239708e+03 1.538193e+03
         vertex 3.892124e+02 1.223250e+03 1.547473e+03
         vertex 3.761014e+02 1.239457e+03 1.541484e+03
      endloop
   endfacet
   facet normal -2.693556e-01 -5.178872e-01 -8.119362e-01
      outer loop
         vertex 3.892124e+02 1.223250e+03 1.547473e+03
         vertex 3.797728e+02 1.223000e+03 1.550764e+03
         vertex 3.761014e+02 1.239457e+03 1.541484e+03
      endloop
   endfacet
   facet normal 2.693556e-01 5.178872e-01 8.119362e-01
      outer loop
         vertex 3.887523e+02 1.240264e+03 1.577831e+03
         vertex 3.945204e+02 1.256972e+03 1.565261e+03
         vertex 3.850808e+02 1.256722e+03 1.568552e+03
      endloop
   endfacet
   facet normal -3.051910e-02 9.994673e-01 -1.156593e-02
      outer loop
         vertex 3.945204e+02 1.256972e+03 1.565261e+03
         vertex 3.881950e+02 1.256569e+03 1.547087e+03
         vertex 3.850808e+02 1.256722e+03 1.568552e+03
      endloop
   endfacet
   facet normal -3.051910e-02 9.994673e-01 -1.156593e-02
      outer loop
         vertex 3.881950e+02 1.256569e+03 1.547087e+03
         vertex 3.787554e+02 1.256319e+03 1.550378e+03
         vertex 3.850808e+02 1.256722e+03 1.568552e+03
      endloop
   endfacet
   facet normal -9.439602e-01 -2.501568e-02 3.291099e-01
      outer loop
         vertex 3.826469e+02 1.249762e+03 1.561042e+03
         vertex 3.830933e+02 1.249482e+03 1.562301e+03
         vertex 3.850808e+02 1.256722e+03 1.568552e+03
      endloop
   endfacet
   facet normal -9.439602e-01 -2.501568e-02 3.291099e-01
      outer loop
         vertex 3.787554e+02 1.256319e+03 1.550378e+03
         vertex 3.817503e+02 1.249767e+03 1.558470e+03
         vertex 3.850808e+02 1.256722e+03 1.568552e+03
      endloop
   endfacet
   facet normal -9.439602e-01 -2.501568e-02 3.291099e-01
      outer loop
         vertex 3.817503e+02 1.249767e+03 1.558470e+03
         vertex 3.821964e+02 1.249858e+03 1.559757e+03
         vertex 3.850808e+02 1.256722e+03 1.568552e+03
      endloop
   endfacet
   facet normal -9.439602e-01 -2.501568e-02 3.291099e-01
      outer loop
         vertex 3.821964e+02 1.249858e+03 1.559757e+03
         vertex 3.826469e+02 1.249762e+03 1.561042e+03
         vertex 3.850808e+02 1.256722e+03 1.568552e+03
      endloop
   endfacet
   facet normal -9.439602e-01 -2.501568e-02 3.291099e-01
      outer loop
         vertex 3.830933e+02 1.249482e+03 1.562301e+03
         vertex 3.835273e+02 1.249023e+03 1.563510e+03
         vertex 3.850808e+02 1.256722e+03 1.568552e+03
      endloop
   endfacet
   facet normal -9.439602e-01 -2.501568e-02 3.291099e-01
      outer loop
         vertex 3.835273e+02 1.249023e+03 1.563510e+03
         vertex 3.839407e+02 1.248393e+03 1.564648e+03
         vertex 3.850808e+02 1.256722e+03 1.568552e+03
      endloop
   endfacet
   facet normal -9.439602e-01 -2.501568e-02 3.291099e-01
      outer loop
         vertex 3.839407e+02 1.248393e+03 1.564648e+03
         vertex 3.843260e+02 1.247604e+03 1.565694e+03
         vertex 3.850808e+02 1.256722e+03 1.568552e+03
      endloop
   endfacet
   facet normal -9.439602e-01 -2.501568e-02 3.291099e-01
      outer loop
         vertex 3.843260e+02 1.247604e+03 1.565694e+03
         vertex 3.846759e+02 1.246671e+03 1.566626e+03
         vertex 3.850808e+02 1.256722e+03 1.568552e+03
      endloop
   endfacet
   facet normal -9.439602e-01 -2.501568e-02 3.291099e-01
      outer loop
         vertex 3.846759e+02 1.246671e+03 1.566626e+03
         vertex 3.849839e+02 1.245611e+03 1.567429e+03
         vertex 3.850808e+02 1.256722e+03 1.568552e+03
      endloop
   endfacet
   facet normal -9.439602e-01 -2.501568e-02 3.291099e-01
      outer loop
         vertex 3.849839e+02 1.245611e+03 1.567429e+03
         vertex 3.887523e+02 1.240264e+03 1.577831e+03
         vertex 3.850808e+02 1.256722e+03 1.568552e+03
      endloop
   endfacet
   facet normal -2.998747e-01 4.815801e-01 -8.235022e-01
      outer loop
         vertex 3.881950e+02 1.256569e+03 1.547087e+03
         vertex 3.855410e+02 1.239708e+03 1.538193e+03
         vertex 3.787554e+02 1.256319e+03 1.550378e+03
      endloop
   endfacet
   facet normal -2.998747e-01 4.815801e-01 -8.235022e-01
      outer loop
         vertex 3.855410e+02 1.239708e+03 1.538193e+03
         vertex 3.761014e+02 1.239457e+03 1.541484e+03
         vertex 3.787554e+02 1.256319e+03 1.550378e+03
      endloop
   endfacet
   facet normal -9.439602e-01 -2.501568e-02 3.291099e-01
      outer loop
         vertex 3.813167e+02 1.249492e+03 1.557206e+03
         vertex 3.817503e+02 1.249767e+03 1.558470e+03
         vertex 3.787554e+02 1.256319e+03 1.550378e+03
      endloop
   endfacet
   facet normal -9.439602e-01 -2.501568e-02 3.291099e-01
      outer loop
         vertex 3.798633e+02 1.246697e+03 1.552824e+03
         vertex 3.801702e+02 1.247627e+03 1.553776e+03
         vertex 3.787554e+02 1.256319e+03 1.550378e+03
      endloop
   endfacet
   facet normal -9.439602e-01 -2.501568e-02 3.291099e-01
      outer loop
         vertex 3.801702e+02 1.247627e+03 1.553776e+03
         vertex 3.805192e+02 1.248412e+03 1.554836e+03
         vertex 3.787554e+02 1.256319e+03 1.550378e+03
      endloop
   endfacet
   facet normal -9.439602e-01 -2.501568e-02 3.291099e-01
      outer loop
         vertex 3.805192e+02 1.248412e+03 1.554836e+03
         vertex 3.809038e+02 1.249037e+03 1.555987e+03
         vertex 3.787554e+02 1.256319e+03 1.550378e+03
      endloop
   endfacet
   facet normal -9.439602e-01 -2.501568e-02 3.291099e-01
      outer loop
         vertex 3.809038e+02 1.249037e+03 1.555987e+03
         vertex 3.813167e+02 1.249492e+03 1.557206e+03
         vertex 3.787554e+02 1.256319e+03 1.550378e+03
      endloop
   endfacet
   facet normal -9.439602e-01 -2.501568e-02 3.291099e-01
      outer loop
         vertex 3.761014e+02 1.239457e+03 1.541484e+03
         vertex 3.793974e+02 1.244476e+03 1.551320e+03
         vertex 3.787554e+02 1.256319e+03 1.550378e+03
      endloop
   endfacet
   facet normal -9.439602e-01 -2.501568e-02 3.291099e-01
      outer loop
         vertex 3.793974e+02 1.244476e+03 1.551320e+03
         vertex 3.796041e+02 1.245640e+03 1.552001e+03
         vertex 3.787554e+02 1.256319e+03 1.550378e+03
      endloop
   endfacet
   facet normal -9.439602e-01 -2.501568e-02 3.291099e-01
      outer loop
         vertex 3.796041e+02 1.245640e+03 1.552001e+03
         vertex 3.798633e+02 1.246697e+03 1.552824e+03
         vertex 3.787554e+02 1.256319e+03 1.550378e+03
      endloop
   endfacet
   facet normal 4.545399e-02 -9.974757e-01 5.455387e-02
      outer loop
         vertex 3.817503e+02 1.249767e+03 1.558470e+03
         vertex 3.911899e+02 1.250017e+03 1.555179e+03
         vertex 3.821964e+02 1.249858e+03 1.559757e+03
      endloop
   endfacet
   facet normal 4.545399e-02 -9.974757e-01 5.455387e-02
      outer loop
         vertex 3.911899e+02 1.250017e+03 1.555179e+03
         vertex 3.916360e+02 1.250108e+03 1.556466e+03
         vertex 3.821964e+02 1.249858e+03 1.559757e+03
      endloop
   endfacet
   facet normal 5.157321e-04 -9.972343e-01 -7.432065e-02
      outer loop
         vertex 3.916360e+02 1.250108e+03 1.556466e+03
         vertex 3.826469e+02 1.249762e+03 1.561042e+03
         vertex 3.821964e+02 1.249858e+03 1.559757e+03
      endloop
   endfacet
   facet normal 5.157321e-04 -9.972343e-01 -7.432065e-02
      outer loop
         vertex 3.916360e+02 1.250108e+03 1.556466e+03
         vertex 3.920865e+02 1.250012e+03 1.557751e+03
         vertex 3.826469e+02 1.249762e+03 1.561042e+03
      endloop
   endfacet
   facet normal -4.443190e-02 -9.784163e-01 -2.018101e-01
      outer loop
         vertex 3.920865e+02 1.250012e+03 1.557751e+03
         vertex 3.830933e+02 1.249482e+03 1.562301e+03
         vertex 3.826469e+02 1.249762e+03 1.561042e+03
      endloop
   endfacet
   facet normal 8.954530e-02 -9.791362e-01 1.824115e-01
      outer loop
         vertex 3.813167e+02 1.249492e+03 1.557206e+03
         vertex 3.907563e+02 1.249742e+03 1.553914e+03
         vertex 3.817503e+02 1.249767e+03 1.558470e+03
      endloop
   endfacet
   facet normal 8.954530e-02 -9.791362e-01 1.824115e-01
      outer loop
         vertex 3.907563e+02 1.249742e+03 1.553914e+03
         vertex 3.911899e+02 1.250017e+03 1.555179e+03
         vertex 3.817503e+02 1.249767e+03 1.558470e+03
      endloop
   endfacet
   facet normal -4.443190e-02 -9.784163e-01 -2.018101e-01
      outer loop
         vertex 3.920865e+02 1.250012e+03 1.557751e+03
         vertex 3.925329e+02 1.249732e+03 1.559010e+03
         vertex 3.830933e+02 1.249482e+03 1.562301e+03
      endloop
   endfacet
   facet normal -8.855234e-02 -9.413720e-01 -3.255415e-01
      outer loop
         vertex 3.925329e+02 1.249732e+03 1.559010e+03
         vertex 3.835273e+02 1.249023e+03 1.563510e+03
         vertex 3.830933e+02 1.249482e+03 1.562301e+03
      endloop
   endfacet
   facet normal 1.319690e-01 -9.425569e-01 3.068725e-01
      outer loop
         vertex 3.809038e+02 1.249037e+03 1.555987e+03
         vertex 3.903434e+02 1.249287e+03 1.552696e+03
         vertex 3.813167e+02 1.249492e+03 1.557206e+03
      endloop
   endfacet
   facet normal 1.319690e-01 -9.425569e-01 3.068725e-01
      outer loop
         vertex 3.903434e+02 1.249287e+03 1.552696e+03
         vertex 3.907563e+02 1.249742e+03 1.553914e+03
         vertex 3.813167e+02 1.249492e+03 1.557206e+03
      endloop
   endfacet
   facet normal -8.855234e-02 -9.413720e-01 -3.255415e-01
      outer loop
         vertex 3.925329e+02 1.249732e+03 1.559010e+03
         vertex 3.929669e+02 1.249273e+03 1.560219e+03
         vertex 3.835273e+02 1.249023e+03 1.563510e+03
      endloop
   endfacet
   facet normal -1.310228e-01 -8.867920e-01 -4.432076e-01
      outer loop
         vertex 3.929669e+02 1.249273e+03 1.560219e+03
         vertex 3.839407e+02 1.248393e+03 1.564648e+03
         vertex 3.835273e+02 1.249023e+03 1.563510e+03
      endloop
   endfacet
   facet normal 1.719340e-01 -8.884198e-01 4.256159e-01
      outer loop
         vertex 3.805192e+02 1.248412e+03 1.554836e+03
         vertex 3.899588e+02 1.248662e+03 1.551545e+03
         vertex 3.809038e+02 1.249037e+03 1.555987e+03
      endloop
   endfacet
   facet normal 1.719340e-01 -8.884198e-01 4.256159e-01
      outer loop
         vertex 3.899588e+02 1.248662e+03 1.551545e+03
         vertex 3.903434e+02 1.249287e+03 1.552696e+03
         vertex 3.809038e+02 1.249037e+03 1.555987e+03
      endloop
   endfacet
   facet normal -1.310228e-01 -8.867920e-01 -4.432076e-01
      outer loop
         vertex 3.929669e+02 1.249273e+03 1.560219e+03
         vertex 3.933803e+02 1.248643e+03 1.561357e+03
         vertex 3.839407e+02 1.248393e+03 1.564648e+03
      endloop
   endfacet
   facet normal -1.710525e-01 -8.156929e-01 -5.526175e-01
      outer loop
         vertex 3.933803e+02 1.248643e+03 1.561357e+03
         vertex 3.843260e+02 1.247604e+03 1.565694e+03
         vertex 3.839407e+02 1.248393e+03 1.564648e+03
      endloop
   endfacet
   facet normal 2.086962e-01 -8.177333e-01 5.364309e-01
      outer loop
         vertex 3.801702e+02 1.247627e+03 1.553776e+03
         vertex 3.896098e+02 1.247877e+03 1.550484e+03
         vertex 3.805192e+02 1.248412e+03 1.554836e+03
      endloop
   endfacet
   facet normal 2.086962e-01 -8.177333e-01 5.364309e-01
      outer loop
         vertex 3.896098e+02 1.247877e+03 1.550484e+03
         vertex 3.899588e+02 1.248662e+03 1.551545e+03
         vertex 3.805192e+02 1.248412e+03 1.554836e+03
      endloop
   endfacet
   facet normal -1.710525e-01 -8.156929e-01 -5.526175e-01
      outer loop
         vertex 3.933803e+02 1.248643e+03 1.561357e+03
         vertex 3.937656e+02 1.247855e+03 1.562402e+03
         vertex 3.843260e+02 1.247604e+03 1.565694e+03
      endloop
   endfacet
   facet normal -2.078961e-01 -7.293987e-01 -6.517337e-01
      outer loop
         vertex 3.937656e+02 1.247855e+03 1.562402e+03
         vertex 3.846759e+02 1.246671e+03 1.566626e+03
         vertex 3.843260e+02 1.247604e+03 1.565694e+03
      endloop
   endfacet
   facet normal 2.415709e-01 -7.318137e-01 6.372536e-01
      outer loop
         vertex 3.798633e+02 1.246697e+03 1.552824e+03
         vertex 3.893029e+02 1.246947e+03 1.549533e+03
         vertex 3.801702e+02 1.247627e+03 1.553776e+03
      endloop
   endfacet
   facet normal 2.415709e-01 -7.318137e-01 6.372536e-01
      outer loop
         vertex 3.893029e+02 1.246947e+03 1.549533e+03
         vertex 3.896098e+02 1.247877e+03 1.550484e+03
         vertex 3.801702e+02 1.247627e+03 1.553776e+03
      endloop
   endfacet
   facet normal -2.078961e-01 -7.293987e-01 -6.517337e-01
      outer loop
         vertex 3.937656e+02 1.247855e+03 1.562402e+03
         vertex 3.941155e+02 1.246922e+03 1.563335e+03
         vertex 3.846759e+02 1.246671e+03 1.566626e+03
      endloop
   endfacet
   facet normal -2.408669e-01 -6.295170e-01 -7.387093e-01
      outer loop
         vertex 3.941155e+02 1.246922e+03 1.563335e+03
         vertex 3.849839e+02 1.245611e+03 1.567429e+03
         vertex 3.846759e+02 1.246671e+03 1.566626e+03
      endloop
   endfacet
   facet normal 2.699456e-01 -6.322617e-01 7.262056e-01
      outer loop
         vertex 3.796041e+02 1.245640e+03 1.552001e+03
         vertex 3.890437e+02 1.245890e+03 1.548710e+03
         vertex 3.798633e+02 1.246697e+03 1.552824e+03
      endloop
   endfacet
   facet normal 2.699456e-01 -6.322617e-01 7.262056e-01
      outer loop
         vertex 3.890437e+02 1.245890e+03 1.548710e+03
         vertex 3.893029e+02 1.246947e+03 1.549533e+03
         vertex 3.798633e+02 1.246697e+03 1.552824e+03
      endloop
   endfacet
   facet normal -9.439602e-01 -2.501568e-02 3.291099e-01
      outer loop
         vertex 3.852442e+02 1.244444e+03 1.568087e+03
         vertex 3.887523e+02 1.240264e+03 1.577831e+03
         vertex 3.849839e+02 1.245611e+03 1.567429e+03
      endloop
   endfacet
   facet normal -2.408669e-01 -6.295170e-01 -7.387093e-01
      outer loop
         vertex 3.941155e+02 1.246922e+03 1.563335e+03
         vertex 3.944235e+02 1.245862e+03 1.564138e+03
         vertex 3.849839e+02 1.245611e+03 1.567429e+03
      endloop
   endfacet
   facet normal -2.693507e-01 -5.179091e-01 -8.119239e-01
      outer loop
         vertex 3.944235e+02 1.245862e+03 1.564138e+03
         vertex 3.852442e+02 1.244444e+03 1.568087e+03
         vertex 3.849839e+02 1.245611e+03 1.567429e+03
      endloop
   endfacet
   facet normal 2.932916e-01 -5.209322e-01 8.016294e-01
      outer loop
         vertex 3.793974e+02 1.244476e+03 1.551320e+03
         vertex 3.888370e+02 1.244726e+03 1.548028e+03
         vertex 3.796041e+02 1.245640e+03 1.552001e+03
      endloop
   endfacet
   facet normal 2.932916e-01 -5.209322e-01 8.016294e-01
      outer loop
         vertex 3.888370e+02 1.244726e+03 1.548028e+03
         vertex 3.890437e+02 1.245890e+03 1.548710e+03
         vertex 3.796041e+02 1.245640e+03 1.552001e+03
      endloop
   endfacet
   facet normal -9.439602e-01 -2.501568e-02 3.291099e-01
      outer loop
         vertex 3.854521e+02 1.243192e+03 1.568588e+03
         vertex 3.887523e+02 1.240264e+03 1.577831e+03
         vertex 3.852442e+02 1.244444e+03 1.568087e+03
      endloop
   endfacet
   facet normal -2.693507e-01 -5.179091e-01 -8.119239e-01
      outer loop
         vertex 3.944235e+02 1.245862e+03 1.564138e+03
         vertex 3.946838e+02 1.244695e+03 1.564796e+03
         vertex 3.852442e+02 1.244444e+03 1.568087e+03
      endloop
   endfacet
   facet normal -2.928171e-01 -3.966534e-01 -8.700139e-01
      outer loop
         vertex 3.946838e+02 1.244695e+03 1.564796e+03
         vertex 3.854521e+02 1.243192e+03 1.568588e+03
         vertex 3.852442e+02 1.244444e+03 1.568087e+03
      endloop
   endfacet
   facet normal -9.439602e-01 -2.501568e-02 3.291099e-01
      outer loop
         vertex 3.761014e+02 1.239457e+03 1.541484e+03
         vertex 3.792472e+02 1.243225e+03 1.550794e+03
         vertex 3.793974e+02 1.244476e+03 1.551320e+03
      endloop
   endfacet
   facet normal 3.111743e-01 -3.998987e-01 8.621204e-01
      outer loop
         vertex 3.792472e+02 1.243225e+03 1.550794e+03
         vertex 3.886868e+02 1.243475e+03 1.547503e+03
         vertex 3.793974e+02 1.244476e+03 1.551320e+03
      endloop
   endfacet
   facet normal 3.111743e-01 -3.998987e-01 8.621204e-01
      outer loop
         vertex 3.886868e+02 1.243475e+03 1.547503e+03
         vertex 3.888370e+02 1.244726e+03 1.548028e+03
         vertex 3.793974e+02 1.244476e+03 1.551320e+03
      endloop
   endfacet
   facet normal -9.439602e-01 -2.501568e-02 3.291099e-01
      outer loop
         vertex 3.856036e+02 1.241877e+03 1.568923e+03
         vertex 3.887523e+02 1.240264e+03 1.577831e+03
         vertex 3.854521e+02 1.243192e+03 1.568588e+03
      endloop
   endfacet
   facet normal -2.928171e-01 -3.966534e-01 -8.700139e-01
      outer loop
         vertex 3.946838e+02 1.244695e+03 1.564796e+03
         vertex 3.948917e+02 1.243442e+03 1.565297e+03
         vertex 3.854521e+02 1.243192e+03 1.568588e+03
      endloop
   endfacet
   facet normal -3.108289e-01 -2.680079e-01 -9.118975e-01
      outer loop
         vertex 3.948917e+02 1.243442e+03 1.565297e+03
         vertex 3.856036e+02 1.241877e+03 1.568923e+03
         vertex 3.854521e+02 1.243192e+03 1.568588e+03
      endloop
   endfacet
   facet normal -9.439602e-01 -2.501568e-02 3.291099e-01
      outer loop
         vertex 3.761014e+02 1.239457e+03 1.541484e+03
         vertex 3.791563e+02 1.241912e+03 1.550433e+03
         vertex 3.792472e+02 1.243225e+03 1.550794e+03
      endloop
   endfacet
   facet normal 3.232603e-01 -2.714149e-01 9.065521e-01
      outer loop
         vertex 3.791563e+02 1.241912e+03 1.550433e+03
         vertex 3.885959e+02 1.242162e+03 1.547142e+03
         vertex 3.792472e+02 1.243225e+03 1.550794e+03
      endloop
   endfacet
   facet normal 3.232603e-01 -2.714149e-01 9.065521e-01
      outer loop
         vertex 3.885959e+02 1.242162e+03 1.547142e+03
         vertex 3.886868e+02 1.243475e+03 1.547503e+03
         vertex 3.792472e+02 1.243225e+03 1.550794e+03
      endloop
   endfacet
   facet normal -9.439602e-01 -2.501568e-02 3.291099e-01
      outer loop
         vertex 3.856960e+02 1.240525e+03 1.569085e+03
         vertex 3.887523e+02 1.240264e+03 1.577831e+03
         vertex 3.856036e+02 1.241877e+03 1.568923e+03
      endloop
   endfacet
   facet normal -3.108289e-01 -2.680079e-01 -9.118975e-01
      outer loop
         vertex 3.948917e+02 1.243442e+03 1.565297e+03
         vertex 3.950432e+02 1.242128e+03 1.565632e+03
         vertex 3.856036e+02 1.241877e+03 1.568923e+03
      endloop
   endfacet
   facet normal -3.230504e-01 -1.343715e-01 -9.367938e-01
      outer loop
         vertex 3.950432e+02 1.242128e+03 1.565632e+03
         vertex 3.856960e+02 1.240525e+03 1.569085e+03
         vertex 3.856036e+02 1.241877e+03 1.568923e+03
      endloop
   endfacet
   facet normal -9.439602e-01 -2.501568e-02 3.291099e-01
      outer loop
         vertex 3.761014e+02 1.239457e+03 1.541484e+03
         vertex 3.791262e+02 1.240561e+03 1.550244e+03
         vertex 3.791563e+02 1.241912e+03 1.550433e+03
      endloop
   endfacet
   facet normal 3.293246e-01 -1.378768e-01 9.340960e-01
      outer loop
         vertex 3.791262e+02 1.240561e+03 1.550244e+03
         vertex 3.885658e+02 1.240811e+03 1.546953e+03
         vertex 3.791563e+02 1.241912e+03 1.550433e+03
      endloop
   endfacet
   facet normal 3.293246e-01 -1.378768e-01 9.340960e-01
      outer loop
         vertex 3.885658e+02 1.240811e+03 1.546953e+03
         vertex 3.885959e+02 1.242162e+03 1.547142e+03
         vertex 3.791563e+02 1.241912e+03 1.550433e+03
      endloop
   endfacet
   facet normal -9.439602e-01 -2.501568e-02 3.291099e-01
      outer loop
         vertex 3.857274e+02 1.239161e+03 1.569071e+03
         vertex 3.887523e+02 1.240264e+03 1.577831e+03
         vertex 3.856960e+02 1.240525e+03 1.569085e+03
      endloop
   endfacet
   facet normal -3.230504e-01 -1.343715e-01 -9.367938e-01
      outer loop
         vertex 3.950432e+02 1.242128e+03 1.565632e+03
         vertex 3.951356e+02 1.240776e+03 1.565794e+03
         vertex 3.856960e+02 1.240525e+03 1.569085e+03
      endloop
   endfacet
   facet normal -3.292542e-01 1.769107e-03 -9.442397e-01
      outer loop
         vertex 3.951356e+02 1.240776e+03 1.565794e+03
         vertex 3.857274e+02 1.239161e+03 1.569071e+03
         vertex 3.856960e+02 1.240525e+03 1.569085e+03
      endloop
   endfacet
   facet normal -9.439602e-01 -2.501568e-02 3.291099e-01
      outer loop
         vertex 3.761014e+02 1.239457e+03 1.541484e+03
         vertex 3.791577e+02 1.239196e+03 1.550231e+03
         vertex 3.791262e+02 1.240561e+03 1.550244e+03
      endloop
   endfacet
   facet normal 3.292542e-01 -1.769107e-03 9.442397e-01
      outer loop
         vertex 3.791577e+02 1.239196e+03 1.550231e+03
         vertex 3.885973e+02 1.239446e+03 1.546939e+03
         vertex 3.791262e+02 1.240561e+03 1.550244e+03
      endloop
   endfacet
   facet normal 3.292542e-01 -1.769107e-03 9.442397e-01
      outer loop
         vertex 3.885973e+02 1.239446e+03 1.546939e+03
         vertex 3.885658e+02 1.240811e+03 1.546953e+03
         vertex 3.791262e+02 1.240561e+03 1.550244e+03
      endloop
   endfacet
   facet normal 2.693556e-01 5.178872e-01 8.119362e-01
      outer loop
         vertex 3.981919e+02 1.240515e+03 1.574540e+03
         vertex 3.945204e+02 1.256972e+03 1.565261e+03
         vertex 3.887523e+02 1.240264e+03 1.577831e+03
      endloop
   endfacet
   facet normal 2.998747e-01 -4.815801e-01 8.235022e-01
      outer loop
         vertex 3.860982e+02 1.223403e+03 1.568937e+03
         vertex 3.981919e+02 1.240515e+03 1.574540e+03
         vertex 3.887523e+02 1.240264e+03 1.577831e+03
      endloop
   endfacet
   facet normal -9.439602e-01 -2.501568e-02 3.291099e-01
      outer loop
         vertex 3.857274e+02 1.239161e+03 1.569071e+03
         vertex 3.856974e+02 1.237810e+03 1.568882e+03
         vertex 3.887523e+02 1.240264e+03 1.577831e+03
      endloop
   endfacet
   facet normal -9.439602e-01 -2.501568e-02 3.291099e-01
      outer loop
         vertex 3.856974e+02 1.237810e+03 1.568882e+03
         vertex 3.856064e+02 1.236496e+03 1.568522e+03
         vertex 3.887523e+02 1.240264e+03 1.577831e+03
      endloop
   endfacet
   facet normal -9.439602e-01 -2.501568e-02 3.291099e-01
      outer loop
         vertex 3.856064e+02 1.236496e+03 1.568522e+03
         vertex 3.854562e+02 1.235246e+03 1.567996e+03
         vertex 3.887523e+02 1.240264e+03 1.577831e+03
      endloop
   endfacet
   facet normal -9.439602e-01 -2.501568e-02 3.291099e-01
      outer loop
         vertex 3.854562e+02 1.235246e+03 1.567996e+03
         vertex 3.860982e+02 1.223403e+03 1.568937e+03
         vertex 3.887523e+02 1.240264e+03 1.577831e+03
      endloop
   endfacet
   facet normal -9.439602e-01 -2.501568e-02 3.291099e-01
      outer loop
         vertex 3.794015e+02 1.236530e+03 1.550727e+03
         vertex 3.792500e+02 1.237844e+03 1.550393e+03
         vertex 3.761014e+02 1.239457e+03 1.541484e+03
      endloop
   endfacet
   facet normal -9.439602e-01 -2.501568e-02 3.291099e-01
      outer loop
         vertex 3.797728e+02 1.223000e+03 1.550764e+03
         vertex 3.798698e+02 1.234110e+03 1.551886e+03
         vertex 3.761014e+02 1.239457e+03 1.541484e+03
      endloop
   endfacet
   facet normal -9.439602e-01 -2.501568e-02 3.291099e-01
      outer loop
         vertex 3.798698e+02 1.234110e+03 1.551886e+03
         vertex 3.796094e+02 1.235277e+03 1.551228e+03
         vertex 3.761014e+02 1.239457e+03 1.541484e+03
      endloop
   endfacet
   facet normal -9.439602e-01 -2.501568e-02 3.291099e-01
      outer loop
         vertex 3.796094e+02 1.235277e+03 1.551228e+03
         vertex 3.794015e+02 1.236530e+03 1.550727e+03
         vertex 3.761014e+02 1.239457e+03 1.541484e+03
      endloop
   endfacet
   facet normal -9.439602e-01 -2.501568e-02 3.291099e-01
      outer loop
         vertex 3.792500e+02 1.237844e+03 1.550393e+03
         vertex 3.791577e+02 1.239196e+03 1.550231e+03
         vertex 3.761014e+02 1.239457e+03 1.541484e+03
      endloop
   endfacet
   facet normal -3.292542e-01 1.769107e-03 -9.442397e-01
      outer loop
         vertex 3.951356e+02 1.240776e+03 1.565794e+03
         vertex 3.951670e+02 1.239411e+03 1.565780e+03
         vertex 3.857274e+02 1.239161e+03 1.569071e+03
      endloop
   endfacet
   facet normal -3.293246e-01 1.378768e-01 -9.340960e-01
      outer loop
         vertex 3.951670e+02 1.239411e+03 1.565780e+03
         vertex 3.856974e+02 1.237810e+03 1.568882e+03
         vertex 3.857274e+02 1.239161e+03 1.569071e+03
      endloop
   endfacet
   facet normal 3.230504e-01 1.343715e-01 9.367938e-01
      outer loop
         vertex 3.792500e+02 1.237844e+03 1.550393e+03
         vertex 3.886896e+02 1.238094e+03 1.547102e+03
         vertex 3.791577e+02 1.239196e+03 1.550231e+03
      endloop
   endfacet
   facet normal 3.230504e-01 1.343715e-01 9.367938e-01
      outer loop
         vertex 3.886896e+02 1.238094e+03 1.547102e+03
         vertex 3.885973e+02 1.239446e+03 1.546939e+03
         vertex 3.791577e+02 1.239196e+03 1.550231e+03
      endloop
   endfacet
   facet normal -3.293246e-01 1.378768e-01 -9.340960e-01
      outer loop
         vertex 3.951670e+02 1.239411e+03 1.565780e+03
         vertex 3.951370e+02 1.238060e+03 1.565591e+03
         vertex 3.856974e+02 1.237810e+03 1.568882e+03
      endloop
   endfacet
   facet normal -3.232603e-01 2.714149e-01 -9.065521e-01
      outer loop
         vertex 3.951370e+02 1.238060e+03 1.565591e+03
         vertex 3.856064e+02 1.236496e+03 1.568522e+03
         vertex 3.856974e+02 1.237810e+03 1.568882e+03
      endloop
   endfacet
   facet normal 3.108289e-01 2.680079e-01 9.118975e-01
      outer loop
         vertex 3.794015e+02 1.236530e+03 1.550727e+03
         vertex 3.888411e+02 1.236780e+03 1.547436e+03
         vertex 3.792500e+02 1.237844e+03 1.550393e+03
      endloop
   endfacet
   facet normal 3.108289e-01 2.680079e-01 9.118975e-01
      outer loop
         vertex 3.888411e+02 1.236780e+03 1.547436e+03
         vertex 3.886896e+02 1.238094e+03 1.547102e+03
         vertex 3.792500e+02 1.237844e+03 1.550393e+03
      endloop
   endfacet
   facet normal -3.232603e-01 2.714149e-01 -9.065521e-01
      outer loop
         vertex 3.951370e+02 1.238060e+03 1.565591e+03
         vertex 3.950460e+02 1.236747e+03 1.565231e+03
         vertex 3.856064e+02 1.236496e+03 1.568522e+03
      endloop
   endfacet
   facet normal -3.111743e-01 3.998987e-01 -8.621204e-01
      outer loop
         vertex 3.950460e+02 1.236747e+03 1.565231e+03
         vertex 3.854562e+02 1.235246e+03 1.567996e+03
         vertex 3.856064e+02 1.236496e+03 1.568522e+03
      endloop
   endfacet
   facet normal 2.928171e-01 3.966534e-01 8.700139e-01
      outer loop
         vertex 3.796094e+02 1.235277e+03 1.551228e+03
         vertex 3.890490e+02 1.235528e+03 1.547937e+03
         vertex 3.794015e+02 1.236530e+03 1.550727e+03
      endloop
   endfacet
   facet normal 2.928171e-01 3.966534e-01 8.700139e-01
      outer loop
         vertex 3.890490e+02 1.235528e+03 1.547937e+03
         vertex 3.888411e+02 1.236780e+03 1.547436e+03
         vertex 3.794015e+02 1.236530e+03 1.550727e+03
      endloop
   endfacet
   facet normal -9.439602e-01 -2.501568e-02 3.291099e-01
      outer loop
         vertex 3.852496e+02 1.234081e+03 1.567315e+03
         vertex 3.860982e+02 1.223403e+03 1.568937e+03
         vertex 3.854562e+02 1.235246e+03 1.567996e+03
      endloop
   endfacet
   facet normal -3.111743e-01 3.998987e-01 -8.621204e-01
      outer loop
         vertex 3.950460e+02 1.236747e+03 1.565231e+03
         vertex 3.948958e+02 1.235496e+03 1.564705e+03
         vertex 3.854562e+02 1.235246e+03 1.567996e+03
      endloop
   endfacet
   facet normal -2.932916e-01 5.209322e-01 -8.016294e-01
      outer loop
         vertex 3.948958e+02 1.235496e+03 1.564705e+03
         vertex 3.852496e+02 1.234081e+03 1.567315e+03
         vertex 3.854562e+02 1.235246e+03 1.567996e+03
      endloop
   endfacet
   facet normal 2.693507e-01 5.179091e-01 8.119239e-01
      outer loop
         vertex 3.798698e+02 1.234110e+03 1.551886e+03
         vertex 3.893094e+02 1.234361e+03 1.548595e+03
         vertex 3.796094e+02 1.235277e+03 1.551228e+03
      endloop
   endfacet
   facet normal 2.693507e-01 5.179091e-01 8.119239e-01
      outer loop
         vertex 3.893094e+02 1.234361e+03 1.548595e+03
         vertex 3.890490e+02 1.235528e+03 1.547937e+03
         vertex 3.796094e+02 1.235277e+03 1.551228e+03
      endloop
   endfacet
   facet normal -9.439602e-01 -2.501568e-02 3.291099e-01
      outer loop
         vertex 3.849904e+02 1.233025e+03 1.566491e+03
         vertex 3.860982e+02 1.223403e+03 1.568937e+03
         vertex 3.852496e+02 1.234081e+03 1.567315e+03
      endloop
   endfacet
   facet normal -2.932916e-01 5.209322e-01 -8.016294e-01
      outer loop
         vertex 3.948958e+02 1.235496e+03 1.564705e+03
         vertex 3.946892e+02 1.234332e+03 1.564024e+03
         vertex 3.852496e+02 1.234081e+03 1.567315e+03
      endloop
   endfacet
   facet normal -2.699456e-01 6.322617e-01 -7.262056e-01
      outer loop
         vertex 3.946892e+02 1.234332e+03 1.564024e+03
         vertex 3.849904e+02 1.233025e+03 1.566491e+03
         vertex 3.852496e+02 1.234081e+03 1.567315e+03
      endloop
   endfacet
   facet normal -9.439602e-01 -2.501568e-02 3.291099e-01
      outer loop
         vertex 3.797728e+02 1.223000e+03 1.550764e+03
         vertex 3.801778e+02 1.233050e+03 1.552689e+03
         vertex 3.798698e+02 1.234110e+03 1.551886e+03
      endloop
   endfacet
   facet normal 2.408669e-01 6.295170e-01 7.387093e-01
      outer loop
         vertex 3.801778e+02 1.233050e+03 1.552689e+03
         vertex 3.896174e+02 1.233301e+03 1.549398e+03
         vertex 3.798698e+02 1.234110e+03 1.551886e+03
      endloop
   endfacet
   facet normal 2.408669e-01 6.295170e-01 7.387093e-01
      outer loop
         vertex 3.896174e+02 1.233301e+03 1.549398e+03
         vertex 3.893094e+02 1.234361e+03 1.548595e+03
         vertex 3.798698e+02 1.234110e+03 1.551886e+03
      endloop
   endfacet
   facet normal -9.439602e-01 -2.501568e-02 3.291099e-01
      outer loop
         vertex 3.846834e+02 1.232095e+03 1.565540e+03
         vertex 3.860982e+02 1.223403e+03 1.568937e+03
         vertex 3.849904e+02 1.233025e+03 1.566491e+03
      endloop
   endfacet
   facet normal -2.699456e-01 6.322617e-01 -7.262056e-01
      outer loop
         vertex 3.946892e+02 1.234332e+03 1.564024e+03
         vertex 3.944300e+02 1.233275e+03 1.563200e+03
         vertex 3.849904e+02 1.233025e+03 1.566491e+03
      endloop
   endfacet
   facet normal -2.415709e-01 7.318137e-01 -6.372536e-01
      outer loop
         vertex 3.944300e+02 1.233275e+03 1.563200e+03
         vertex 3.846834e+02 1.232095e+03 1.565540e+03
         vertex 3.849904e+02 1.233025e+03 1.566491e+03
      endloop
   endfacet
   facet normal -9.439602e-01 -2.501568e-02 3.291099e-01
      outer loop
         vertex 3.797728e+02 1.223000e+03 1.550764e+03
         vertex 3.805277e+02 1.232117e+03 1.553622e+03
         vertex 3.801778e+02 1.233050e+03 1.552689e+03
      endloop
   endfacet
   facet normal 2.078961e-01 7.293987e-01 6.517337e-01
      outer loop
         vertex 3.805277e+02 1.232117e+03 1.553622e+03
         vertex 3.899673e+02 1.232368e+03 1.550331e+03
         vertex 3.801778e+02 1.233050e+03 1.552689e+03
      endloop
   endfacet
   facet normal 2.078961e-01 7.293987e-01 6.517337e-01
      outer loop
         vertex 3.899673e+02 1.232368e+03 1.550331e+03
         vertex 3.896174e+02 1.233301e+03 1.549398e+03
         vertex 3.801778e+02 1.233050e+03 1.552689e+03
      endloop
   endfacet
   facet normal -9.439602e-01 -2.501568e-02 3.291099e-01
      outer loop
         vertex 3.843344e+02 1.231310e+03 1.564479e+03
         vertex 3.860982e+02 1.223403e+03 1.568937e+03
         vertex 3.846834e+02 1.232095e+03 1.565540e+03
      endloop
   endfacet
   facet normal -2.415709e-01 7.318137e-01 -6.372536e-01
      outer loop
         vertex 3.944300e+02 1.233275e+03 1.563200e+03
         vertex 3.941230e+02 1.232345e+03 1.562249e+03
         vertex 3.846834e+02 1.232095e+03 1.565540e+03
      endloop
   endfacet
   facet normal -2.086962e-01 8.177333e-01 -5.364309e-01
      outer loop
         vertex 3.941230e+02 1.232345e+03 1.562249e+03
         vertex 3.843344e+02 1.231310e+03 1.564479e+03
         vertex 3.846834e+02 1.232095e+03 1.565540e+03
      endloop
   endfacet
   facet normal -9.439602e-01 -2.501568e-02 3.291099e-01
      outer loop
         vertex 3.797728e+02 1.223000e+03 1.550764e+03
         vertex 3.809129e+02 1.231329e+03 1.554667e+03
         vertex 3.805277e+02 1.232117e+03 1.553622e+03
      endloop
   endfacet
   facet normal 1.710525e-01 8.156929e-01 5.526175e-01
      outer loop
         vertex 3.809129e+02 1.231329e+03 1.554667e+03
         vertex 3.903525e+02 1.231579e+03 1.551376e+03
         vertex 3.805277e+02 1.232117e+03 1.553622e+03
      endloop
   endfacet
   facet normal 1.710525e-01 8.156929e-01 5.526175e-01
      outer loop
         vertex 3.903525e+02 1.231579e+03 1.551376e+03
         vertex 3.899673e+02 1.232368e+03 1.550331e+03
         vertex 3.805277e+02 1.232117e+03 1.553622e+03
      endloop
   endfacet
   facet normal -9.439602e-01 -2.501568e-02 3.291099e-01
      outer loop
         vertex 3.839499e+02 1.230685e+03 1.563329e+03
         vertex 3.860982e+02 1.223403e+03 1.568937e+03
         vertex 3.843344e+02 1.231310e+03 1.564479e+03
      endloop
   endfacet
   facet normal -2.086962e-01 8.177333e-01 -5.364309e-01
      outer loop
         vertex 3.941230e+02 1.232345e+03 1.562249e+03
         vertex 3.937740e+02 1.231560e+03 1.561188e+03
         vertex 3.843344e+02 1.231310e+03 1.564479e+03
      endloop
   endfacet
   facet normal -1.719340e-01 8.884198e-01 -4.256159e-01
      outer loop
         vertex 3.937740e+02 1.231560e+03 1.561188e+03
         vertex 3.839499e+02 1.230685e+03 1.563329e+03
         vertex 3.843344e+02 1.231310e+03 1.564479e+03
      endloop
   endfacet
   facet normal -9.439602e-01 -2.501568e-02 3.291099e-01
      outer loop
         vertex 3.797728e+02 1.223000e+03 1.550764e+03
         vertex 3.813264e+02 1.230699e+03 1.555805e+03
         vertex 3.809129e+02 1.231329e+03 1.554667e+03
      endloop
   endfacet
   facet normal 1.310228e-01 8.867920e-01 4.432076e-01
      outer loop
         vertex 3.813264e+02 1.230699e+03 1.555805e+03
         vertex 3.907660e+02 1.230949e+03 1.552514e+03
         vertex 3.809129e+02 1.231329e+03 1.554667e+03
      endloop
   endfacet
   facet normal 1.310228e-01 8.867920e-01 4.432076e-01
      outer loop
         vertex 3.907660e+02 1.230949e+03 1.552514e+03
         vertex 3.903525e+02 1.231579e+03 1.551376e+03
         vertex 3.809129e+02 1.231329e+03 1.554667e+03
      endloop
   endfacet
   facet normal -9.439602e-01 -2.501568e-02 3.291099e-01
      outer loop
         vertex 3.835370e+02 1.230230e+03 1.562110e+03
         vertex 3.860982e+02 1.223403e+03 1.568937e+03
         vertex 3.839499e+02 1.230685e+03 1.563329e+03
      endloop
   endfacet
   facet normal -1.719340e-01 8.884198e-01 -4.256159e-01
      outer loop
         vertex 3.937740e+02 1.231560e+03 1.561188e+03
         vertex 3.933895e+02 1.230935e+03 1.560038e+03
         vertex 3.839499e+02 1.230685e+03 1.563329e+03
      endloop
   endfacet
   facet normal -1.319690e-01 9.425569e-01 -3.068725e-01
      outer loop
         vertex 3.933895e+02 1.230935e+03 1.560038e+03
         vertex 3.835370e+02 1.230230e+03 1.562110e+03
         vertex 3.839499e+02 1.230685e+03 1.563329e+03
      endloop
   endfacet
   facet normal -9.439602e-01 -2.501568e-02 3.291099e-01
      outer loop
         vertex 3.797728e+02 1.223000e+03 1.550764e+03
         vertex 3.817604e+02 1.230240e+03 1.557015e+03
         vertex 3.813264e+02 1.230699e+03 1.555805e+03
      endloop
   endfacet
   facet normal 8.855234e-02 9.413720e-01 3.255415e-01
      outer loop
         vertex 3.817604e+02 1.230240e+03 1.557015e+03
         vertex 3.912000e+02 1.230490e+03 1.553724e+03
         vertex 3.813264e+02 1.230699e+03 1.555805e+03
      endloop
   endfacet
   facet normal 8.855234e-02 9.413720e-01 3.255415e-01
      outer loop
         vertex 3.912000e+02 1.230490e+03 1.553724e+03
         vertex 3.907660e+02 1.230949e+03 1.552514e+03
         vertex 3.813264e+02 1.230699e+03 1.555805e+03
      endloop
   endfacet
   facet normal -9.439602e-01 -2.501568e-02 3.291099e-01
      outer loop
         vertex 3.831034e+02 1.229955e+03 1.560845e+03
         vertex 3.860982e+02 1.223403e+03 1.568937e+03
         vertex 3.835370e+02 1.230230e+03 1.562110e+03
      endloop
   endfacet
   facet normal -1.319690e-01 9.425569e-01 -3.068725e-01
      outer loop
         vertex 3.933895e+02 1.230935e+03 1.560038e+03
         vertex 3.929766e+02 1.230480e+03 1.558819e+03
         vertex 3.835370e+02 1.230230e+03 1.562110e+03
      endloop
   endfacet
   facet normal -8.954530e-02 9.791362e-01 -1.824115e-01
      outer loop
         vertex 3.929766e+02 1.230480e+03 1.558819e+03
         vertex 3.831034e+02 1.229955e+03 1.560845e+03
         vertex 3.835370e+02 1.230230e+03 1.562110e+03
      endloop
   endfacet
   facet normal -9.439602e-01 -2.501568e-02 3.291099e-01
      outer loop
         vertex 3.797728e+02 1.223000e+03 1.550764e+03
         vertex 3.822067e+02 1.229960e+03 1.558274e+03
         vertex 3.817604e+02 1.230240e+03 1.557015e+03
      endloop
   endfacet
   facet normal 4.443190e-02 9.784163e-01 2.018101e-01
      outer loop
         vertex 3.822067e+02 1.229960e+03 1.558274e+03
         vertex 3.916463e+02 1.230210e+03 1.554983e+03
         vertex 3.817604e+02 1.230240e+03 1.557015e+03
      endloop
   endfacet
   facet normal 4.443190e-02 9.784163e-01 2.018101e-01
      outer loop
         vertex 3.916463e+02 1.230210e+03 1.554983e+03
         vertex 3.912000e+02 1.230490e+03 1.553724e+03
         vertex 3.817604e+02 1.230240e+03 1.557015e+03
      endloop
   endfacet
   facet normal -9.439602e-01 -2.501568e-02 3.291099e-01
      outer loop
         vertex 3.826572e+02 1.229864e+03 1.559559e+03
         vertex 3.797728e+02 1.223000e+03 1.550764e+03
         vertex 3.831034e+02 1.229955e+03 1.560845e+03
      endloop
   endfacet
   facet normal -9.439602e-01 -2.501568e-02 3.291099e-01
      outer loop
         vertex 3.797728e+02 1.223000e+03 1.550764e+03
         vertex 3.860982e+02 1.223403e+03 1.568937e+03
         vertex 3.831034e+02 1.229955e+03 1.560845e+03
      endloop
   endfacet
   facet normal -8.954530e-02 9.791362e-01 -1.824115e-01
      outer loop
         vertex 3.929766e+02 1.230480e+03 1.558819e+03
         vertex 3.925430e+02 1.230205e+03 1.557554e+03
         vertex 3.831034e+02 1.229955e+03 1.560845e+03
      endloop
   endfacet
   facet normal -4.545399e-02 9.974757e-01 -5.455387e-02
      outer loop
         vertex 3.925430e+02 1.230205e+03 1.557554e+03
         vertex 3.826572e+02 1.229864e+03 1.559559e+03
         vertex 3.831034e+02 1.229955e+03 1.560845e+03
      endloop
   endfacet
   facet normal -9.439602e-01 -2.501568e-02 3.291099e-01
      outer loop
         vertex 3.797728e+02 1.223000e+03 1.550764e+03
         vertex 3.826572e+02 1.229864e+03 1.559559e+03
         vertex 3.822067e+02 1.229960e+03 1.558274e+03
      endloop
   endfacet
   facet normal -5.157321e-04 9.972343e-01 7.432065e-02
      outer loop
         vertex 3.826572e+02 1.229864e+03 1.559559e+03
         vertex 3.920968e+02 1.230114e+03 1.556268e+03
         vertex 3.822067e+02 1.229960e+03 1.558274e+03
      endloop
   endfacet
   facet normal -5.157321e-04 9.972343e-01 7.432065e-02
      outer loop
         vertex 3.920968e+02 1.230114e+03 1.556268e+03
         vertex 3.916463e+02 1.230210e+03 1.554983e+03
         vertex 3.822067e+02 1.229960e+03 1.558274e+03
      endloop
   endfacet
   facet normal -4.545399e-02 9.974757e-01 -5.455387e-02
      outer loop
         vertex 3.925430e+02 1.230205e+03 1.557554e+03
         vertex 3.920968e+02 1.230114e+03 1.556268e+03
         vertex 3.826572e+02 1.229864e+03 1.559559e+03
      endloop
   endfacet
   facet normal 2.998747e-01 -4.815801e-01 8.235022e-01
      outer loop
         vertex 3.955378e+02 1.223653e+03 1.565646e+03
         vertex 3.981919e+02 1.240515e+03 1.574540e+03
         vertex 3.860982e+02 1.223403e+03 1.568937e+03
      endloop
   endfacet
   facet normal 3.051910e-02 -9.994673e-01 1.156593e-02
      outer loop
         vertex 3.797728e+02 1.223000e+03 1.550764e+03
         vertex 3.955378e+02 1.223653e+03 1.565646e+03
         vertex 3.860982e+02 1.223403e+03 1.568937e+03
      endloop
   endfacet
   facet normal 3.051910e-02 -9.994673e-01 1.156593e-02
      outer loop
         vertex 3.892124e+02 1.223250e+03 1.547473e+03
         vertex 3.955378e+02 1.223653e+03 1.565646e+03
         vertex 3.797728e+02 1.223000e+03 1.550764e+03
      endloop
   endfacet
   facet normal 9.439602e-01 2.501568e-02 -3.291099e-01
      outer loop
         vertex 3.941155e+02 1.246922e+03 1.563335e+03
         vertex 3.937656e+02 1.247855e+03 1.562402e+03
         vertex 3.945204e+02 1.256972e+03 1.565261e+03
      endloop
   endfacet
   facet normal 9.439602e-01 2.501568e-02 -3.291099e-01
      outer loop
         vertex 3.937656e+02 1.247855e+03 1.562402e+03
         vertex 3.933803e+02 1.248643e+03 1.561357e+03
         vertex 3.945204e+02 1.256972e+03 1.565261e+03
      endloop
   endfacet
   facet normal 9.439602e-01 2.501568e-02 -3.291099e-01
      outer loop
         vertex 3.933803e+02 1.248643e+03 1.561357e+03
         vertex 3.929669e+02 1.249273e+03 1.560219e+03
         vertex 3.945204e+02 1.256972e+03 1.565261e+03
      endloop
   endfacet
   facet normal 9.439602e-01 2.501568e-02 -3.291099e-01
      outer loop
         vertex 3.929669e+02 1.249273e+03 1.560219e+03
         vertex 3.925329e+02 1.249732e+03 1.559010e+03
         vertex 3.945204e+02 1.256972e+03 1.565261e+03
      endloop
   endfacet
   facet normal 9.439602e-01 2.501568e-02 -3.291099e-01
      outer loop
         vertex 3.981919e+02 1.240515e+03 1.574540e+03
         vertex 3.946838e+02 1.244695e+03 1.564796e+03
         vertex 3.945204e+02 1.256972e+03 1.565261e+03
      endloop
   endfacet
   facet normal 9.439602e-01 2.501568e-02 -3.291099e-01
      outer loop
         vertex 3.946838e+02 1.244695e+03 1.564796e+03
         vertex 3.944235e+02 1.245862e+03 1.564138e+03
         vertex 3.945204e+02 1.256972e+03 1.565261e+03
      endloop
   endfacet
   facet normal 9.439602e-01 2.501568e-02 -3.291099e-01
      outer loop
         vertex 3.944235e+02 1.245862e+03 1.564138e+03
         vertex 3.941155e+02 1.246922e+03 1.563335e+03
         vertex 3.945204e+02 1.256972e+03 1.565261e+03
      endloop
   endfacet
   facet normal 9.439602e-01 2.501568e-02 -3.291099e-01
      outer loop
         vertex 3.925329e+02 1.249732e+03 1.559010e+03
         vertex 3.920865e+02 1.250012e+03 1.557751e+03
         vertex 3.945204e+02 1.256972e+03 1.565261e+03
      endloop
   endfacet
   facet normal 9.439602e-01 2.501568e-02 -3.291099e-01
      outer loop
         vertex 3.920865e+02 1.250012e+03 1.557751e+03
         vertex 3.916360e+02 1.250108e+03 1.556466e+03
         vertex 3.945204e+02 1.256972e+03 1.565261e+03
      endloop
   endfacet
   facet normal 9.439602e-01 2.501568e-02 -3.291099e-01
      outer loop
         vertex 3.916360e+02 1.250108e+03 1.556466e+03
         vertex 3.881950e+02 1.256569e+03 1.547087e+03
         vertex 3.945204e+02 1.256972e+03 1.565261e+03
      endloop
   endfacet
   facet normal 9.439602e-01 2.501568e-02 -3.291099e-01
      outer loop
         vertex 3.907563e+02 1.249742e+03 1.553914e+03
         vertex 3.903434e+02 1.249287e+03 1.552696e+03
         vertex 3.881950e+02 1.256569e+03 1.547087e+03
      endloop
   endfacet
   facet normal 9.439602e-01 2.501568e-02 -3.291099e-01
      outer loop
         vertex 3.903434e+02 1.249287e+03 1.552696e+03
         vertex 3.899588e+02 1.248662e+03 1.551545e+03
         vertex 3.881950e+02 1.256569e+03 1.547087e+03
      endloop
   endfacet
   facet normal 9.439602e-01 2.501568e-02 -3.291099e-01
      outer loop
         vertex 3.899588e+02 1.248662e+03 1.551545e+03
         vertex 3.896098e+02 1.247877e+03 1.550484e+03
         vertex 3.881950e+02 1.256569e+03 1.547087e+03
      endloop
   endfacet
   facet normal 9.439602e-01 2.501568e-02 -3.291099e-01
      outer loop
         vertex 3.916360e+02 1.250108e+03 1.556466e+03
         vertex 3.911899e+02 1.250017e+03 1.555179e+03
         vertex 3.881950e+02 1.256569e+03 1.547087e+03
      endloop
   endfacet
   facet normal 9.439602e-01 2.501568e-02 -3.291099e-01
      outer loop
         vertex 3.911899e+02 1.250017e+03 1.555179e+03
         vertex 3.907563e+02 1.249742e+03 1.553914e+03
         vertex 3.881950e+02 1.256569e+03 1.547087e+03
      endloop
   endfacet
   facet normal 9.439602e-01 2.501568e-02 -3.291099e-01
      outer loop
         vertex 3.896098e+02 1.247877e+03 1.550484e+03
         vertex 3.893029e+02 1.246947e+03 1.549533e+03
         vertex 3.881950e+02 1.256569e+03 1.547087e+03
      endloop
   endfacet
   facet normal 9.439602e-01 2.501568e-02 -3.291099e-01
      outer loop
         vertex 3.893029e+02 1.246947e+03 1.549533e+03
         vertex 3.890437e+02 1.245890e+03 1.548710e+03
         vertex 3.881950e+02 1.256569e+03 1.547087e+03
      endloop
   endfacet
   facet normal 9.439602e-01 2.501568e-02 -3.291099e-01
      outer loop
         vertex 3.890437e+02 1.245890e+03 1.548710e+03
         vertex 3.855410e+02 1.239708e+03 1.538193e+03
         vertex 3.881950e+02 1.256569e+03 1.547087e+03
      endloop
   endfacet
   facet normal 9.439602e-01 2.501568e-02 -3.291099e-01
      outer loop
         vertex 3.888370e+02 1.244726e+03 1.548028e+03
         vertex 3.855410e+02 1.239708e+03 1.538193e+03
         vertex 3.890437e+02 1.245890e+03 1.548710e+03
      endloop
   endfacet
   facet normal 9.439602e-01 2.501568e-02 -3.291099e-01
      outer loop
         vertex 3.981919e+02 1.240515e+03 1.574540e+03
         vertex 3.948917e+02 1.243442e+03 1.565297e+03
         vertex 3.946838e+02 1.244695e+03 1.564796e+03
      endloop
   endfacet
   facet normal 9.439602e-01 2.501568e-02 -3.291099e-01
      outer loop
         vertex 3.886868e+02 1.243475e+03 1.547503e+03
         vertex 3.855410e+02 1.239708e+03 1.538193e+03
         vertex 3.888370e+02 1.244726e+03 1.548028e+03
      endloop
   endfacet
   facet normal 9.439602e-01 2.501568e-02 -3.291099e-01
      outer loop
         vertex 3.981919e+02 1.240515e+03 1.574540e+03
         vertex 3.950432e+02 1.242128e+03 1.565632e+03
         vertex 3.948917e+02 1.243442e+03 1.565297e+03
      endloop
   endfacet
   facet normal 9.439602e-01 2.501568e-02 -3.291099e-01
      outer loop
         vertex 3.885959e+02 1.242162e+03 1.547142e+03
         vertex 3.855410e+02 1.239708e+03 1.538193e+03
         vertex 3.886868e+02 1.243475e+03 1.547503e+03
      endloop
   endfacet
   facet normal 9.439602e-01 2.501568e-02 -3.291099e-01
      outer loop
         vertex 3.981919e+02 1.240515e+03 1.574540e+03
         vertex 3.951356e+02 1.240776e+03 1.565794e+03
         vertex 3.950432e+02 1.242128e+03 1.565632e+03
      endloop
   endfacet
   facet normal 9.439602e-01 2.501568e-02 -3.291099e-01
      outer loop
         vertex 3.885658e+02 1.240811e+03 1.546953e+03
         vertex 3.855410e+02 1.239708e+03 1.538193e+03
         vertex 3.885959e+02 1.242162e+03 1.547142e+03
      endloop
   endfacet
   facet normal 9.439602e-01 2.501568e-02 -3.291099e-01
      outer loop
         vertex 3.981919e+02 1.240515e+03 1.574540e+03
         vertex 3.951670e+02 1.239411e+03 1.565780e+03
         vertex 3.951356e+02 1.240776e+03 1.565794e+03
      endloop
   endfacet
   facet normal 9.439602e-01 2.501568e-02 -3.291099e-01
      outer loop
         vertex 3.885973e+02 1.239446e+03 1.546939e+03
         vertex 3.855410e+02 1.239708e+03 1.538193e+03
         vertex 3.885658e+02 1.240811e+03 1.546953e+03
      endloop
   endfacet
   facet normal 9.439602e-01 2.501568e-02 -3.291099e-01
      outer loop
         vertex 3.950460e+02 1.236747e+03 1.565231e+03
         vertex 3.951370e+02 1.238060e+03 1.565591e+03
         vertex 3.981919e+02 1.240515e+03 1.574540e+03
      endloop
   endfacet
   facet normal 9.439602e-01 2.501568e-02 -3.291099e-01
      outer loop
         vertex 3.951370e+02 1.238060e+03 1.565591e+03
         vertex 3.951670e+02 1.239411e+03 1.565780e+03
         vertex 3.981919e+02 1.240515e+03 1.574540e+03
      endloop
   endfacet
   facet normal 9.439602e-01 2.501568e-02 -3.291099e-01
      outer loop
         vertex 3.955378e+02 1.223653e+03 1.565646e+03
         vertex 3.946892e+02 1.234332e+03 1.564024e+03
         vertex 3.981919e+02 1.240515e+03 1.574540e+03
      endloop
   endfacet
   facet normal 9.439602e-01 2.501568e-02 -3.291099e-01
      outer loop
         vertex 3.946892e+02 1.234332e+03 1.564024e+03
         vertex 3.948958e+02 1.235496e+03 1.564705e+03
         vertex 3.981919e+02 1.240515e+03 1.574540e+03
      endloop
   endfacet
   facet normal 9.439602e-01 2.501568e-02 -3.291099e-01
      outer loop
         vertex 3.948958e+02 1.235496e+03 1.564705e+03
         vertex 3.950460e+02 1.236747e+03 1.565231e+03
         vertex 3.981919e+02 1.240515e+03 1.574540e+03
      endloop
   endfacet
   facet normal 9.439602e-01 2.501568e-02 -3.291099e-01
      outer loop
         vertex 3.885973e+02 1.239446e+03 1.546939e+03
         vertex 3.886896e+02 1.238094e+03 1.547102e+03
         vertex 3.855410e+02 1.239708e+03 1.538193e+03
      endloop
   endfacet
   facet normal 9.439602e-01 2.501568e-02 -3.291099e-01
      outer loop
         vertex 3.886896e+02 1.238094e+03 1.547102e+03
         vertex 3.888411e+02 1.236780e+03 1.547436e+03
         vertex 3.855410e+02 1.239708e+03 1.538193e+03
      endloop
   endfacet
   facet normal 9.439602e-01 2.501568e-02 -3.291099e-01
      outer loop
         vertex 3.888411e+02 1.236780e+03 1.547436e+03
         vertex 3.890490e+02 1.235528e+03 1.547937e+03
         vertex 3.855410e+02 1.239708e+03 1.538193e+03
      endloop
   endfacet
   facet normal 9.439602e-01 2.501568e-02 -3.291099e-01
      outer loop
         vertex 3.890490e+02 1.235528e+03 1.547937e+03
         vertex 3.892124e+02 1.223250e+03 1.547473e+03
         vertex 3.855410e+02 1.239708e+03 1.538193e+03
      endloop
   endfacet
   facet normal 9.439602e-01 2.501568e-02 -3.291099e-01
      outer loop
         vertex 3.893094e+02 1.234361e+03 1.548595e+03
         vertex 3.892124e+02 1.223250e+03 1.547473e+03
         vertex 3.890490e+02 1.235528e+03 1.547937e+03
      endloop
   endfacet
   facet normal 9.439602e-01 2.501568e-02 -3.291099e-01
      outer loop
         vertex 3.955378e+02 1.223653e+03 1.565646e+03
         vertex 3.944300e+02 1.233275e+03 1.563200e+03
         vertex 3.946892e+02 1.234332e+03 1.564024e+03
      endloop
   endfacet
   facet normal 9.439602e-01 2.501568e-02 -3.291099e-01
      outer loop
         vertex 3.896174e+02 1.233301e+03 1.549398e+03
         vertex 3.892124e+02 1.223250e+03 1.547473e+03
         vertex 3.893094e+02 1.234361e+03 1.548595e+03
      endloop
   endfacet
   facet normal 9.439602e-01 2.501568e-02 -3.291099e-01
      outer loop
         vertex 3.955378e+02 1.223653e+03 1.565646e+03
         vertex 3.941230e+02 1.232345e+03 1.562249e+03
         vertex 3.944300e+02 1.233275e+03 1.563200e+03
      endloop
   endfacet
   facet normal 9.439602e-01 2.501568e-02 -3.291099e-01
      outer loop
         vertex 3.899673e+02 1.232368e+03 1.550331e+03
         vertex 3.892124e+02 1.223250e+03 1.547473e+03
         vertex 3.896174e+02 1.233301e+03 1.549398e+03
      endloop
   endfacet
   facet normal 9.439602e-01 2.501568e-02 -3.291099e-01
      outer loop
         vertex 3.955378e+02 1.223653e+03 1.565646e+03
         vertex 3.937740e+02 1.231560e+03 1.561188e+03
         vertex 3.941230e+02 1.232345e+03 1.562249e+03
      endloop
   endfacet
   facet normal 9.439602e-01 2.501568e-02 -3.291099e-01
      outer loop
         vertex 3.903525e+02 1.231579e+03 1.551376e+03
         vertex 3.892124e+02 1.223250e+03 1.547473e+03
         vertex 3.899673e+02 1.232368e+03 1.550331e+03
      endloop
   endfacet
   facet normal 9.439602e-01 2.501568e-02 -3.291099e-01
      outer loop
         vertex 3.955378e+02 1.223653e+03 1.565646e+03
         vertex 3.933895e+02 1.230935e+03 1.560038e+03
         vertex 3.937740e+02 1.231560e+03 1.561188e+03
      endloop
   endfacet
   facet normal 9.439602e-01 2.501568e-02 -3.291099e-01
      outer loop
         vertex 3.907660e+02 1.230949e+03 1.552514e+03
         vertex 3.892124e+02 1.223250e+03 1.547473e+03
         vertex 3.903525e+02 1.231579e+03 1.551376e+03
      endloop
   endfacet
   facet normal 9.439602e-01 2.501568e-02 -3.291099e-01
      outer loop
         vertex 3.955378e+02 1.223653e+03 1.565646e+03
         vertex 3.929766e+02 1.230480e+03 1.558819e+03
         vertex 3.933895e+02 1.230935e+03 1.560038e+03
      endloop
   endfacet
   facet normal 9.439602e-01 2.501568e-02 -3.291099e-01
      outer loop
         vertex 3.912000e+02 1.230490e+03 1.553724e+03
         vertex 3.892124e+02 1.223250e+03 1.547473e+03
         vertex 3.907660e+02 1.230949e+03 1.552514e+03
      endloop
   endfacet
   facet normal 9.439602e-01 2.501568e-02 -3.291099e-01
      outer loop
         vertex 3.955378e+02 1.223653e+03 1.565646e+03
         vertex 3.925430e+02 1.230205e+03 1.557554e+03
         vertex 3.929766e+02 1.230480e+03 1.558819e+03
      endloop
   endfacet
   facet normal 9.439602e-01 2.501568e-02 -3.291099e-01
      outer loop
         vertex 3.916463e+02 1.230210e+03 1.554983e+03
         vertex 3.892124e+02 1.223250e+03 1.547473e+03
         vertex 3.912000e+02 1.230490e+03 1.553724e+03
      endloop
   endfacet
   facet normal 9.439602e-01 2.501568e-02 -3.291099e-01
      outer loop
         vertex 3.955378e+02 1.223653e+03 1.565646e+03
         vertex 3.920968e+02 1.230114e+03 1.556268e+03
         vertex 3.925430e+02 1.230205e+03 1.557554e+03
      endloop
   endfacet
   facet normal 9.439602e-01 2.501568e-02 -3.291099e-01
      outer loop
         vertex 3.920968e+02 1.230114e+03 1.556268e+03
         vertex 3.892124e+02 1.223250e+03 1.547473e+03
         vertex 3.916463e+02 1.230210e+03 1.554983e+03
      endloop
   endfacet
   facet normal 9.439602e-01 2.501568e-02 -3.291099e-01
      outer loop
         vertex 3.955378e+02 1.223653e+03 1.565646e+03
         vertex 3.892124e+02 1.223250e+03 1.547473e+03
         vertex 3.920968e+02 1.230114e+03 1.556268e+03
      endloop
   endfacet
endsolid